<svg width="70" height="70" viewBox="0 0 70 70" fill="none" xmlns="http://www.w3.org/2000/svg">
<rect width="70" height="70" rx="35" fill="#FEFEFE"/>
<g clip-path="url(#clip0_65_23)">
<path fill-rule="evenodd" clip-rule="evenodd" d="M30.3657 50.1409H38.6342V53.9985H30.3657V50.1409Z" fill="#1E3751"/>
<path fill-rule="evenodd" clip-rule="evenodd" d="M30.3657 50.1409H33.7085V53.9985H30.3657V50.1409Z" fill="#0A2540"/>
<path fill-rule="evenodd" clip-rule="evenodd" d="M54.8996 16.3577H14.1004C12.9452 16.3577 12 17.3028 12 18.4606V48.3479C12 49.5032 12.9452 50.4483 14.1004 50.4483H54.8996C56.0548 50.4483 57 49.5032 57 48.3479V18.4606C57 17.3028 56.0548 16.3577 54.8996 16.3577Z" fill="#1E3751"/>
<path fill-rule="evenodd" clip-rule="evenodd" d="M14.9814 19.3418H54.0183V47.4668H14.9814V19.3418Z" fill="#70C1F9"/>
<path fill-rule="evenodd" clip-rule="evenodd" d="M23.7598 58.5887V56.1399C23.7598 54.7925 24.8612 53.6912 26.2085 53.6912H42.7915C44.1389 53.6912 45.2402 54.7926 45.2402 56.1399V58.5887H23.7598Z" fill="#293D7C"/>
<path fill-rule="evenodd" clip-rule="evenodd" d="M17.9016 15.0051H51.0983V47.4667H17.9016V15.0051Z" fill="#E9E9FF"/>
<path fill-rule="evenodd" clip-rule="evenodd" d="M17.9016 15.0051H51.0983V19.3417H17.9016V15.0051Z" fill="#FAAD1B"/>
<path d="M20.9294 16.5396H22.3613V17.805H20.9294V16.5396ZM23.7803 17.805H25.2122V16.5396H23.7803V17.805ZM26.6312 16.5396V17.805H28.0631V16.5396H26.6312Z" fill="#E9E9FF"/>
<path fill-rule="evenodd" clip-rule="evenodd" d="M41.6392 38.0413L44.4109 36.4409L50.1758 46.4258L47.4041 48.0261L41.6392 38.0413Z" fill="#293D7C"/>
<path d="M41.9871 20.7966C43.3396 21.1602 44.5589 21.775 45.6065 22.5768C46.6925 23.4118 47.5942 24.4492 48.2704 25.6198C48.9441 26.7879 49.3924 28.0866 49.5691 29.4441C49.7433 30.7556 49.6664 32.1183 49.3053 33.4682C48.9415 34.8206 48.3268 36.0399 47.5224 37.0875C46.6899 38.1736 45.6525 39.0753 44.4819 39.7489L44.4845 39.7514C43.3165 40.4251 42.0152 40.8733 40.6551 41.0501C39.3462 41.2243 37.9835 41.1474 36.631 40.7862C35.2785 40.4225 34.0619 39.8077 33.0142 39.0035C31.9282 38.171 31.0266 37.1336 30.3503 35.9655C29.6767 34.7974 29.2284 33.4962 29.0491 32.1361C28.8776 30.8272 28.9544 29.4645 29.3155 28.1146C29.6793 26.7621 30.294 25.5429 31.0957 24.4953C31.9308 23.4066 32.9682 22.505 34.1362 21.8313C35.3042 21.1576 36.6029 20.7094 37.9631 20.5301C39.2745 20.3585 40.6372 20.4353 41.9871 20.7966Z" fill="#2E4C89"/>
<path d="M31.1496 23.0919H20.9293V21.8264H31.1496V23.0919ZM26.9129 24.9437H20.9292V26.2092H26.9129V24.9437ZM26.9129 28.0611H20.9292V29.3266H26.9129V28.0611ZM26.9129 31.1783H20.9292V32.4438H26.9129V31.1783ZM28.6419 34.2957H20.9292V35.5612H28.6419V34.2957ZM28.6419 37.4129H20.9292V38.6784H28.6419V37.4129ZM31.1496 40.5303H20.9293V41.7958H31.1496V40.5303ZM20.9293 43.6476V44.9131H42.333V43.6476H20.9293Z" fill="#CFCFFF"/>
<path d="M44.8408 23.581C43.9212 22.8765 42.8506 22.3361 41.662 22.0185C40.4709 21.6983 39.2747 21.6317 38.1271 21.7828C36.936 21.9391 35.7962 22.331 34.769 22.9252C33.7418 23.5169 32.8325 24.3085 32.1 25.2613C31.3955 26.1809 30.8551 27.2516 30.5374 28.44C30.2172 29.6311 30.1481 30.8273 30.2992 31.9749C30.4581 33.166 30.85 34.3058 31.4416 35.333V35.3356C32.0334 36.3576 32.8249 37.2695 33.7802 38.0021C34.6998 38.7065 35.768 39.247 36.9591 39.5646C38.1502 39.8848 39.3464 39.9514 40.4939 39.8002C41.685 39.644 42.8249 39.2521 43.8521 38.6578H43.8546C44.8766 38.0687 45.7859 37.2772 46.5211 36.3218C47.2255 35.4022 47.766 34.3315 48.0836 33.143C48.4037 31.9519 48.4704 30.7557 48.3192 29.6082C48.1629 28.4145 47.7685 27.2747 47.1768 26.2475C46.5877 25.2254 45.7961 24.3136 44.8408 23.581Z" fill="#CFCFFF"/>
<path fill-rule="evenodd" clip-rule="evenodd" d="M26.4236 58.5887V56.1399C26.4236 54.7925 27.525 53.6912 28.8724 53.6912H45.4579C46.8052 53.6912 47.9067 54.7926 47.9067 56.1399V58.5887H26.4236Z" fill="#1E3751"/>
<path fill-rule="evenodd" clip-rule="evenodd" d="M23.7598 58.5887V56.1399C23.7598 54.7925 24.8612 53.6912 26.2085 53.6912H28.8725C27.5251 53.6912 26.4236 54.7926 26.4236 56.1399V58.5887H23.7598Z" fill="#0A2540"/>
<path fill-rule="evenodd" clip-rule="evenodd" d="M13.5754 16.4268C12.6711 16.6598 12 17.4847 12 18.4605V48.3478C12 49.5031 12.9452 50.4483 14.1004 50.4483H54.8996C55.8013 50.4483 56.5748 49.872 56.8719 49.0702C56.7028 49.1137 56.5262 49.1368 56.3442 49.1368H15.5451C14.3898 49.1368 13.4447 48.1917 13.4447 47.0364V17.1491C13.4447 16.8956 13.4908 16.6522 13.5754 16.4268Z" fill="#0A2540"/>
<path fill-rule="evenodd" clip-rule="evenodd" d="M43.4805 42.8048L47.6275 40.4099L52.9093 49.5595C53.5676 50.6994 53.1731 52.1696 52.0333 52.8279C50.8934 53.4862 49.4206 53.0917 48.7623 51.9519L43.4805 42.8048Z" fill="#ED524E"/>
<path d="M34.7996 33.5937H35.9729V34.8591H34.7996C34.5398 34.8591 34.3283 35.0718 34.3283 35.3331V35.9658H33.0628V35.3331C33.0628 34.3739 33.842 33.5937 34.7996 33.5937ZM43.6649 33.5937H42.6992V34.8591H43.6649C43.9218 34.8591 44.1387 35.0762 44.1387 35.3331V35.9658H45.4042V35.3331C45.4042 34.3739 44.6239 33.5937 43.6649 33.5937ZM42.5762 31.3294V32.5948H45.6757V31.3294H42.5762ZM32.9451 32.5948H36.0393V31.3294H32.9451V32.5948ZM37.2624 26.0879L37.4896 26.6784L38.6705 26.2239L38.4433 25.6334C38.0304 24.5606 36.98 23.8397 35.8293 23.8397H35.1966V25.1051H35.8293C36.4603 25.1051 37.0362 25.5 37.2624 26.0879ZM41.3841 26.0184C41.6316 25.4636 42.1818 25.105 42.7863 25.105H43.419V23.8396H42.7863C41.6831 23.8396 40.6791 24.4925 40.2285 25.503L39.9708 26.0808L41.1265 26.5962L41.3841 26.0184ZM34.7996 30.0052H43.6649C44.6239 30.0052 45.4042 29.2249 45.4042 28.2659V27.6331H44.1387V28.2659C44.1387 28.5228 43.9218 28.7398 43.6649 28.7398H34.7996C34.5398 28.7398 34.3283 28.5272 34.3283 28.2659V27.6331H33.0628V28.2659C33.0628 29.2249 33.842 30.0052 34.7996 30.0052Z" fill="#9C3633"/>
<path d="M35.8806 30.0052V28.3633C35.8806 27.4207 36.2649 26.5626 36.8873 25.9427C37.5072 25.3203 38.3653 24.936 39.3079 24.936C40.2531 24.936 41.1086 25.3203 41.7311 25.9427C42.3509 26.5626 42.7378 27.4207 42.7378 28.3633V30.0052H35.8806Z" fill="#C0433F"/>
<path d="M43.8416 28.7397V33.207C43.8416 34.4544 43.3318 35.5891 42.5096 36.4114C41.6899 37.231 40.5552 37.7433 39.3078 37.7433C38.0603 37.7433 36.9281 37.231 36.1059 36.4114C35.2837 35.5891 34.7739 34.4569 34.7739 33.207V28.7397H43.8416Z" fill="#ED524E"/>
<path d="M39.9406 28.7397V37.6972C39.7331 37.728 39.523 37.7433 39.3079 37.7433C39.0928 37.7433 38.8827 37.728 38.6753 37.6972V28.7397H39.9406Z" fill="#9C3633"/>
</g>
<defs>
<clipPath id="clip0_65_23">
<rect width="45" height="43.5938" fill="white" transform="translate(12 15)"/>
</clipPath>
</defs>
</svg>
