<svg width="70" height="70" viewBox="0 0 70 70" fill="none" xmlns="http://www.w3.org/2000/svg">
<rect width="70" height="70" rx="35" fill="#FEFEFE"/>
<g clip-path="url(#clip0_65_23)">
<path d="M34.5 35.1787H11.8393C11.376 35.1787 11 34.8027 11 34.3394V32.6608C11 32.1975 11.376 31.8215 11.8393 31.8215H34.5V35.1787Z" fill="#C80A50"/>
<path d="M39.5356 57.0001H29.4642C28.5368 57.0001 27.7856 56.2489 27.7856 55.3215V45.2501L32.8214 40.2144H39.5356C40.4631 40.2144 41.2142 40.9655 41.2142 41.8929V55.3215C41.2142 56.2489 40.4631 57.0001 39.5356 57.0001Z" fill="#C80A50"/>
<path d="M27.7856 45.2501L32.8214 40.2144V43.5715C32.8214 44.4989 32.0702 45.2501 31.1428 45.2501H27.7856Z" fill="#A00028"/>
<path d="M33.6608 48.607H37.018C37.4812 48.607 37.8572 48.231 37.8572 47.7678C37.8572 47.3045 37.4812 46.9285 37.018 46.9285H33.6608C33.1975 46.9285 32.8215 47.3045 32.8215 47.7678C32.8215 48.231 33.1975 48.607 33.6608 48.607Z" fill="#A00028"/>
<path d="M31.9821 51.9642H37.0178C37.4811 51.9642 37.8571 51.5882 37.8571 51.1249C37.8571 50.6616 37.4811 50.2856 37.0178 50.2856H31.9821C31.5188 50.2856 31.1428 50.6616 31.1428 51.1249C31.1428 51.5882 31.5188 51.9642 31.9821 51.9642Z" fill="#A00028"/>
<path d="M56.3215 57.0001H46.2501C45.3227 57.0001 44.5715 56.2489 44.5715 55.3215V45.2501L49.6072 40.2144H56.3215C57.2489 40.2144 58.0001 40.9655 58.0001 41.8929V55.3215C58.0001 56.2489 57.2489 57.0001 56.3215 57.0001Z" fill="#FAB400"/>
<path d="M44.5715 45.2501L49.6072 40.2144V43.5715C49.6072 44.4989 48.8561 45.2501 47.9287 45.2501H44.5715Z" fill="#DC9600"/>
<path d="M50.4465 48.607H53.8036C54.2669 48.607 54.6429 48.231 54.6429 47.7678C54.6429 47.3045 54.2669 46.9285 53.8036 46.9285H50.4465C49.9832 46.9285 49.6072 47.3045 49.6072 47.7678C49.6072 48.231 49.9832 48.607 50.4465 48.607Z" fill="#DC9600"/>
<path d="M48.7678 51.9642H53.8035C54.2668 51.9642 54.6428 51.5882 54.6428 51.1249C54.6428 50.6616 54.2668 50.2856 53.8035 50.2856H48.7678C48.3045 50.2856 47.9285 50.6616 47.9285 51.1249C47.9285 51.5882 48.3045 51.9642 48.7678 51.9642Z" fill="#DC9600"/>
<path d="M22.75 57.0001H12.6786C11.7512 57.0001 11 56.2489 11 55.3215V45.2501L16.0357 40.2144H22.75C23.6774 40.2144 24.4286 40.9655 24.4286 41.8929V55.3215C24.4286 56.2489 23.6774 57.0001 22.75 57.0001Z" fill="#00A0C8"/>
<path d="M11 45.2501L16.0357 40.2144V43.5715C16.0357 44.4989 15.2846 45.2501 14.3571 45.2501H11Z" fill="#0082AA"/>
<path d="M16.8749 48.607H20.2321C20.6954 48.607 21.0714 48.231 21.0714 47.7678C21.0714 47.3045 20.6954 46.9285 20.2321 46.9285H16.8749C16.4116 46.9285 16.0356 47.3045 16.0356 47.7678C16.0356 48.231 16.4116 48.607 16.8749 48.607Z" fill="#0082AA"/>
<path d="M15.1965 51.9642H20.2322C20.6955 51.9642 21.0715 51.5882 21.0715 51.1249C21.0715 50.6616 20.6955 50.2856 20.2322 50.2856H15.1965C14.7332 50.2856 14.3572 50.6616 14.3572 51.1249C14.3572 51.5882 14.7332 51.9642 15.1965 51.9642Z" fill="#0082AA"/>
<path d="M34.5 35.1785V31.8213C39.1278 31.8213 42.8929 28.0563 42.8929 23.4285C42.8929 18.8006 39.1278 15.0356 34.5 15.0356V11.6785C40.9793 11.6785 46.25 16.9492 46.25 23.4285C46.25 29.9078 40.9793 35.1785 34.5 35.1785Z" fill="#C80A50"/>
<path d="M34.5 35.1785C28.0207 35.1785 22.75 29.9078 22.75 23.4285C22.75 16.9492 28.0207 11.6785 34.5 11.6785V15.0356C29.8722 15.0356 26.1071 18.8006 26.1071 23.4285C26.1071 28.0563 29.8722 31.8213 34.5 31.8213V35.1785Z" fill="#00A0C8"/>
<path d="M30.5496 12.7637C30.2214 13.0918 30.2214 13.6223 30.5496 13.9504L32.0116 15.4124C32.798 15.1674 33.634 15.0356 34.5001 15.0356V11.6785C33.336 11.6785 32.2105 11.8488 31.1472 12.1653L30.5496 12.7637Z" fill="#0082AA"/>
<path d="M34.8214 10.0638C34.5075 9.93451 34.1466 10.005 33.9066 10.2459L31.3887 12.7637C31.0605 13.0919 31.0605 13.6223 31.3887 13.9505L33.9066 16.4683C34.0669 16.6286 34.2817 16.7143 34.4999 16.7143C34.6082 16.7143 34.7173 16.6933 34.8214 16.6505C35.1353 16.5204 35.3392 16.214 35.3392 15.875V10.8393C35.3392 10.5002 35.1353 10.1938 34.8214 10.0638Z" fill="#C80A50"/>
<path d="M57.754 32.9066L55.2361 30.3888C54.9969 30.1487 54.636 30.0774 54.3213 30.2066C54.0074 30.3367 53.8035 30.6431 53.8035 30.9821V36.0179C53.8035 36.3569 54.0074 36.6633 54.3213 36.7934C54.4254 36.8362 54.5345 36.8571 54.6428 36.8571C54.861 36.8571 55.0758 36.7715 55.2361 36.6112L57.754 34.0934C58.0821 33.7652 58.0821 33.2348 57.754 32.9066Z" fill="#00A0C8"/>
<path d="M34.5 31.8215H53.8036V35.1787H34.5V31.8215Z" fill="#00A0C8"/>
<path d="M33.6606 26.7856H35.3392V40.2142H33.6606V26.7856Z" fill="#FAB400"/>
<path d="M52.125 40.2144H50.4465V26.7858C50.4465 25.3976 49.3168 24.2679 47.9286 24.2679H37.8572V22.5894H47.9286C50.2425 22.5894 52.125 24.4719 52.125 26.7858V40.2144Z" fill="#FAB400"/>
<path d="M18.5536 40.2144H16.875V26.7858C16.875 24.4719 18.7575 22.5894 21.0714 22.5894H31.1429V24.2679H21.0714C19.6832 24.2679 18.5536 25.3976 18.5536 26.7858V40.2144Z" fill="#FAB400"/>
<path d="M40.4269 24.9125L39.4475 24.3468C39.5029 24.0489 39.5356 23.7425 39.5356 23.4286C39.5356 23.1147 39.5029 22.8084 39.4483 22.5105L40.4278 21.9448C40.8289 21.7131 40.9666 21.1995 40.7349 20.7983L39.8956 19.3447C39.664 18.9435 39.1504 18.8059 38.7492 19.0375L38.2532 19.3237C37.9812 19.4806 37.6388 19.4823 37.382 19.3027C37.1461 19.1382 36.896 18.9939 36.6333 18.8713C36.348 18.7387 36.1785 18.4408 36.1785 18.1269V17.5536C36.1785 17.0904 35.8025 16.7144 35.3392 16.7144H33.6606C33.1973 16.7144 32.8213 17.0904 32.8213 17.5536V18.1269C32.8213 18.4408 32.6518 18.7387 32.3673 18.8713C32.1046 18.9939 31.8545 19.1382 31.6186 19.3027C31.3618 19.4823 31.0185 19.4806 30.7474 19.3237L30.2514 19.0375C29.8502 18.8059 29.3366 18.9435 29.105 19.3447L28.2657 20.7983C28.034 21.1995 28.1717 21.7131 28.5728 21.9448L29.5523 22.5105C29.4969 22.8084 29.4642 23.1147 29.4642 23.4286C29.4642 23.7425 29.4969 24.0489 29.5515 24.3468L28.572 24.9125C28.1708 25.1441 28.0332 25.6578 28.2648 26.059L29.1041 27.5126C29.3358 27.9138 29.8494 28.0514 30.2506 27.8198L30.7466 27.5336C31.0185 27.3766 31.361 27.375 31.6178 27.5546C31.8536 27.7191 32.1037 27.8634 32.3664 27.986C32.6518 28.1186 32.8213 28.4165 32.8213 28.7304V29.3036C32.8213 29.7669 33.1973 30.1429 33.6606 30.1429H35.3392C35.8025 30.1429 36.1785 29.7669 36.1785 29.3036V28.7304C36.1785 28.4165 36.348 28.1186 36.6325 27.986C36.8952 27.8634 37.1453 27.7191 37.3811 27.5546C37.638 27.375 37.9812 27.3766 38.2523 27.5336L38.7483 27.8198C39.1495 28.0514 39.6632 27.9138 39.8948 27.5126L40.7341 26.059C40.9657 25.6578 40.8281 25.1441 40.4269 24.9125ZM34.4999 26.7858C32.6459 26.7858 31.1427 25.2826 31.1427 23.4286C31.1427 21.5747 32.6459 20.0715 34.4999 20.0715C36.3539 20.0715 37.857 21.5747 37.857 23.4286C37.857 25.2826 36.3539 26.7858 34.4999 26.7858Z" fill="#0A5078"/>
<path d="M22.8701 25.1071H26.2759C26.2197 24.8318 26.1777 24.5523 26.1492 24.2678H22.7803C22.7996 24.5507 22.8298 24.8301 22.8701 25.1071Z" fill="#0082AA"/>
<path d="M42.7241 25.1071H46.1299C46.1694 24.8301 46.1996 24.5507 46.2197 24.2678H42.8509C42.8223 24.5523 42.7804 24.8318 42.7241 25.1071Z" fill="#A00028"/>
<path d="M18.5535 31.8215H19.3928V35.1787H18.5535V31.8215Z" fill="#A00028"/>
<path d="M35.3394 31.8215H36.1786V35.1787H35.3394V31.8215Z" fill="#0082AA"/>
<path d="M52.125 31.8215H52.9643V35.1787H52.125V31.8215Z" fill="#0082AA"/>
</g>
<defs>
<clipPath id="clip0_65_23">
<rect width="47" height="47" fill="white" transform="translate(11 10)"/>
</clipPath>
</defs>
</svg>
