<svg width="70" height="70" viewBox="0 0 70 70" fill="none" xmlns="http://www.w3.org/2000/svg">
<rect width="70" height="70" rx="35" fill="#FEFEFE"/>
<path fill-rule="evenodd" clip-rule="evenodd" d="M8.05371 21.2864H55.092V51.9309H8.05371V21.2864Z" fill="#00EFD1"/>
<path fill-rule="evenodd" clip-rule="evenodd" d="M49.0122 25.5562C51.168 25.5562 53.2238 25.9893 55.0919 26.7747V51.931H37.4894C34.8939 49.1287 33.3069 45.3826 33.3069 41.2616C33.3069 32.5863 40.3401 25.5562 49.0122 25.5562Z" fill="#6DD5E3"/>
<path fill-rule="evenodd" clip-rule="evenodd" d="M25.8049 51.9309H37.3439V58.6571H25.8049V51.9309Z" fill="#375D78"/>
<path fill-rule="evenodd" clip-rule="evenodd" d="M34.7776 51.9309H37.344V58.6571H34.7776V51.9309Z" fill="#2F4F66"/>
<path d="M42.0015 59.4556H21.1475C20.7065 59.4556 20.3491 59.0982 20.3491 58.6572C20.3491 58.2163 20.7065 57.8589 21.1475 57.8589H42.0016C42.4426 57.8589 42.8 58.2163 42.8 58.6572C42.8 59.0981 42.4425 59.4556 42.0015 59.4556Z" fill="#407093"/>
<path fill-rule="evenodd" clip-rule="evenodd" d="M55.092 48.1299H8.05688V51.931H25.8049H37.344H55.092V48.1299Z" fill="#0A2540"/>
<path fill-rule="evenodd" clip-rule="evenodd" d="M11.8547 18.9753H51.2941V42.3862H11.8547V18.9753Z" fill="#0A2540"/>
<path fill-rule="evenodd" clip-rule="evenodd" d="M11.8547 11.5444H51.2941V18.9752H11.8547V11.5444Z" fill="#00ACEA"/>
<path d="M20.4545 25.2609L17.6934 28.0219L20.4542 30.7801C20.766 31.0916 20.7664 31.5973 20.4547 31.9091C20.2988 32.0652 20.0944 32.1433 19.8899 32.1433C19.6857 32.1433 19.4816 32.0654 19.3257 31.9097L15.9998 28.587C15.85 28.4373 15.7657 28.2342 15.7656 28.0224C15.7656 27.8105 15.8497 27.6074 15.9995 27.4576L19.3254 24.1316C19.6371 23.8198 20.1427 23.8198 20.4545 24.1316C20.7662 24.4435 20.7662 24.949 20.4545 25.2609ZM32.1069 27.4581L28.7841 24.1321C28.4726 23.82 27.9668 23.82 27.6551 24.1316C27.3432 24.4431 27.3428 24.9487 27.6545 25.2606L30.4134 28.0219L27.6548 30.7803C27.343 31.0921 27.343 31.5977 27.6548 31.9094C27.8106 32.0653 28.0149 32.1433 28.2194 32.1433C28.4238 32.1433 28.628 32.0653 28.784 31.9094L32.1067 28.5868C32.4183 28.2751 32.4184 27.7698 32.1069 27.4581ZM25.9905 23.6664C25.5873 23.4869 25.1158 23.6685 24.9366 24.0712L21.7108 31.321C21.5315 31.7238 21.7128 32.1957 22.1155 32.3749C22.2211 32.4218 22.3313 32.4441 22.4397 32.4441C22.7455 32.4441 23.0372 32.2675 23.1696 31.9701L26.3953 24.7203C26.5745 24.3175 26.3932 23.8456 25.9905 23.6664Z" fill="#FAAD1B"/>
<path d="M16.1342 16.0567H16.1018C15.6609 16.0567 15.3035 15.6993 15.3035 15.2583C15.3035 14.8174 15.6609 14.46 16.1018 14.46H16.1342C16.5751 14.46 16.9325 14.8174 16.9325 15.2583C16.9325 15.6993 16.5751 16.0567 16.1342 16.0567Z" fill="#FF0000"/>
<path d="M47.0472 16.0567H27.0462C26.6052 16.0567 26.2478 15.6993 26.2478 15.2583C26.2478 14.8174 26.6052 14.46 27.0462 14.46H47.0472C47.4881 14.46 47.8455 14.8174 47.8455 15.2583C47.8455 15.6993 47.488 16.0567 47.0472 16.0567Z" fill="#F1F1F9"/>
<path d="M18.413 16.0567H18.3806C17.9397 16.0567 17.5823 15.6993 17.5823 15.2583C17.5823 14.8174 17.9397 14.46 18.3806 14.46H18.413C18.8539 14.46 19.2113 14.8174 19.2113 15.2583C19.2113 15.6993 18.8539 16.0567 18.413 16.0567Z" fill="#FFC91D"/>
<path d="M20.6884 16.0567H20.656C20.2151 16.0567 19.8577 15.6993 19.8577 15.2583C19.8577 14.8174 20.2151 14.46 20.656 14.46H20.6884C21.1293 14.46 21.4867 14.8174 21.4867 15.2583C21.4867 15.6993 21.1293 16.0567 20.6884 16.0567Z" fill="#05E39C"/>
<path fill-rule="evenodd" clip-rule="evenodd" d="M37.4895 51.931C36.4454 50.803 35.5664 49.5263 34.8843 48.1299H55.0921V51.931H37.4895Z" fill="#375D78"/>
<path fill-rule="evenodd" clip-rule="evenodd" d="M49.0122 25.5562C49.7879 25.5562 50.5508 25.6112 51.2941 25.721V42.3863H33.3489C33.323 42.0146 33.3069 41.6397 33.3069 41.2614C33.3069 32.5863 40.3401 25.5562 49.0122 25.5562Z" fill="#375D78"/>
<path fill-rule="evenodd" clip-rule="evenodd" d="M49.0123 55.1921C56.6856 55.1921 62.9463 48.9346 62.9463 41.2614C62.9463 33.588 56.6856 27.3306 49.0123 27.3306C41.3391 27.3306 35.0815 33.5881 35.0815 41.2614C35.0814 48.9346 41.3391 55.1921 49.0123 55.1921Z" fill="#FFC91D"/>
<path fill-rule="evenodd" clip-rule="evenodd" d="M44.3093 39.4901L46.42 37.6995L50.3826 42.3604L48.2752 44.1542L44.3093 39.4901Z" fill="#C97628"/>
<path fill-rule="evenodd" clip-rule="evenodd" d="M54.704 50.7352L55.8417 49.7655C56.3233 49.3582 56.3815 48.631 55.9743 48.1494L50.7704 42.0308L47.884 44.4841L53.0879 50.6026C53.4984 51.0842 54.2257 51.1424 54.704 50.7352Z" fill="#C97628"/>
<path fill-rule="evenodd" clip-rule="evenodd" d="M44.2933 33.6495C45.7446 32.6798 47.2831 32.3987 48.9025 32.7543L46.7046 34.5513C46.1164 35.0393 46.0873 35.6309 46.5527 36.3065L47.1831 37.0498L43.6987 40.0105L43.0685 39.267L42.4124 39.8263L42.4479 41.0739L40.9514 42.3474L38.0618 38.947L39.5583 37.6735L40.7833 37.9128L41.4394 37.3536L40.8091 36.6102L44.2933 33.6495Z" fill="#CDCDD1"/>
<path fill-rule="evenodd" clip-rule="evenodd" d="M51.8211 38.6045L43.8859 46.6235C43.0779 47.4413 43.2492 48.8279 44.1252 49.5713C45.0011 50.318 46.3942 50.263 47.0729 49.332L53.7119 40.2043C55.286 40.8572 57.2156 40.4046 58.3307 39.0957C59.4426 37.7834 59.5622 36.1285 58.8963 34.7387L57.1316 36.8105L56.2492 37.848L55.1825 37.8351L54.1127 37.8222L53.9285 36.7717L53.7443 35.718L54.6298 34.6805L56.3913 32.6087C54.9111 32.1756 53.2465 32.6151 52.1799 33.8661C51.0163 35.2366 50.9257 37.1532 51.8211 38.6045Z" fill="#C1C1C6"/>
<path fill-rule="evenodd" clip-rule="evenodd" d="M44.1252 49.5715L54.1127 37.8225L53.9285 36.772L53.7443 35.7183L54.6298 34.6808L56.3913 32.6089C54.9111 32.1758 53.2465 32.6154 52.1799 33.8663C51.0163 35.2368 50.9257 37.1535 51.8211 38.6048L43.8859 46.6239C43.0779 47.4414 43.2492 48.828 44.1252 49.5715Z" fill="#AAAAAF"/>
</svg>
