<svg width="70" height="70" viewBox="0 0 70 70" fill="none" xmlns="http://www.w3.org/2000/svg">
<rect width="70" height="70" rx="35" fill="#FEFEFE"/>
<g clip-path="url(#clip0_65_23)">
<path fill-rule="evenodd" clip-rule="evenodd" d="M13.288 15.0432H52.9514C53.8847 15.0458 54.779 15.4177 55.4389 16.0776C56.0988 16.7375 56.4707 17.6318 56.4733 18.5651V49.9349C56.4707 50.8682 56.0988 51.7625 55.4389 52.4224C54.779 53.0824 53.8847 53.4543 52.9514 53.4568H13.288C12.3547 53.4543 11.4604 53.0824 10.8005 52.4224C10.1406 51.7625 9.76868 50.8682 9.76611 49.9349V18.5657C9.76868 17.6325 10.1406 16.7382 10.8005 16.0782C11.4604 15.4183 12.3547 15.0464 13.288 15.0439V15.0432Z" fill="#E1EDF7"/>
<path fill-rule="evenodd" clip-rule="evenodd" d="M13.2881 15.0432H52.9515C53.8848 15.0458 54.7791 15.4177 55.439 16.0776C56.0989 16.7375 56.4708 17.6318 56.4734 18.5651V21.8516H9.76611V18.5657C9.76868 17.6325 10.1406 16.7382 10.8005 16.0782C11.4604 15.4183 12.3547 15.0464 13.288 15.0439L13.2881 15.0432Z" fill="#FAAD1B"/>
<path fill-rule="evenodd" clip-rule="evenodd" d="M46.4779 36.6406C48.8842 39.4537 50.3356 42.9578 50.6232 46.6484H46.0686C45.8057 44.1623 44.8291 41.8053 43.2566 39.8617L46.4779 36.6406Z" fill="#FA2D2D"/>
<path fill-rule="evenodd" clip-rule="evenodd" d="M34.5071 30.5327C38.1977 30.8204 41.7018 32.2718 44.5149 34.678L41.2939 37.8993C39.3506 36.3263 36.9934 35.3496 34.5071 35.0873V30.5327Z" fill="#1A98CF"/>
<path fill-rule="evenodd" clip-rule="evenodd" d="M21.7244 34.678C24.5371 32.2713 28.0414 30.8198 31.7322 30.5327V35.0873C29.2457 35.349 26.8884 36.3258 24.9455 37.8993L21.7244 34.678Z" fill="#009933"/>
<path fill-rule="evenodd" clip-rule="evenodd" d="M15.6165 46.6484C15.904 42.9578 17.3555 39.4537 19.7618 36.6406L22.983 39.8619C21.4105 41.8055 20.4339 44.1625 20.1709 46.6487L15.6165 46.6484Z" fill="#FBA615"/>
<path fill-rule="evenodd" clip-rule="evenodd" d="M62.6401 33.6827C62.4851 34.3522 62.2201 34.9913 61.8557 35.574L62.2184 36.1817L62.6618 36.9227C62.231 37.4888 61.7252 37.9936 61.1582 38.4232L60.4171 37.983L59.8125 37.6202C59.2279 37.9828 58.5881 38.2477 57.9182 38.4046L57.7477 39.0898L57.5369 39.9238C56.8314 40.023 56.1154 40.023 55.4099 39.9238L55.1992 39.0898L55.0287 38.4046C54.3588 38.2477 53.719 37.9828 53.1343 37.6202L52.5298 37.983L51.7888 38.4232C51.2217 37.9937 50.7158 37.4888 50.2851 36.9227L50.7284 36.1817L51.0912 35.574C50.7269 34.9913 50.4618 34.3522 50.3067 33.6827L49.6215 33.5091L48.7844 33.2983C48.6894 32.5936 48.6894 31.8792 48.7844 31.1745L49.6215 30.9637L50.3067 30.79C50.4624 30.1208 50.7274 29.4818 51.0912 28.8988L50.7284 28.2911L50.2851 27.5533C50.7157 26.9861 51.2216 26.4803 51.7888 26.0496L52.5298 26.4898L53.1343 26.8525C53.719 26.49 54.3588 26.2251 55.0287 26.0682L55.1992 25.383L55.4099 24.549C56.1154 24.4498 56.8314 24.4498 57.5369 24.549L57.7477 25.383L57.9182 26.0682C58.588 26.2251 59.2278 26.49 59.8125 26.8525L60.4171 26.4898L61.1582 26.0496C61.7253 26.4803 62.2311 26.9862 62.6618 27.5533L62.2184 28.2911L61.8557 28.8988C62.2195 29.4818 62.4845 30.1208 62.6401 30.79L63.3253 30.9637L64.1625 31.1745C64.2574 31.8793 64.2574 32.5936 64.1625 33.2983L63.3253 33.5091L62.6401 33.6827Z" fill="#808FA4"/>
<path fill-rule="evenodd" clip-rule="evenodd" d="M60.3582 32.2376C60.3582 33.0059 60.1304 33.757 59.7035 34.3958C59.2766 35.0347 58.6699 35.5326 57.96 35.8266C57.2502 36.1207 56.4691 36.1976 55.7155 36.0477C54.9619 35.8978 54.2697 35.5278 53.7265 34.9845C53.1832 34.4412 52.8132 33.749 52.6633 32.9954C52.5134 32.2419 52.5903 31.4608 52.8843 30.7509C53.1784 30.0411 53.6763 29.4344 54.3151 29.0075C54.954 28.5806 55.7051 28.3528 56.4734 28.3528C56.9836 28.3527 57.4888 28.4531 57.9602 28.6483C58.4315 28.8435 58.8598 29.1297 59.2206 29.4904C59.5813 29.8512 59.8675 30.2795 60.0627 30.7508C60.2579 31.2222 60.3583 31.7274 60.3582 32.2376Z" fill="#E1EDF7"/>
<path fill-rule="evenodd" clip-rule="evenodd" d="M33.1181 49.7149C33.4448 49.7152 33.7642 49.6186 34.036 49.4373C34.3078 49.256 34.5196 48.9982 34.6448 48.6964C34.77 48.3947 34.8028 48.0626 34.7391 47.7422C34.6755 47.4217 34.5182 47.1274 34.2872 46.8964C34.0562 46.6654 33.7619 46.5081 33.4415 46.4445C33.121 46.3808 32.7889 46.4137 32.4872 46.5388C32.1854 46.664 31.9276 46.8759 31.7463 47.1476C31.565 47.4194 31.4684 47.7388 31.4688 48.0655C31.4698 48.5026 31.6439 48.9215 31.953 49.2306C32.2621 49.5397 32.681 49.7138 33.1181 49.7149Z" fill="#384868"/>
<path fill-rule="evenodd" clip-rule="evenodd" d="M11.6636 49.9351V21.8518H9.76611V49.9351C9.76868 50.8684 10.1406 51.7627 10.8005 52.4227C11.4604 53.0826 12.3547 53.4545 13.288 53.457H15.1887C14.2551 53.4546 13.3603 53.0829 12.6998 52.423C12.0394 51.7632 11.6668 50.8688 11.6636 49.9351Z" fill="#CBD5DE"/>
<path fill-rule="evenodd" clip-rule="evenodd" d="M9.76611 21.8515H11.6636V18.5656C11.6668 17.632 12.0394 16.7375 12.6998 16.0777C13.3603 15.4178 14.2551 15.0461 15.1887 15.0437H13.2881C12.3548 15.0463 11.4605 15.4181 10.8006 16.0781C10.1407 16.738 9.76879 17.6323 9.76622 18.5656L9.76611 21.8515Z" fill="#FF9A00"/>
<path fill-rule="evenodd" clip-rule="evenodd" d="M17.1946 46.6485C17.5133 43.3717 18.7538 40.2523 20.7725 37.6516L19.7618 36.6409C17.3555 39.4539 15.904 42.9581 15.6165 46.6487L17.1946 46.6485Z" fill="#E69915"/>
<path fill-rule="evenodd" clip-rule="evenodd" d="M22.6171 35.5735C25.2198 33.4351 28.3852 32.0946 31.7322 31.7135V30.5322C28.0414 30.8193 24.5371 32.2708 21.7244 34.6775L22.6171 35.5735Z" fill="#02802C"/>
<path fill-rule="evenodd" clip-rule="evenodd" d="M43.6192 35.5735C41.0179 33.4346 37.8533 32.094 34.5071 31.7135V30.5322C38.1977 30.8199 41.7018 32.2713 44.5149 34.6775L43.6192 35.5735Z" fill="#1084B5"/>
<path fill-rule="evenodd" clip-rule="evenodd" d="M49.0449 46.6485C48.7262 43.3717 47.4857 40.2523 45.467 37.6516L46.4778 36.6409C48.8841 39.4539 50.3355 42.9581 50.6231 46.6487L49.0449 46.6485Z" fill="#D91F1F"/>
<path fill-rule="evenodd" clip-rule="evenodd" d="M54.3062 26.8525C54.8895 26.4895 55.5284 26.2245 56.1974 26.0682L56.3711 25.3829L56.4734 24.9768L56.5819 24.549C56.7401 24.5271 56.8981 24.5086 57.0594 24.4962C56.864 24.4839 56.6687 24.4744 56.4734 24.4744C56.1176 24.474 55.7622 24.4988 55.4099 24.5487L55.1992 25.3827L55.0287 26.068C54.5861 26.1718 54.1559 26.3224 53.7452 26.5173L54.3062 26.8525ZM56.1974 38.4046C55.5284 38.2483 54.8895 37.9833 54.3062 37.6202L53.745 37.9551C54.1558 38.15 54.5861 38.3007 55.0287 38.4046L55.1992 39.0898L55.4099 39.9238C55.7622 39.9737 56.1176 39.9985 56.4734 39.9982C56.6687 39.9982 56.864 39.9889 57.0594 39.9763C56.8981 39.9638 56.7401 39.9454 56.5819 39.9236L56.4734 39.4988L56.3711 39.0896L56.1974 38.4046ZM51.4569 27.5533C51.7567 27.1549 52.0953 26.7872 52.4678 26.4557L51.7888 26.0496C51.2216 26.4802 50.7157 26.9861 50.2851 27.5533L50.7284 28.2911L51.0912 28.8988C50.7274 29.4817 50.4624 30.1207 50.3067 30.79L49.6215 30.9637L48.7844 31.1745C48.6894 31.8792 48.6894 32.5936 48.7844 33.2983L49.6215 33.5091L50.3067 33.6827C50.4618 34.3521 50.7269 34.9913 51.0912 35.574L50.7284 36.1817L50.2851 36.9227C50.7158 37.4888 51.2217 37.9936 51.7888 38.4232L52.4678 38.0201C52.0968 37.6871 51.7584 37.3197 51.4569 36.9227L51.8973 36.1817L52.2599 35.574C51.8969 34.9906 51.6319 34.3517 51.4755 33.6827L50.7904 33.5091L49.9564 33.2985C49.8572 32.5941 49.8572 31.8792 49.9564 31.1747L50.7904 30.9639L51.4755 30.7902C51.6325 30.1214 51.8974 29.4826 52.2599 28.899L51.8973 28.2913L51.4569 27.5533Z" fill="#738194"/>
<path fill-rule="evenodd" clip-rule="evenodd" d="M53.7173 32.2376C53.7168 31.4038 53.9845 30.592 54.4808 29.922C54.9771 29.252 55.6758 28.7595 56.4736 28.5171C56.6586 28.4627 56.8471 28.4213 57.0378 28.3931C56.851 28.3656 56.6624 28.3521 56.4736 28.3528C55.4437 28.3528 54.456 28.7619 53.7277 29.4902C52.9995 30.2184 52.5903 31.2062 52.5903 32.2361C52.5903 33.266 52.9995 34.2537 53.7277 34.9819C54.456 35.7102 55.4437 36.1193 56.4736 36.1193C56.6624 36.12 56.851 36.1065 57.0378 36.079C56.8468 36.0523 56.6582 36.0109 56.4736 35.955C55.6762 35.7129 54.9779 35.2209 54.4816 34.5515C53.9853 33.8821 53.7173 33.0709 53.7173 32.2376Z" fill="#CBD5DE"/>
<path d="M19.6905 18.4467C19.6908 18.5981 19.6461 18.7462 19.5623 18.8722C19.4784 18.9983 19.359 19.0966 19.2192 19.1548C19.0794 19.213 18.9255 19.2284 18.7769 19.1992C18.6284 19.1699 18.4918 19.0973 18.3846 18.9904C18.2773 18.8836 18.2041 18.7473 18.1743 18.5989C18.1445 18.4504 18.1593 18.2964 18.217 18.1564C18.2746 18.0164 18.3725 17.8967 18.4982 17.8123C18.6239 17.7279 18.7719 17.6827 18.9233 17.6824H18.9263C19.0267 17.6824 19.1261 17.7021 19.2188 17.7406C19.3115 17.779 19.3958 17.8353 19.4667 17.9062C19.5377 17.9772 19.594 18.0615 19.6324 18.1542C19.6708 18.2469 19.6905 18.3463 19.6905 18.4467ZM13.4135 17.6824H13.4078C13.2045 17.6832 13.0099 17.7646 12.8666 17.9088C12.7233 18.053 12.643 18.2481 12.6434 18.4514C12.6439 18.6547 12.7249 18.8495 12.8688 18.9931C13.0127 19.1367 13.2077 19.2173 13.4109 19.2173C13.6142 19.2173 13.8092 19.1367 13.9531 18.9931C14.097 18.8495 14.178 18.6547 14.1784 18.4514C14.1788 18.2481 14.0986 18.053 13.9553 17.9088C13.812 17.7646 13.6173 17.6832 13.414 17.6824H13.4135ZM16.1698 17.6824H16.1641C15.9608 17.6832 15.7662 17.7646 15.6229 17.9088C15.4796 18.0529 15.3993 18.248 15.3998 18.4513C15.4002 18.6545 15.4812 18.8493 15.6251 18.9929C15.7689 19.1365 15.9639 19.2171 16.1671 19.2171C16.3704 19.2171 16.5653 19.1365 16.7092 18.9929C16.8531 18.8493 16.9341 18.6545 16.9345 18.4513C16.9349 18.248 16.8547 18.0529 16.7114 17.9088C16.5681 17.7646 16.3734 17.6832 16.1702 17.6824H16.1698ZM52.8304 17.6824H22.6965C22.5954 17.6812 22.495 17.7 22.4012 17.7379C22.3074 17.7758 22.2221 17.8319 22.1501 17.903C22.0782 17.974 22.0211 18.0587 21.9821 18.152C21.9431 18.2454 21.923 18.3455 21.923 18.4466C21.923 18.5478 21.9431 18.6479 21.9821 18.7412C22.0211 18.8346 22.0782 18.9192 22.1501 18.9903C22.2221 19.0614 22.3074 19.1175 22.4012 19.1554C22.495 19.1932 22.5954 19.2121 22.6965 19.2109H52.8305C52.9316 19.2121 53.032 19.1932 53.1258 19.1554C53.2196 19.1175 53.3049 19.0614 53.3769 18.9903C53.4488 18.9192 53.5059 18.8346 53.5449 18.7412C53.5839 18.6479 53.604 18.5478 53.604 18.4466C53.604 18.3455 53.5839 18.2454 53.5449 18.152C53.5059 18.0587 53.4488 17.974 53.3769 17.903C53.3049 17.8319 53.2196 17.7758 53.1258 17.7379C53.032 17.7 52.9316 17.6812 52.8305 17.6824H52.8304ZM40.6679 40.5153C40.7389 40.5862 40.7952 40.6705 40.8336 40.7632C40.8721 40.8559 40.8919 40.9553 40.8919 41.0557C40.8919 41.156 40.8721 41.2554 40.8336 41.3481C40.7952 41.4408 40.7389 41.5251 40.6679 41.596L35.2785 46.9854C35.5349 47.4985 35.6002 48.0862 35.4629 48.6431C35.3256 49.2001 34.9947 49.69 34.5292 50.0253C34.0637 50.3605 33.4941 50.5192 32.9224 50.4729C32.3506 50.4266 31.814 50.1784 31.4085 49.7727C31.003 49.3669 30.7551 48.8301 30.7092 48.2583C30.6632 47.6866 30.8223 47.1171 31.1578 46.6518C31.4933 46.1865 31.9834 45.8559 32.5405 45.7189C33.0975 45.5819 33.6851 45.6477 34.1981 45.9043L39.5872 40.5153C39.6581 40.4443 39.7423 40.3879 39.8351 40.3495C39.9278 40.311 40.0272 40.2912 40.1276 40.2912C40.228 40.2912 40.3274 40.311 40.4201 40.3495C40.5128 40.3879 40.5971 40.4443 40.668 40.5153H40.6679ZM34.0056 48.0659C34.0059 47.8904 33.9542 47.7187 33.8568 47.5726C33.7595 47.4266 33.621 47.3127 33.4589 47.2453C33.2968 47.178 33.1184 47.1603 32.9462 47.1945C32.7741 47.2286 32.6159 47.3131 32.4918 47.4372C32.3677 47.5613 32.2832 47.7195 32.249 47.8916C32.2148 48.0638 32.2325 48.2422 32.2998 48.4043C32.3671 48.5665 32.481 48.7049 32.627 48.8023C32.7731 48.8996 32.9447 48.9514 33.1202 48.9512C33.3549 48.9505 33.5797 48.8571 33.7456 48.6912C33.9115 48.5253 34.0049 48.3005 34.0056 48.0659ZM45.0553 35.2184L41.8344 38.4397C41.7009 38.5731 41.5227 38.6525 41.3342 38.6624C41.1457 38.6723 40.9602 38.6122 40.8134 38.4935C38.985 37.0122 36.7663 36.0929 34.4261 35.8468C34.2383 35.827 34.0646 35.7383 33.9383 35.598C33.812 35.4577 33.7421 35.2756 33.742 35.0868V30.5324C33.7421 30.427 33.7639 30.3228 33.8061 30.2262C33.8483 30.1297 33.9101 30.0429 33.9874 29.9713C34.0648 29.8998 34.1562 29.845 34.2557 29.8104C34.3553 29.7759 34.4609 29.7623 34.566 29.7705C38.4193 30.0648 42.0783 31.5803 45.0113 34.0967C45.0914 34.1652 45.1566 34.2495 45.2026 34.3444C45.2485 34.4393 45.2744 34.5426 45.2785 34.648C45.2826 34.7533 45.2649 34.8584 45.2264 34.9565C45.188 35.0547 45.1296 35.1438 45.055 35.2184H45.0553ZM43.3756 34.7362C41.0236 32.9112 38.2245 31.7515 35.2709 31.3784V34.416C37.4246 34.7526 39.4668 35.5988 41.2273 36.8842L43.3756 34.7362ZM31.8116 35.8468C29.4715 36.094 27.2531 37.0133 25.4241 38.4937C25.2772 38.6121 25.0918 38.672 24.9034 38.6619C24.715 38.6518 24.5371 38.5724 24.4037 38.439L21.1822 35.2177C21.1076 35.1432 21.0492 35.0541 21.0108 34.9559C20.9723 34.8577 20.9545 34.7527 20.9587 34.6473C20.9628 34.542 20.9886 34.4386 21.0346 34.3437C21.0806 34.2489 21.1458 34.1645 21.2259 34.0961C24.159 31.5798 27.818 30.0643 31.6712 29.7698C31.7763 29.7616 31.8819 29.7752 31.9815 29.8098C32.081 29.8443 32.1724 29.8991 32.2497 29.9707C32.3271 30.0422 32.3888 30.129 32.4311 30.2256C32.4733 30.3221 32.4951 30.4264 32.4951 30.5318V35.0865C32.4951 35.2752 32.4254 35.4574 32.2992 35.5977C32.173 35.7381 31.9993 35.8269 31.8116 35.8468ZM30.9671 31.3786C28.0136 31.7519 25.2145 32.9115 22.8624 34.7365L25.0113 36.8853C26.7721 35.6006 28.8139 34.7543 30.9673 34.4169L30.9671 31.3786ZM51.3849 46.5893C51.3931 46.6944 51.3795 46.8 51.3449 46.8996C51.3104 46.9992 51.2556 47.0905 51.184 47.1679C51.1125 47.2453 51.0257 47.307 50.9291 47.3492C50.8325 47.3914 50.7283 47.4132 50.6229 47.4132H46.0682C45.8793 47.4132 45.6972 47.3433 45.5569 47.217C45.4165 47.0907 45.3279 46.9169 45.308 46.7291C45.0609 44.389 44.1416 42.1706 42.6611 40.3416C42.5427 40.1947 42.4828 40.0092 42.4929 39.8208C42.503 39.6324 42.5824 39.4544 42.7158 39.321L45.9374 36.0997C46.0119 36.0251 46.101 35.9668 46.1992 35.9283C46.2973 35.8899 46.4024 35.8722 46.5077 35.8763C46.613 35.8804 46.7164 35.9062 46.8112 35.9522C46.9061 35.9982 46.9904 36.0633 47.0589 36.1435C49.5751 39.0767 51.0905 42.7359 51.3849 46.5893ZM49.7764 45.8846C49.4032 42.9311 48.2435 40.132 46.4186 37.7799L44.2702 39.9286C45.555 41.6894 46.4012 43.7312 46.7386 45.8846H49.7764ZM65 32.2375C64.9997 32.6261 64.9736 33.0144 64.9218 33.3996C64.9015 33.5513 64.8361 33.6935 64.7342 33.8077C64.6322 33.922 64.4984 34.003 64.3499 34.0404L63.2632 34.3145C63.131 34.7477 62.9571 35.1671 62.7439 35.5667L63.3193 36.5292C63.398 36.6607 63.4355 36.8127 63.4269 36.9657C63.4182 37.1187 63.3639 37.2655 63.2709 37.3873C62.7978 38.0088 62.2421 38.563 61.6193 39.0345C61.4978 39.1261 61.3518 39.1794 61.1998 39.1877C61.0479 39.1959 60.8969 39.1587 60.7662 39.0807L59.805 38.5072C59.4055 38.72 58.9866 38.894 58.5539 39.0268L58.2795 40.1114C58.2422 40.2587 58.1621 40.3916 58.0491 40.4932C57.9361 40.5948 57.7955 40.6604 57.6451 40.6819C57.5108 40.701 57.3746 40.7157 57.2377 40.7281V49.9354C57.2364 51.0719 56.7844 52.1614 55.9808 52.965C55.1772 53.7686 54.0877 54.2206 52.9512 54.2219H13.2864C12.15 54.2206 11.0604 53.7686 10.2569 52.965C9.45328 52.1614 9.00127 51.0719 9 49.9354V18.5645C9.0013 17.4281 9.45332 16.3385 10.2569 15.535C11.0605 14.7314 12.15 14.2794 13.2864 14.2781H52.9514C54.0878 14.2794 55.1773 14.7314 55.9809 15.535C56.7845 16.3386 57.2365 17.4281 57.2378 18.5646V23.7443C57.3747 23.7566 57.5112 23.7712 57.6452 23.7903C57.7956 23.8117 57.9362 23.8774 58.0492 23.979C58.1622 24.0806 58.2424 24.2135 58.2796 24.3608L58.554 25.4455C58.9867 25.5783 59.4057 25.7522 59.8051 25.965L60.7663 25.3916C60.897 25.3136 61.048 25.2764 61.1999 25.2846C61.3519 25.2928 61.4979 25.3461 61.6194 25.4377C62.2434 25.9098 62.7994 26.4656 63.2719 27.0893C63.3645 27.2112 63.4184 27.3581 63.4268 27.5109C63.4351 27.6638 63.3973 27.8157 63.3185 27.9469L62.7441 28.9042C62.9576 29.3042 63.132 29.7239 63.2648 30.1574L64.3495 30.4308C64.4981 30.4682 64.632 30.5492 64.7339 30.6635C64.8359 30.7777 64.9013 30.9199 64.9216 31.0717C64.9735 31.4581 64.9997 31.8476 65 32.2375ZM10.5285 21.0867H55.7092V18.5645C55.7084 17.8333 55.4176 17.1323 54.9006 16.6152C54.3836 16.0982 53.6826 15.8073 52.9514 15.8065H13.2864C12.5552 15.8073 11.8542 16.0982 11.3372 16.6152C10.8201 17.1323 10.5293 17.8333 10.5285 18.5645V21.0867ZM55.7092 49.9354V40.7281C55.5731 40.7157 55.4372 40.7012 55.3028 40.6822C55.1522 40.6609 55.0114 40.5953 54.8983 40.4937C54.7851 40.392 54.7048 40.259 54.6676 40.1116L54.3941 39.0266C53.9618 38.8943 53.5433 38.7206 53.1444 38.5078L52.1797 39.0817C52.049 39.1594 51.8982 39.1963 51.7464 39.188C51.5947 39.1796 51.4488 39.1262 51.3275 39.0347C50.7046 38.5633 50.1489 38.009 49.6759 37.3874C49.5829 37.2656 49.5286 37.1188 49.5199 36.9659C49.5113 36.8129 49.5487 36.6609 49.6273 36.5294L50.2024 35.5677C49.989 35.168 49.8152 34.7484 49.6833 34.3148L48.5969 34.0407C48.4484 34.0034 48.3145 33.9223 48.2126 33.8081C48.1106 33.6938 48.0452 33.5517 48.0249 33.3999C47.9206 32.6276 47.9206 31.8447 48.0249 31.0724C48.0452 30.9206 48.1106 30.7784 48.2126 30.6641C48.3146 30.5498 48.4485 30.4688 48.597 30.4315L49.6839 30.158C49.8167 29.7253 49.9907 29.3064 50.2035 28.907L49.6281 27.9478C49.5492 27.8165 49.5115 27.6647 49.5198 27.5118C49.5281 27.3589 49.5821 27.2121 49.6747 27.0902C50.1473 26.4659 50.7036 25.9098 51.3281 25.4376C51.4495 25.3461 51.5953 25.2927 51.7471 25.2844C51.8989 25.276 52.0497 25.313 52.1804 25.3907L53.1451 25.9645C53.544 25.7518 53.9625 25.5781 54.3948 25.4458L54.6682 24.3607C54.7055 24.2133 54.7858 24.0802 54.8989 23.9786C55.012 23.877 55.1529 23.8114 55.3035 23.7901C55.4378 23.7711 55.5737 23.7566 55.7099 23.7444V22.6153H10.5285V49.9354C10.5293 50.6666 10.8201 51.3676 11.3372 51.8847C11.8542 52.4017 12.5552 52.6926 13.2864 52.6934H52.9514C53.6826 52.6926 54.3836 52.4017 54.9006 51.8847C55.4176 51.3676 55.7084 50.6666 55.7092 49.9354ZM63.4688 32.2375C63.4688 32.0875 63.4639 31.9363 63.4544 31.7852L62.4551 31.5315C62.3196 31.4971 62.1961 31.4262 62.0981 31.3265C62.0001 31.2269 61.9312 31.1023 61.8989 30.9663C61.761 30.3784 61.5275 29.8172 61.2078 29.305C61.1328 29.1855 61.0923 29.0476 61.0907 28.9065C61.0892 28.7655 61.1267 28.6267 61.199 28.5056L61.7291 27.6196C61.5304 27.3934 61.3173 27.1801 61.0913 26.9811L60.2053 27.5096C60.0849 27.5815 59.9471 27.619 59.8069 27.6179C59.6667 27.6168 59.5294 27.5772 59.4102 27.5035C58.8972 27.1847 58.3357 26.9516 57.7477 26.8135C57.6108 26.7816 57.4854 26.7127 57.3851 26.6143C57.2848 26.516 57.2135 26.3919 57.1789 26.2557L56.9254 25.2544C56.6243 25.2348 56.3223 25.2348 56.0212 25.2544L55.7717 26.2523C55.7377 26.3892 55.6665 26.5141 55.566 26.613C55.4655 26.712 55.3397 26.7813 55.2023 26.8133C54.6147 26.9504 54.0536 27.1832 53.5414 27.5024C53.4221 27.5766 53.2846 27.6165 53.144 27.6178C53.0035 27.619 52.8653 27.5816 52.7446 27.5095L51.8568 26.9803C51.6306 27.1795 51.4174 27.393 51.2188 27.6196L51.7489 28.5056C51.8208 28.626 51.8583 28.7639 51.8572 28.9041C51.8561 29.0444 51.8165 29.1817 51.7427 29.301C51.4238 29.8139 51.1908 30.3755 51.0527 30.9635C51.0209 31.1003 50.952 31.2258 50.8536 31.3261C50.7552 31.4264 50.6311 31.4977 50.4949 31.5322L49.4932 31.7856C49.4837 31.9368 49.4789 32.0879 49.4789 32.2379C49.4789 32.3878 49.4836 32.5366 49.4932 32.687L50.4948 32.9403C50.631 32.9748 50.7551 33.0461 50.8535 33.1464C50.9519 33.2467 51.0208 33.3722 51.0526 33.509C51.1882 34.0961 51.4205 34.6564 51.74 35.1672C51.815 35.2867 51.8555 35.4246 51.857 35.5657C51.8586 35.7067 51.8211 35.8455 51.7488 35.9666L51.2188 36.8538C51.4177 37.0799 51.6309 37.293 51.8572 37.4918L52.7451 36.9627C52.8657 36.8906 53.0039 36.8531 53.1445 36.8544C53.285 36.8557 53.4225 36.8956 53.5419 36.9698C54.054 37.2889 54.6151 37.5217 55.2027 37.6588C55.3401 37.6908 55.466 37.7601 55.5665 37.8591C55.6669 37.9581 55.7381 38.0829 55.7721 38.2198L56.0217 39.2178C56.3228 39.2374 56.6248 39.2374 56.9258 39.2178L57.1794 38.2163C57.2139 38.0802 57.2853 37.9561 57.3856 37.8577C57.4859 37.7593 57.6113 37.6904 57.7481 37.6585C58.3361 37.5204 58.8976 37.2874 59.4106 36.9686C59.5299 36.8948 59.6671 36.8553 59.8073 36.8542C59.9476 36.8531 60.0854 36.8906 60.2058 36.9625L61.0917 37.491C61.3176 37.2922 61.5307 37.0794 61.7296 36.8536L61.1994 35.966C61.1273 35.8452 61.0898 35.7069 61.0912 35.5661C61.0925 35.4254 61.1326 35.2878 61.2071 35.1684C61.5264 34.6568 61.7589 34.096 61.8954 33.5086C61.9272 33.3717 61.9961 33.2463 62.0945 33.146C62.1929 33.0457 62.317 32.9743 62.4532 32.9399L63.4549 32.6865C63.4636 32.5365 63.4688 32.3864 63.4688 32.2375ZM61.1248 32.2375C61.1245 33.1569 60.8516 34.0556 60.3407 34.8199C59.8297 35.5842 59.1035 36.1799 58.254 36.5316C57.4045 36.8833 56.4699 36.9753 55.5681 36.7958C54.6664 36.6164 53.8381 36.1736 53.188 35.5235C52.5378 34.8734 52.0951 34.0451 51.9156 33.1433C51.7362 32.2416 51.8281 31.3069 52.1798 30.4574C52.5315 29.6079 53.1272 28.8818 53.8916 28.3708C54.6559 27.8598 55.5546 27.5869 56.474 27.5866C57.7071 27.5877 58.8894 28.0781 59.7612 28.9501C60.6331 29.8221 61.1234 31.0044 61.1244 32.2375H61.1248ZM59.5936 32.2375C59.5939 31.621 59.4113 31.0182 59.069 30.5055C58.7268 29.9927 58.2401 29.593 57.6707 29.3568C57.1012 29.1206 56.4745 29.0586 55.8698 29.1785C55.2651 29.2985 54.7095 29.5951 54.2734 30.0308C53.8372 30.4665 53.5401 31.0217 53.4195 31.6263C53.2988 32.2309 53.3602 32.8577 53.5958 33.4274C53.8314 33.9971 54.2306 34.4841 54.743 34.8269C55.2554 35.1698 55.8579 35.3529 56.4744 35.3533C57.3007 35.3522 58.0928 35.0236 58.6773 34.4396C59.2617 33.8556 59.5909 33.0637 59.5927 32.2375H59.5936ZM23.5222 39.3213C23.6556 39.4547 23.735 39.6327 23.7451 39.8212C23.7552 40.0096 23.6953 40.195 23.5768 40.3419C22.0964 42.1709 21.1771 44.3894 20.93 46.7294C20.9101 46.9172 20.8215 47.091 20.6811 47.2173C20.5408 47.3437 20.3586 47.4136 20.1698 47.4136H15.6149C15.5095 47.4136 15.4053 47.3917 15.3087 47.3495C15.2121 47.3073 15.1254 47.2455 15.0538 47.1682C14.9823 47.0908 14.9275 46.9995 14.8929 46.8999C14.8584 46.8003 14.8448 46.6947 14.853 46.5896C15.1475 42.7364 16.663 39.0775 19.1791 36.1443C19.2476 36.0642 19.3319 35.9991 19.4268 35.9531C19.5216 35.9071 19.625 35.8813 19.7303 35.8772C19.8356 35.873 19.9407 35.8908 20.0388 35.9292C20.137 35.9677 20.2261 36.026 20.3006 36.1006L23.5222 39.3213ZM21.9677 39.9286L19.8187 37.7798C17.9937 40.1319 16.8341 42.931 16.4609 45.8845H19.4991C19.8366 43.7311 20.6829 41.6893 21.9677 39.9286Z" fill="#0A2540"/>
</g>
<defs>
<clipPath id="clip0_65_23">
<rect width="56" height="39.2656" fill="white" transform="translate(9 15)"/>
</clipPath>
</defs>
</svg>
