<svg width="20" height="24" viewBox="0 0 20 24" fill="none" xmlns="http://www.w3.org/2000/svg">
<g clip-path="url(#clip0_115_10)">
<path d="M17.8457 12C18.9032 10.849 19.6411 9.69798 19.9116 8.6939C20.133 7.86125 20.0592 7.10206 19.7149 6.48982C18.8295 4.97145 16.5668 4.75104 13.9352 5.31431C13.0989 2.76737 11.7954 0.979614 10 0.979614C8.35222 0.979614 6.95034 2.64492 6.06494 5.3388C5.74521 5.26533 5.45007 5.21635 5.13035 5.16737C2.72009 4.82451 0.973885 5.28982 0.28524 6.51431C-0.0590824 7.12655 -0.132866 7.88574 0.0884842 8.71839C0.359023 9.74696 1.09686 10.8735 2.15442 12.0245C1.09686 13.1755 0.359023 14.3266 0.0884842 15.3306C-0.132866 16.1633 -0.0590824 16.9225 0.28524 17.5347C0.850912 18.4898 2.03145 18.9796 3.67927 18.9796C4.12197 18.9796 4.61386 18.9306 5.13035 18.8572C5.42548 18.8082 5.74521 18.7592 6.06494 18.6857C6.92574 21.3796 8.35222 23.0449 10 23.0449C11.7954 23.0449 13.0989 21.2327 13.9106 18.6857C14.7714 18.8817 15.583 18.9796 16.3454 18.9796C17.8949 18.9796 19.1 18.5388 19.7149 17.5102C20.0592 16.9225 20.133 16.1633 19.9116 15.3306C19.6411 14.2776 18.9032 13.1755 17.8457 12ZM1.56415 16.7755C1.41658 16.5061 1.39199 16.1388 1.51496 15.698C1.71172 14.9878 2.27739 14.0572 3.18738 13.0286C3.80225 13.5919 4.51549 14.1551 5.25332 14.6939C5.3517 15.6 5.47467 16.4572 5.67142 17.2653C3.5563 17.7061 2.00685 17.5347 1.56415 16.7755ZM4.22035 12C4.49089 11.7551 4.81062 11.4857 5.13035 11.2408C5.13035 11.4857 5.13035 11.7551 5.13035 12C5.13035 12.2694 5.13035 12.5143 5.13035 12.7592C4.81062 12.4898 4.51549 12.2449 4.22035 12ZM5.25332 9.30614C4.49089 9.84492 3.80225 10.4082 3.18738 10.9715C2.2528 9.96737 1.71172 9.03676 1.51496 8.30206C1.39199 7.86125 1.41658 7.4939 1.56415 7.22451C1.83469 6.73472 2.59712 6.48982 3.63009 6.48982C4.22035 6.48982 4.909 6.56329 5.67142 6.73472C5.49926 7.54288 5.3517 8.40002 5.25332 9.30614ZM13.0989 8.2041C12.8776 8.08166 12.6562 7.93472 12.4349 7.81227C12.2135 7.71431 11.9922 7.59186 11.7708 7.46941C12.1398 7.32247 12.5333 7.20002 12.8776 7.07757C12.9514 7.46941 13.0252 7.83676 13.0989 8.2041ZM7.76195 5.02043C8.40141 3.4041 9.23762 2.449 10 2.449C10.7625 2.449 11.5987 3.4041 12.2381 4.99594C12.3365 5.21635 12.4103 5.46125 12.5087 5.70614C11.6971 5.95104 10.8609 6.26941 10.0246 6.63676C9.18843 6.26941 8.32763 5.95104 7.51601 5.70614C7.58979 5.43676 7.66358 5.21635 7.76195 5.02043ZM7.1225 7.10206C7.49141 7.20002 7.83574 7.34696 8.22925 7.46941C8.0079 7.59186 7.78655 7.71431 7.5652 7.83676C7.34385 7.95921 7.1225 8.10614 6.90115 8.22859C6.97493 7.83676 7.04871 7.46941 7.1225 7.10206ZM6.90115 15.7959C7.1225 15.9184 7.34385 16.0653 7.5652 16.1878C7.78655 16.3102 8.0079 16.4327 8.22925 16.5551C7.86033 16.7021 7.49141 16.8245 7.1225 16.9225C7.04871 16.5306 6.97493 16.1633 6.90115 15.7959ZM12.2381 19.0531C11.5987 20.6449 10.7625 21.6 10 21.6C9.23762 21.6 8.40141 20.6449 7.76195 19.0286C7.66358 18.8082 7.58979 18.5633 7.51601 18.3184C8.32763 18.0735 9.16384 17.7551 10.0246 17.3878C10.8609 17.7551 11.6971 18.0735 12.5087 18.3184C12.4103 18.5633 12.3365 18.8082 12.2381 19.0531ZM12.8776 16.898C12.5087 16.7755 12.1398 16.6531 11.7708 16.5061C11.9922 16.3837 12.2135 16.2612 12.4349 16.1388C12.6562 16.0408 12.8776 15.8939 13.0989 15.7715C13.0252 16.1633 12.9514 16.5306 12.8776 16.898ZM13.3203 13.9102C12.8284 14.2531 12.2873 14.5959 11.6971 14.9143C11.1314 15.2327 10.5411 15.5266 10 15.7959C9.43438 15.5266 8.8687 15.2327 8.30303 14.9143C7.71276 14.5959 7.19628 14.2531 6.6798 13.9102C6.63061 13.298 6.60601 12.6612 6.60601 12.0245C6.60601 11.3878 6.63061 10.751 6.6798 10.1388C7.19628 9.79594 7.71276 9.47757 8.30303 9.13472C8.8687 8.81635 9.43438 8.52247 10 8.25308C10.5657 8.52247 11.1314 8.81635 11.6971 9.13472C12.2873 9.45308 12.8038 9.79594 13.3203 10.1388C13.3695 10.751 13.3941 11.3878 13.3941 12.0245C13.3941 12.6612 13.3695 13.2735 13.3203 13.9102ZM16.3454 6.48982C17.403 6.48982 18.1654 6.75921 18.4605 7.249C18.6081 7.51839 18.6327 7.88574 18.5097 8.32655C18.313 9.03676 17.7473 9.96737 16.8373 10.9959C16.2224 10.4327 15.5092 9.86941 14.7468 9.33063C14.6484 8.449 14.5008 7.56737 14.3287 6.75921C15.0665 6.56329 15.7552 6.48982 16.3454 6.48982ZM14.8452 11.2653C15.1649 11.5102 15.46 11.7551 15.7552 12C15.4846 12.2449 15.1649 12.5143 14.8452 12.7592C14.8452 12.4898 14.8697 12.2449 14.8697 12C14.8697 11.7551 14.8697 11.5102 14.8452 11.2653ZM18.4359 16.7755C17.9932 17.5347 16.4438 17.7306 14.3041 17.2898C14.5008 16.4572 14.6238 15.6 14.7222 14.7184C15.4846 14.1796 16.1733 13.6163 16.8127 13.0531C17.7473 14.0572 18.2884 14.9878 18.4851 15.7225C18.6081 16.1633 18.5835 16.5306 18.4359 16.7755Z" fill="url(#paint0_linear_115_10)"/>
<path d="M10.0001 9.7959C8.7704 9.7959 7.78662 10.7755 7.78662 12C7.78662 13.2245 8.7704 14.2041 10.0001 14.2041C11.2298 14.2041 12.2136 13.2245 12.2136 12C12.2136 10.7755 11.2298 9.7959 10.0001 9.7959ZM10.0001 12.7347C9.58202 12.7347 9.26229 12.4163 9.26229 12C9.26229 11.5837 9.58202 11.2653 10.0001 11.2653C10.4182 11.2653 10.738 11.5837 10.738 12C10.738 12.4163 10.4182 12.7347 10.0001 12.7347Z" fill="url(#paint1_linear_115_10)"/>
</g>
<defs>
<linearGradient id="paint0_linear_115_10" x1="10" y1="1.11431" x2="10" y2="22.9124" gradientUnits="userSpaceOnUse">
<stop stop-color="#00EFD1"/>
<stop offset="1" stop-color="#00ACEA"/>
</linearGradient>
<linearGradient id="paint1_linear_115_10" x1="10.0001" y1="1.11427" x2="10.0001" y2="22.9123" gradientUnits="userSpaceOnUse">
<stop stop-color="#00EFD1"/>
<stop offset="1" stop-color="#00ACEA"/>
</linearGradient>
<clipPath id="clip0_115_10">
<rect width="20" height="24" fill="white"/>
</clipPath>
</defs>
</svg>
