<svg width="70" height="70" viewBox="0 0 70 70" fill="none" xmlns="http://www.w3.org/2000/svg">
<rect width="70" height="70" rx="35" fill="#FEFEFE"/>
<g clip-path="url(#clip0_65_23)">
<path d="M9.75171 17.0024C8.24407 17.0024 6.99634 18.2412 6.99634 19.7489V45.4155C6.99634 46.9232 8.24407 48.162 9.75171 48.162H30.8297V38.9989H8.83147V19.7489C8.83147 19.2252 9.22801 18.8358 9.75171 18.8358H44.5868C45.1105 18.8358 45.4999 19.2252 45.4999 19.7489V20.662H47.3332V19.7489C47.3332 18.2412 46.0945 17.0024 44.5868 17.0024H9.75171ZM35.4166 22.4953C33.9089 22.4953 32.663 23.7431 32.663 25.2507V50.9173C32.663 52.4249 33.9089 53.6637 35.4166 53.6637H48.2803C47.6952 52.8946 47.3332 51.9493 47.3332 50.9173V46.3322H34.4963V26.1655H52.835V31.6655H54.6684V25.2507C54.6684 23.743 53.4224 22.4953 51.9148 22.4953H35.4166ZM11.5707 24.3161C11.4497 24.3175 11.3302 24.3428 11.2191 24.3907C11.1079 24.4385 11.0073 24.5078 10.9231 24.5947C10.8389 24.6816 10.7727 24.7843 10.7284 24.8969C10.6841 25.0095 10.6624 25.1297 10.6648 25.2507V27.084C10.6621 27.2061 10.6837 27.3276 10.7286 27.4412C10.7734 27.5548 10.8405 27.6582 10.9259 27.7456C11.0113 27.8329 11.1133 27.9024 11.2258 27.9497C11.3384 27.9971 11.4593 28.0214 11.5815 28.0214C11.7036 28.0214 11.8245 27.9971 11.9371 27.9497C12.0497 27.9024 12.1517 27.8329 12.237 27.7456C12.3224 27.6582 12.3895 27.5548 12.4344 27.4412C12.4792 27.3276 12.5009 27.2061 12.4981 27.084V25.2507C12.5005 25.1279 12.4782 25.0059 12.4326 24.8919C12.3869 24.7779 12.3188 24.6743 12.2323 24.5871C12.1458 24.4999 12.0426 24.431 11.929 24.3844C11.8154 24.3379 11.6935 24.3147 11.5707 24.3161ZM11.5707 29.8179C11.4497 29.8193 11.3302 29.8446 11.2191 29.8924C11.1079 29.9403 11.0073 30.0096 10.9231 30.0965C10.8389 30.1834 10.7727 30.2861 10.7284 30.3987C10.6841 30.5112 10.6624 30.6315 10.6648 30.7524V36.2453C10.6621 36.3674 10.6837 36.4889 10.7286 36.6025C10.7734 36.7161 10.8405 36.8196 10.9259 36.9069C11.0113 36.9942 11.1133 37.0637 11.2258 37.1111C11.3384 37.1584 11.4593 37.1828 11.5815 37.1828C11.7036 37.1828 11.8245 37.1584 11.9371 37.1111C12.0497 37.0637 12.1517 36.9942 12.237 36.9069C12.3224 36.8196 12.3895 36.7161 12.4344 36.6025C12.4792 36.4889 12.5009 36.3674 12.4981 36.2453V30.7524C12.5005 30.6297 12.4782 30.5077 12.4326 30.3937C12.3869 30.2797 12.3188 30.176 12.2323 30.0889C12.1458 30.0017 12.0426 29.9327 11.929 29.8862C11.8154 29.8396 11.6935 29.8164 11.5707 29.8179ZM37.2374 29.8179C37.1164 29.8193 36.9969 29.8446 36.8857 29.8924C36.7746 29.9403 36.674 30.0096 36.5898 30.0965C36.5056 30.1834 36.4394 30.2861 36.3951 30.3987C36.3507 30.5112 36.3291 30.6315 36.3315 30.7524V32.5858C36.3288 32.7079 36.3506 32.8292 36.3955 32.9427C36.4403 33.0563 36.5074 33.1597 36.5928 33.2469C36.6782 33.3342 36.7801 33.4035 36.8927 33.4508C37.0052 33.4981 37.1261 33.5226 37.2481 33.5226C37.3702 33.5226 37.4911 33.4981 37.6036 33.4508C37.7161 33.4035 37.8181 33.3342 37.9034 33.2469C37.9888 33.1597 38.0559 33.0563 38.1008 32.9427C38.1457 32.8292 38.1674 32.7079 38.1648 32.5858V30.7524C38.1672 30.6297 38.1449 30.5077 38.0992 30.3937C38.0536 30.2797 37.9854 30.176 37.8989 30.0889C37.8124 30.0017 37.7093 29.9327 37.5957 29.8862C37.482 29.8396 37.3602 29.8164 37.2374 29.8179ZM51.9148 33.4989C50.4071 33.4989 49.1666 34.7377 49.1666 36.2453V50.9173C49.1666 52.4249 50.4071 53.6637 51.9148 53.6637H59.2499C60.7576 53.6637 61.9963 52.4249 61.9963 50.9173V36.2453C61.9963 34.7377 60.7576 33.4989 59.2499 33.4989H51.9148ZM37.2374 35.3197C36.9946 35.3225 36.7628 35.4217 36.593 35.5952C36.4232 35.7687 36.3291 36.0025 36.3315 36.2453V41.7471C36.3288 41.8692 36.3506 41.9905 36.3955 42.1041C36.4403 42.2176 36.5074 42.321 36.5928 42.4082C36.6782 42.4955 36.7801 42.5648 36.8927 42.6121C37.0052 42.6594 37.1261 42.6838 37.2481 42.6838C37.3702 42.6838 37.4911 42.6594 37.6036 42.6121C37.7161 42.5648 37.8181 42.4955 37.9034 42.4082C37.9888 42.321 38.0559 42.2176 38.1008 42.1041C38.1457 41.9905 38.1674 41.8692 38.1648 41.7471V36.2453C38.166 36.1233 38.1428 36.0022 38.0966 35.8892C38.0504 35.7763 37.9821 35.6737 37.8957 35.5875C37.8093 35.5013 37.7066 35.4332 37.5936 35.3872C37.4805 35.3412 37.3594 35.3182 37.2374 35.3197ZM51.0017 37.1673H60.163V49.9953H51.0017V37.1673ZM26.2052 42.6674H28.0833C29.3058 42.6674 29.3058 44.5024 28.0833 44.5024H26.2481C25.0256 44.561 24.9387 42.726 26.2052 42.6674ZM42.7535 48.162H44.5868C44.8265 48.1672 45.0545 48.2661 45.2222 48.4374C45.3898 48.6087 45.4836 48.839 45.4836 49.0787C45.4836 49.3184 45.3898 49.5485 45.2222 49.7198C45.0545 49.8911 44.8265 49.9901 44.5868 49.9953H42.7535C42.5139 49.9901 42.2858 49.8911 42.1182 49.7198C41.9506 49.5485 41.8567 49.3184 41.8567 49.0787C41.8567 48.839 41.9506 48.6087 42.1182 48.4374C42.2858 48.2661 42.5139 48.1672 42.7535 48.162ZM21.9602 49.9953C21.6377 50.5682 21.1544 51.1905 20.4098 51.8304H18.913C18.7909 51.8277 18.6696 51.8495 18.556 51.8944C18.4425 51.9392 18.339 52.0064 18.2518 52.0918C18.1645 52.1771 18.0952 52.2791 18.0478 52.3916C18.0005 52.5041 17.9761 52.625 17.9761 52.7471C17.9761 52.8692 18.0005 52.9901 18.0478 53.1026C18.0952 53.2152 18.1645 53.3171 18.2518 53.4025C18.339 53.4879 18.4425 53.5549 18.556 53.5998C18.6696 53.6447 18.7909 53.6664 18.913 53.6637H31.7786C31.193 52.8951 30.8297 51.9504 30.8297 50.9173V49.9953H21.9602Z" fill="#0A2540"/>
</g>
<defs>
<clipPath id="clip0_65_23">
<rect width="55" height="36.6667" fill="white" transform="translate(7 17)"/>
</clipPath>
</defs>
</svg>
