<svg width="70" height="70" viewBox="0 0 70 70" fill="none" xmlns="http://www.w3.org/2000/svg">
<rect width="70" height="70" rx="35" fill="#FEFEFE"/>
<g clip-path="url(#clip0_65_23)">
<path d="M58.465 16.0461H11.535C11.2027 16.0455 10.8735 16.1104 10.5663 16.237C10.2591 16.3636 9.97979 16.5494 9.74439 16.784C9.50899 17.0185 9.3221 17.2971 9.19437 17.6039C9.06665 17.9106 9.0006 18.2396 9 18.5719V24.2361H61V18.5719C60.9994 18.2396 60.9333 17.9106 60.8056 17.6039C60.6779 17.2971 60.491 17.0185 60.2556 16.784C60.0202 16.5494 59.7409 16.3636 59.4337 16.237C59.1265 16.1104 58.7973 16.0455 58.465 16.0461ZM18.5921 22.4254H13.0486C12.8046 22.422 12.5717 22.3226 12.4004 22.1489C12.2291 21.9751 12.133 21.7409 12.133 21.4969C12.133 21.2528 12.2291 21.0186 12.4004 20.8449C12.5717 20.6711 12.8046 20.5717 13.0486 20.5683H18.5921C18.836 20.572 19.0686 20.6714 19.2397 20.8452C19.4108 21.0189 19.5067 21.253 19.5067 21.4969C19.5067 21.7407 19.4108 21.9748 19.2397 22.1485C19.0686 22.3223 18.836 22.4217 18.5921 22.4254ZM47.5357 22.4161C47.29 22.4135 47.0552 22.3139 46.8824 22.1392C46.7096 21.9645 46.6127 21.7287 46.6127 21.4829C46.6127 21.2372 46.7096 21.0013 46.8824 20.8266C47.0553 20.6519 47.29 20.5524 47.5358 20.5497C47.7814 20.5526 48.0159 20.6522 48.1885 20.8269C48.3612 21.0016 48.458 21.2373 48.458 21.4829C48.458 21.7286 48.3612 21.9643 48.1885 22.139C48.0159 22.3136 47.7813 22.4133 47.5357 22.4161ZM51.7143 22.4161C51.4682 22.4121 51.2336 22.3115 51.061 22.1361C50.8884 21.9606 50.7917 21.7244 50.7917 21.4783C50.7917 21.2322 50.8884 20.9959 51.061 20.8205C51.2336 20.6451 51.4683 20.5445 51.7143 20.5405C51.9603 20.5447 52.1948 20.6453 52.3673 20.8207C52.5397 20.9962 52.6364 21.2323 52.6364 21.4783C52.6364 21.7243 52.5397 21.9605 52.3672 22.1359C52.1948 22.3113 51.9603 22.412 51.7143 22.4161ZM55.8929 22.4254C55.6471 22.4227 55.4124 22.3232 55.2395 22.1485C55.0667 21.9738 54.9698 21.7379 54.9698 21.4922C54.9698 21.2464 55.0667 21.0106 55.2396 20.8359C55.4124 20.6612 55.6472 20.5617 55.8929 20.559C56.1386 20.5618 56.3732 20.6614 56.5459 20.8361C56.7187 21.0108 56.8155 21.2466 56.8155 21.4922C56.8155 21.7379 56.7186 21.9737 56.5459 22.1484C56.3732 22.3231 56.1385 22.4226 55.8929 22.4254Z" fill="#FAAD1B"/>
<path d="M35.9286 43.0769C35.9238 43.32 35.8238 43.5515 35.6502 43.7216C35.4766 43.8918 35.2431 43.9871 35 43.9871C34.7569 43.9871 34.5235 43.8918 34.3499 43.7216C34.1763 43.5514 34.0763 43.3199 34.0715 43.0769V40.022L31.1372 44.4698L32.3351 46.8191H37.6651L38.8629 44.4698L35.9286 40.022V43.0769Z" fill="#FAAD1B"/>
<path d="M10.8571 26.0935H9V52.4278C9.00061 52.7601 9.06666 53.089 9.19439 53.3958C9.32211 53.7025 9.50901 53.9811 9.74441 54.2157C9.9798 54.4502 10.2591 54.6361 10.5663 54.7627C10.8736 54.8893 11.2027 54.9541 11.535 54.9535C16.8431 54.9541 33.6972 54.953 38.705 54.9535H58.465C58.7973 54.9541 59.1264 54.8893 59.4337 54.7627C59.7409 54.6361 60.0202 54.4502 60.2556 54.2157C60.491 53.9811 60.6779 53.7025 60.8056 53.3958C60.9333 53.089 60.9994 52.7601 61 52.4278V26.0935H10.8571ZM15.825 28.9814C16.4939 28.983 17.1447 29.1982 17.6826 29.5958C18.2205 29.9934 18.6172 30.5524 18.815 31.1914H32.2886V30.3371C32.2893 30.091 32.3874 29.8553 32.5614 29.6813C32.7353 29.5073 32.9711 29.4092 33.2171 29.4085H36.7829C37.0289 29.4092 37.2647 29.5073 37.4386 29.6813C37.6126 29.8553 37.7107 30.091 37.7114 30.3371V31.1914H51.2407C51.4629 30.475 51.9345 29.8621 52.57 29.4638C53.2055 29.0655 53.9627 28.9083 54.7042 29.0206C55.4458 29.133 56.1224 29.5075 56.6114 30.0761C57.1004 30.6448 57.3693 31.3699 57.3693 32.1199C57.3693 32.8699 57.1004 33.595 56.6114 34.1637C56.1224 34.7323 55.4458 35.1068 54.7042 35.2192C53.9627 35.3315 53.2055 35.1743 52.57 34.776C51.9345 34.3777 51.4629 33.7648 51.2407 33.0484L42.67 33.0485C45.1525 34.3819 47.2275 36.363 48.6744 38.7811C50.1213 41.1992 50.8862 43.9641 50.8878 46.7821L50.8878 48.7042C50.8878 48.9505 50.79 49.1867 50.6159 49.3608C50.4417 49.535 50.2055 49.6328 49.9593 49.6328C49.713 49.6328 49.4768 49.535 49.3027 49.3608C49.1285 49.1867 49.0307 48.9505 49.0307 48.7042V46.7821C49.0222 43.5617 47.8849 40.4462 45.8168 37.9777C43.7486 35.5091 40.8804 33.8438 37.7113 33.2714L37.7114 33.9028C37.7107 34.1488 37.6126 34.3846 37.4386 34.5586C37.2646 34.7326 37.0289 34.8306 36.7828 34.8314H33.2171C32.3925 34.8006 32.2238 34.0854 32.2886 33.3921C29.2456 34.0704 26.5255 35.7676 24.5785 38.2025C22.6315 40.6375 21.5744 43.6644 21.5821 46.782V48.7042C21.5821 48.9505 21.4843 49.1866 21.3102 49.3608C21.136 49.5349 20.8998 49.6328 20.6536 49.6328C20.4073 49.6328 20.1711 49.5349 19.997 49.3608C19.8228 49.1866 19.725 48.9505 19.725 48.7042V46.782C19.7209 44.2153 20.3522 41.6875 21.5625 39.424C22.7728 37.1605 24.5245 35.2318 26.6614 33.8099C27.0713 33.533 27.4959 33.2789 27.9336 33.0485H18.815C18.6431 33.6035 18.3205 34.0998 17.8832 34.4823C17.4459 34.8648 16.9109 35.1184 16.338 35.2149C15.7651 35.3114 15.1766 35.2469 14.6381 35.0287C14.0996 34.8104 13.6323 34.447 13.2882 33.9789C12.944 33.5108 12.7366 32.9564 12.6889 32.3773C12.6413 31.7983 12.7553 31.2174 13.0183 30.6993C13.2813 30.1812 13.6829 29.7463 14.1784 29.443C14.674 29.1396 15.244 28.9799 15.825 28.9814ZM37.7764 53.0964V51.4249H32.2236V53.0964H30.3664V50.8956C30.1032 50.6714 29.8945 50.3901 29.7561 50.0731C29.6177 49.7562 29.5534 49.4119 29.5679 49.0664C29.5681 48.7159 29.6506 48.3703 29.8086 48.0574C29.9667 47.7446 30.1959 47.4731 30.4779 47.2649L29.2336 44.8321C29.1585 44.6854 29.1232 44.5215 29.1314 44.3569C29.1395 44.1923 29.1908 44.0328 29.28 43.8942L34.2199 36.4192C34.3098 36.2988 34.4264 36.2009 34.5606 36.1331C34.6947 36.0654 34.8427 36.0296 34.993 36.0287C35.1433 36.0278 35.2917 36.0618 35.4266 36.1279C35.5616 36.1941 35.6793 36.2906 35.7707 36.4099C35.788 36.4448 40.6855 43.8546 40.7107 43.8943C40.8013 44.032 40.8541 44.1912 40.8639 44.3557C40.8736 44.5203 40.84 44.6846 40.7664 44.8321L39.5221 47.2649C39.7945 47.4789 40.0166 47.7501 40.1727 48.0592C40.3289 48.3684 40.4153 48.7081 40.4259 49.0543C40.4365 49.4005 40.3711 49.7448 40.2342 50.0629C40.0973 50.3811 39.8922 50.6653 39.6335 50.8956L39.6336 53.0964L37.7764 53.0964Z" fill="#0A2540"/>
<path d="M34.1456 32.9742H35.8542V31.2656H34.1456C34.1459 31.7315 34.1447 32.5118 34.1456 32.9742Z" fill="#FAAD1B"/>
<path d="M54.2307 33.4015C54.5673 33.3965 54.8884 33.2593 55.1247 33.0195C55.3609 32.7798 55.4934 32.4566 55.4934 32.12C55.4934 31.7834 55.3609 31.4603 55.1246 31.2205C54.8884 30.9808 54.5673 30.8436 54.2307 30.8386C53.8941 30.8436 53.573 30.9808 53.3367 31.2206C53.1004 31.4604 52.968 31.7835 52.968 32.1201C52.968 32.4567 53.1005 32.7798 53.3367 33.0196C53.573 33.2593 53.8941 33.3965 54.2307 33.4015Z" fill="#FAAD1B"/>
<path d="M15.825 33.4015C16.1598 33.3938 16.4783 33.2555 16.7124 33.016C16.9465 32.7765 17.0775 32.4549 17.0775 32.12C17.0775 31.7851 16.9464 31.4636 16.7123 31.2241C16.4783 30.9846 16.1598 30.8463 15.825 30.8386C15.4902 30.8463 15.1717 30.9847 14.9376 31.2241C14.7035 31.4636 14.5725 31.7852 14.5725 32.1201C14.5725 32.455 14.7036 32.7765 14.9377 33.016C15.1717 33.2555 15.4902 33.3938 15.825 33.4015Z" fill="#FAAD1B"/>
<path d="M38.1849 48.6763H31.787C31.6888 48.6842 31.5971 48.7286 31.5301 48.8008C31.463 48.873 31.4255 48.9678 31.4249 49.0663C31.4125 49.1255 31.4131 49.1866 31.4267 49.2455C31.4403 49.3044 31.4666 49.3596 31.5037 49.4073C31.5408 49.455 31.5879 49.4941 31.6416 49.5218C31.6954 49.5495 31.7545 49.5652 31.8149 49.5677H38.1849C38.7083 49.5735 38.7099 48.6705 38.1849 48.6763Z" fill="#FAAD1B"/>
</g>
<defs>
<clipPath id="clip0_65_23">
<rect width="52" height="39" fill="white" transform="translate(9 16)"/>
</clipPath>
</defs>
</svg>
