<svg width="15" height="11" viewBox="0 0 15 11" fill="none" xmlns="http://www.w3.org/2000/svg">
<path d="M7.75862 10.8536C7.665 10.8554 7.5706 10.8327 7.48733 10.7812C7.24707 10.6333 7.17388 10.3121 7.31845 10.0721C7.3306 10.0509 8.84069 7.53085 11.7233 5.94499H0.517241C0.231983 5.94499 0 5.71301 0 5.42775C0 5.14249 0.231983 4.91051 0.517241 4.91051H11.7233C8.85672 3.3337 7.32957 0.802577 7.31457 0.777232C7.1731 0.53568 7.25147 0.214215 7.49276 0.0711975C7.73741 -0.0738888 8.05965 0.010163 8.20578 0.256111C8.44086 0.631111 10.6453 3.99292 14.5994 4.92318C14.836 4.98137 15 5.18853 15 5.42801C15 5.66749 14.8371 5.87516 14.6038 5.9318C10.6329 6.86542 8.43595 10.2316 8.19853 10.6126C8.10543 10.7618 7.93319 10.8502 7.75862 10.8536Z" fill="#0A2540"/>
</svg>
