<svg width="70" height="70" viewBox="0 0 70 70" fill="none" xmlns="http://www.w3.org/2000/svg">
<rect width="70" height="70" rx="35" fill="#FEFEFE"/>
<g clip-path="url(#clip0_65_23)">
<path d="M62 35.5C62 50.6878 49.6878 63 34.5 63C19.3122 63 7 50.6878 7 35.5C7 20.3122 19.3122 8 34.5 8C49.6878 8 62 20.3122 62 35.5Z" fill="#FFB509"/>
<path d="M58.1326 34.1287C58.1326 46.3502 48.2252 56.2576 36.0037 56.2576C23.7822 56.2576 13.8748 46.3502 13.8748 34.1287C13.8748 21.9072 23.7822 11.9998 36.0037 11.9998C48.225 11.9998 58.1326 21.9072 58.1326 34.1287Z" fill="#FFC143"/>
<path d="M58.1328 21.4298V49.5702C56.8564 51.7095 55.2977 53.661 53.5082 55.373H13.4453C12.852 55.373 12.3711 54.8921 12.3711 54.2988V20.998C12.3711 20.4048 12.852 19.9238 13.4453 19.9238H57.0586C57.0964 19.9238 57.1338 19.9258 57.1705 19.9296C57.507 20.4185 57.8279 20.9188 58.1328 21.4298Z" fill="#FFF5F5"/>
<path d="M14.5195 55.373H11.9414C11.3481 55.373 10.8672 54.8921 10.8672 54.2988V20.998C10.8672 20.4048 11.3481 19.9238 11.9414 19.9238H14.5195C13.9262 19.9238 13.4453 20.4048 13.4453 20.998V54.2988C13.4453 54.8921 13.9262 55.373 14.5195 55.373Z" fill="#C9F0FF"/>
<path d="M58.1328 16.7012V20.998H27.4102L26.3291 20.2072H16.6748L15.5938 20.998H13.4327C12.8464 20.998 12.3711 20.5227 12.3711 19.9364V17.4359C12.3711 16.4369 13.1811 15.627 14.1801 15.627H57.0586C57.6519 15.627 58.1328 16.1079 58.1328 16.7012Z" fill="#0A2540"/>
<path d="M14.5195 15.627C13.9262 15.627 13.4453 16.1079 13.4453 16.7012V20.998H10.8672V16.7012C10.8672 16.1079 11.3481 15.627 11.9414 15.627H14.5195Z" fill="#69CDFF"/>
<path d="M46.7461 18.3125C46.7461 18.9058 46.2652 19.3867 45.6719 19.3867C45.0786 19.3867 44.5977 18.9058 44.5977 18.3125C44.5977 17.7192 45.0786 17.2383 45.6719 17.2383C46.2652 17.2383 46.7461 17.7192 46.7461 18.3125ZM54.2656 17.2383C53.6723 17.2383 53.1914 17.7192 53.1914 18.3125C53.1914 18.9058 53.6723 19.3867 54.2656 19.3867C54.8589 19.3867 55.3398 18.9058 55.3398 18.3125C55.3398 17.7192 54.8589 17.2383 54.2656 17.2383ZM49.9688 17.2383C49.3755 17.2383 48.8945 17.7192 48.8945 18.3125C48.8945 18.9058 49.3755 19.3867 49.9688 19.3867C50.562 19.3867 51.043 18.9058 51.043 18.3125C51.043 17.7192 50.562 17.2383 49.9688 17.2383Z" fill="#69CDFF"/>
<path d="M27.4102 18.8496V20.998H15.5938V18.8496C15.5938 18.2563 16.0747 17.7754 16.668 17.7754H26.3359C26.9292 17.7754 27.4102 18.2563 27.4102 18.8496Z" fill="#00E294"/>
<path d="M20.4826 25.1875V50.9688C20.4826 51.562 20.0017 52.043 19.4084 52.043H16.668C16.0747 52.043 15.5938 51.562 15.5938 50.9688V25.1875C15.5938 24.5942 16.0747 24.1133 16.668 24.1133H19.4084C20.0016 24.1133 20.4826 24.5942 20.4826 25.1875Z" fill="#0091D0"/>
<path d="M27.4102 25.1875V50.9688C27.4102 51.562 26.9292 52.043 26.3359 52.043H18.9238C18.3305 52.043 17.8496 51.562 17.8496 50.9688V25.1875C17.8496 24.5942 18.3305 24.1133 18.9238 24.1133H26.3359C26.9292 24.1133 27.4102 24.5942 27.4102 25.1875Z" fill="#00AAF2"/>
<path d="M24.3737 48.8203C24.3737 49.4136 23.8928 49.8945 23.2995 49.8945H21.8613C21.268 49.8945 20.7871 49.4136 20.7871 48.8203C20.7871 48.227 21.268 47.7461 21.8613 47.7461H23.2995C23.8928 47.7461 24.3737 48.227 24.3737 48.8203ZM24.8313 43.4492H21.8613C21.268 43.4492 20.7871 43.9301 20.7871 44.5234C20.7871 45.1167 21.268 45.5977 21.8613 45.5977H24.8313C25.4246 45.5977 25.9055 45.1167 25.9055 44.5234C25.9055 43.9301 25.4246 43.4492 24.8313 43.4492ZM21.8613 28.4102H24.8313C25.4246 28.4102 25.9055 27.9292 25.9055 27.3359C25.9055 26.7426 25.4246 26.2617 24.8313 26.2617H21.8613C21.268 26.2617 20.7871 26.7426 20.7871 27.3359C20.7871 27.9292 21.268 28.4102 21.8613 28.4102ZM21.8613 37.0039H23.2995C23.8928 37.0039 24.3737 36.523 24.3737 35.9297C24.3737 35.3364 23.8928 34.8555 23.2995 34.8555H21.8613C21.268 34.8555 20.7871 35.3364 20.7871 35.9297C20.7871 36.523 21.268 37.0039 21.8613 37.0039ZM24.8313 39.1523H21.8613C21.268 39.1523 20.7871 39.6333 20.7871 40.2266C20.7871 40.8199 21.268 41.3008 21.8613 41.3008H24.8313C25.4246 41.3008 25.9055 40.8199 25.9055 40.2266C25.9055 39.6333 25.4246 39.1523 24.8313 39.1523ZM24.8313 30.5586H21.8613C21.268 30.5586 20.7871 31.0395 20.7871 31.6328C20.7871 32.2261 21.268 32.707 21.8613 32.707H24.8313C25.4246 32.707 25.9055 32.2261 25.9055 31.6328C25.9055 31.0395 25.4246 30.5586 24.8313 30.5586Z" fill="#0091D0"/>
<path d="M19.2468 48.8203C19.2468 49.4136 18.7659 49.8945 18.1726 49.8945C17.5793 49.8945 17.0984 49.4136 17.0984 48.8203C17.0984 48.227 17.5793 47.7461 18.1726 47.7461C18.7659 47.7461 19.2468 48.227 19.2468 48.8203ZM18.1726 43.4492C17.5793 43.4492 17.0984 43.9301 17.0984 44.5234C17.0984 45.1167 17.5793 45.5977 18.1726 45.5977C18.7659 45.5977 19.2468 45.1167 19.2468 44.5234C19.2468 43.9301 18.7659 43.4492 18.1726 43.4492ZM18.1726 28.4102C18.7659 28.4102 19.2468 27.9292 19.2468 27.3359C19.2468 26.7426 18.7659 26.2617 18.1726 26.2617C17.5793 26.2617 17.0984 26.7426 17.0984 27.3359C17.0984 27.9292 17.5793 28.4102 18.1726 28.4102ZM18.1726 34.8555C17.5793 34.8555 17.0984 35.3364 17.0984 35.9297C17.0984 36.523 17.5793 37.0039 18.1726 37.0039C18.7659 37.0039 19.2468 36.523 19.2468 35.9297C19.2468 35.3364 18.7659 34.8555 18.1726 34.8555ZM18.1726 39.1523C17.5793 39.1523 17.0984 39.6333 17.0984 40.2266C17.0984 40.8199 17.5793 41.3008 18.1726 41.3008C18.7659 41.3008 19.2468 40.8199 19.2468 40.2266C19.2468 39.6333 18.7659 39.1523 18.1726 39.1523ZM18.1726 30.5586C17.5793 30.5586 17.0984 31.0395 17.0984 31.6328C17.0984 32.2261 17.5793 32.707 18.1726 32.707C18.7659 32.707 19.2468 32.2261 19.2468 31.6328C19.2468 31.0395 18.7659 30.5586 18.1726 30.5586Z" fill="#9AE7FD"/>
<path d="M54.2656 25.1875V31.1477C54.2656 31.741 53.7847 32.2219 53.1914 32.2219H30.6328C30.0395 32.2219 29.5586 31.741 29.5586 31.1477V25.1875C29.5586 24.5942 30.0395 24.1133 30.6328 24.1133H53.1914C53.7847 24.1133 54.2656 24.5942 54.2656 25.1875Z" fill="#64DCFC"/>
<path d="M33.0235 32.2219H30.6328C30.0395 32.2219 29.5586 31.741 29.5586 31.1477V25.1875C29.5586 24.5942 30.0395 24.1133 30.6328 24.1133H33.0235C32.4302 24.1133 31.9493 24.5942 31.9493 25.1875V31.1477C31.9493 31.741 32.4303 32.2219 33.0235 32.2219Z" fill="#00D1FC"/>
<path d="M52.4611 27.8645V29.7868C52.4611 30.38 51.9802 30.861 51.3869 30.861C50.7936 30.861 50.3127 30.38 50.3127 29.7868V27.8645C50.3127 27.2713 50.7936 26.7903 51.3869 26.7903C51.9801 26.7903 52.4611 27.2713 52.4611 27.8645ZM34.0977 28.7124C33.5044 28.7124 33.0234 29.1934 33.0234 29.7866C33.0234 30.3799 33.5044 30.8609 34.0977 30.8609C34.6909 30.8609 35.1719 30.3799 35.1719 29.7866C35.1719 29.1934 34.6909 28.7124 34.0977 28.7124ZM38.4962 25.4739C37.9029 25.4739 37.4219 25.9548 37.4219 26.5481V29.7868C37.4219 30.38 37.9029 30.861 38.4962 30.861C39.0894 30.861 39.5704 30.38 39.5704 29.7868V26.5481C39.5704 25.9549 39.0894 25.4739 38.4962 25.4739ZM42.793 27.412C42.1997 27.412 41.7188 27.8929 41.7188 28.4862V29.7866C41.7188 30.3799 42.1997 30.8609 42.793 30.8609C43.3863 30.8609 43.8672 30.3799 43.8672 29.7866V28.4862C43.8672 27.8929 43.3863 27.412 42.793 27.412ZM47.09 25.4739C46.4967 25.4739 46.0158 25.9548 46.0158 26.5481V29.7868C46.0158 30.38 46.4967 30.861 47.09 30.861C47.6833 30.861 48.1642 30.38 48.1642 29.7868V26.5481C48.1642 25.9549 47.6833 25.4739 47.09 25.4739Z" fill="#00AAF2"/>
<path d="M54.2656 35.0981V41.0583C54.2656 41.6516 53.7847 42.1326 53.1914 42.1326H30.6328C30.0395 42.1326 29.5586 41.6516 29.5586 41.0583V35.0981C29.5586 34.5049 30.0395 34.0239 30.6328 34.0239H53.1914C53.7847 34.0239 54.2656 34.5049 54.2656 35.0981Z" fill="#FF5E95"/>
<path d="M33.0235 42.1326H30.6328C30.0395 42.1326 29.5586 41.6516 29.5586 41.0583V35.0981C29.5586 34.5049 30.0395 34.0239 30.6328 34.0239H33.0235C32.4302 34.0239 31.9493 34.5049 31.9493 35.0981V41.0583C31.9493 41.6516 32.4303 42.1326 33.0235 42.1326Z" fill="#FF3980"/>
<path d="M54.2656 45.0085V50.9687C54.2656 51.562 53.7847 52.043 53.1914 52.043H30.6328C30.0395 52.043 29.5586 51.562 29.5586 50.9687V45.0085C29.5586 44.4153 30.0395 43.9343 30.6328 43.9343H53.1914C53.7847 43.9343 54.2656 44.4153 54.2656 45.0085Z" fill="#00E294"/>
<path d="M33.0235 52.043H30.6328C30.0395 52.043 29.5586 51.562 29.5586 50.9687V45.0085C29.5586 44.4153 30.0395 43.9343 30.6328 43.9343H33.0235C32.4302 43.9343 31.9493 44.4153 31.9493 45.0085V50.9687C31.9493 51.562 32.4303 52.043 33.0235 52.043Z" fill="#00D683"/>
<path d="M45.7213 47.8409V47.9218L46.481 48.6814C46.9004 49.1009 46.9004 49.7811 46.481 50.2005C46.2712 50.4103 45.9963 50.5152 45.7214 50.5152C45.4465 50.5152 45.1716 50.4103 44.9618 50.2005L43.402 48.6409C43.2006 48.4395 43.0874 48.1662 43.0874 47.8813C43.0874 47.5964 43.2006 47.3231 43.402 47.1217L44.9618 45.562C45.3814 45.1425 46.0614 45.1425 46.4811 45.562C46.9006 45.9814 46.9006 46.6616 46.4811 47.0812L45.7213 47.8409ZM51.594 47.1216L50.0343 45.562C49.8245 45.3522 49.5496 45.2473 49.2747 45.2473C48.9998 45.2473 48.7249 45.3523 48.5151 45.562C48.0956 45.9814 48.0956 46.6616 48.5151 47.0811L49.2748 47.8407V47.9216L48.5151 48.6813C48.0956 49.1008 48.0956 49.7809 48.5151 50.2005C48.9347 50.62 49.6147 50.62 50.0344 50.2005L51.5941 48.6408C51.7956 48.4394 51.9088 48.1661 51.9088 47.8812C51.9087 47.5963 51.7954 47.3231 51.594 47.1216Z" fill="#5DFFB9"/>
<path d="M58.7302 53.7971C58.5319 53.5988 58.292 53.4675 58.0386 53.4032C58.6113 52.5116 59.0739 51.5425 59.4074 50.5152C59.4554 50.3672 58.3371 50.2179 58.3798 50.0675C58.6879 48.9803 58.8528 47.8329 58.8528 46.6471C58.8528 39.7333 54.1101 35.1184 47.1963 35.1184C45.897 35.1184 44.9456 34.3266 43.7673 34.6939C42.6889 35.0302 41.6732 35.5083 40.7419 36.1064C40.6775 35.853 40.5462 35.6131 40.3479 35.4148C39.7607 34.8276 38.8085 34.8276 38.2213 35.4148L36.2659 37.3702C35.6786 37.9575 35.6786 38.9097 36.2659 39.497C36.4642 39.6953 36.7041 39.8266 36.9575 39.8909C36.1678 41.1203 35.5874 42.4968 35.2665 43.9704C35.0419 43.837 34.7798 43.7606 34.4999 43.7606C33.6694 43.7606 32.9961 44.4339 32.9961 45.2644V48.0297C32.9961 48.8602 33.6694 49.5335 34.4999 49.5335C34.7798 49.5335 35.0419 49.457 35.2665 49.3237C35.5874 50.7972 36.1678 52.1737 36.9575 53.4032C36.7041 53.4675 36.4642 53.5988 36.2659 53.7971C35.6786 54.3844 35.6786 55.3366 36.2659 55.9238L38.2213 57.8792C38.8086 58.4665 39.7608 58.4665 40.3479 57.8792C40.5462 57.6809 40.6775 57.4411 40.7419 57.1876C41.9713 57.9773 43.3478 58.5577 44.8213 58.8787C44.688 59.1031 44.6115 59.3652 44.6115 59.6452C44.6115 60.4757 45.2848 61.149 46.1153 61.149H48.8807C49.7112 61.149 50.3845 60.4757 50.3845 59.6452C50.3845 59.3653 50.308 59.1032 50.1747 58.8787C51.6482 58.5577 53.0247 57.9773 54.2541 57.1876C54.3185 57.4411 54.4497 57.6809 54.648 57.8792C55.2353 58.4665 56.1875 58.4665 56.7748 57.8792L58.7302 55.9238C59.3175 55.3364 59.3175 54.3844 58.7302 53.7971ZM47.498 55.4464C42.6383 55.4464 38.6986 51.5067 38.6986 46.647C38.6986 41.7872 42.6383 37.8476 47.498 37.8476C52.3578 37.8476 56.2975 41.7873 56.2975 46.6471C56.2975 51.5069 52.3578 55.4464 47.498 55.4464Z" fill="#0A2540"/>
<path d="M62 45.2642V48.0296C62 48.8601 61.3267 49.5334 60.4962 49.5334C60.2163 49.5334 59.9542 49.4568 59.7297 49.3236C59.6204 49.8252 59.4811 50.3156 59.3136 50.7928C59.053 51.5353 58.3476 52.0292 57.5606 52.0292C56.2721 52.0292 55.3881 50.7556 55.8113 49.5386C56.1583 48.5408 56.3308 47.4614 56.2922 46.337C56.1341 41.7367 52.3914 38.0016 47.7909 37.8522C46.7816 37.8195 45.8086 37.9568 44.8989 38.2377C43.6977 38.6085 42.479 37.722 42.479 36.4649V36.4639C42.479 35.6569 42.997 34.9341 43.7674 34.6939C44.1126 34.5863 44.4642 34.4933 44.8214 34.4154C44.6881 34.1909 44.6117 33.9288 44.6117 33.6488C44.6117 32.8183 45.285 32.145 46.1154 32.145H48.8808C49.7113 32.145 50.3846 32.8183 50.3846 33.6488C50.3846 33.9275 50.3088 34.1885 50.1766 34.4123C51.6516 34.7302 53.0288 35.3061 54.258 36.0915C54.3238 35.8436 54.4537 35.6092 54.6481 35.4148C55.2354 34.8276 56.1875 34.8276 56.7748 35.4148L58.7302 37.3702C59.3175 37.9575 59.3175 38.9097 58.7302 39.497C58.536 39.6912 58.3018 39.8211 58.0542 39.8869C58.8387 41.1145 59.4147 42.491 59.7328 43.9684C59.9565 43.8363 60.2175 43.7605 60.4961 43.7605C61.3267 43.7604 62 44.4338 62 45.2642Z" fill="#0A5786"/>
<path d="M47.4981 37.5151C42.4548 37.5151 38.3662 41.6036 38.3662 46.6471C38.3662 51.6905 42.4547 55.779 47.4981 55.779C52.5416 55.779 56.6301 51.6905 56.6301 46.6471C56.6301 41.6036 52.5415 37.5151 47.4981 37.5151ZM47.4981 53.277C43.8365 53.277 40.8682 50.3087 40.8682 46.6471C40.8682 42.9855 43.8366 40.0171 47.4981 40.0171C51.1597 40.0171 54.1281 42.9855 54.1281 46.6471C54.1281 50.3087 51.1598 53.277 47.4981 53.277Z" fill="#4F66D1"/>
<path d="M56.63 46.647C56.63 47.0098 56.6088 47.3676 56.5676 47.7194C56.4941 48.3481 55.9578 48.8204 55.3248 48.8204C54.5755 48.8204 53.9965 48.1667 54.0832 47.4225C54.1128 47.1681 54.1281 46.9094 54.1281 46.6471C54.1281 42.9854 51.1597 40.0171 47.4981 40.0171C47.4177 40.0171 47.3256 40.0185 47.2265 40.0214C46.5199 40.0417 45.9348 39.4777 45.9348 38.7709C45.9348 38.0912 46.4778 37.5368 47.1574 37.52C47.2831 37.5169 47.3996 37.5154 47.4981 37.5154C52.5414 37.5151 56.63 41.6035 56.63 46.647Z" fill="#6C7FD9"/>
</g>
<defs>
<clipPath id="clip0_65_23">
<rect width="55" height="55" fill="white" transform="translate(7 8)"/>
</clipPath>
</defs>
</svg>
