<svg width="70" height="70" viewBox="0 0 70 70" fill="none" xmlns="http://www.w3.org/2000/svg">
<rect width="70" height="70" rx="35" fill="#FEFEFE"/>
<g clip-path="url(#clip0_65_23)">
<path d="M35.9491 37.7407L28.2642 60.0725C30.5597 60.7454 32.9867 61.1167 35.5014 61.1167C38.4833 61.1167 41.3453 60.6006 44.0061 59.6643C43.9378 59.5544 43.8754 59.4378 43.8245 59.3111L35.9491 37.7407Z" fill="#0A2540"/>
<path d="M9.88477 35.4987C9.88477 45.6388 15.7775 54.4009 24.3224 58.5523L12.1039 25.0745C10.683 28.2601 9.88477 31.7856 9.88477 35.4987Z" fill="#0A2540"/>
<path d="M52.7915 34.2065C52.7915 31.0409 51.6555 28.8492 50.681 27.1415C49.382 25.0315 48.1649 23.2454 48.1649 21.1348C48.1649 18.7802 49.9504 16.5885 52.4665 16.5885C52.5804 16.5885 52.6877 16.6026 52.7989 16.608C48.2426 12.4344 42.1716 9.88477 35.502 9.88477C26.5516 9.88477 18.6783 14.4759 14.0999 21.431C14.7004 21.4491 15.2654 21.4618 15.748 21.4618C18.4276 21.4618 22.5757 21.1368 22.5757 21.1368C23.9578 21.0537 24.1186 23.0825 22.7399 23.2454C22.7399 23.2454 21.3519 23.4082 19.8083 23.49L29.1347 51.236L34.7399 34.423L30.748 23.4893C29.3686 23.4076 28.0623 23.2447 28.0623 23.2447C26.683 23.1643 26.8438 21.0543 28.2238 21.1361C28.2238 21.1361 32.4551 21.4612 34.9705 21.4612C37.6495 21.4612 41.7989 21.1361 41.7989 21.1361C43.181 21.0543 43.3425 23.0818 41.9618 23.2447C41.9618 23.2447 40.5724 23.4076 39.0301 23.4893L48.2882 51.0248L50.8432 42.4873C51.9497 38.9444 52.7915 36.3988 52.7915 34.2065Z" fill="#0A2540"/>
<path d="M57.9766 23.2097C58.0866 24.0247 58.1496 24.9021 58.1496 25.8438C58.1496 28.443 57.665 31.3652 56.2025 35.0187L48.3774 57.64C55.9921 53.199 61.116 44.9483 61.116 35.4999C61.1167 31.0455 59.978 26.8578 57.9766 23.2097Z" fill="#0A2540"/>
<path d="M35.4998 3C17.5508 3 3.00049 17.5509 3.00049 35.5C3.00049 53.4491 17.5508 68 35.4998 68C53.4489 68 67.9991 53.4491 67.9991 35.5C67.9991 17.5509 53.4489 3 35.4998 3ZM35.5012 63.9899C19.7907 63.9899 7.01121 51.2105 7.01121 35.4987C7.01121 19.7895 19.79 7.01005 35.5012 7.01005C51.2096 7.01005 63.9884 19.7902 63.9884 35.4987C63.9891 51.2091 51.2089 63.9899 35.5012 63.9899Z" fill="#0A2540"/>
</g>
<defs>
<clipPath id="clip0_65_23">
<rect width="65" height="65" fill="white" transform="translate(3 3)"/>
</clipPath>
</defs>
</svg>
