<svg width="70" height="70" viewBox="0 0 70 70" fill="none" xmlns="http://www.w3.org/2000/svg">
<rect width="70" height="70" rx="35" fill="#FEFEFE"/>
<g clip-path="url(#clip0_65_23)">
<path d="M41.1592 44.7297L40.97 35.379C44.2761 35.3392 48.5879 34.6421 52.3023 34.3334C52.2923 34.0147 52.3322 33.6961 52.4218 33.3874C52.4915 33.0986 52.611 32.8198 52.7604 32.5708C53.318 31.7144 54.8217 31.3758 55.3694 32.3816L58.1577 40.378L56.6142 46.3628C56.5544 46.6118 56.4449 46.8408 56.3055 47.0499C56.3055 47.0499 55.8175 47.8565 55.3495 48.5635H42.9018C41.8264 47.5777 41.199 46.1935 41.1592 44.7297Z" fill="#EFCDB1"/>
<path d="M56.2954 52.2481C56.3053 52.6066 55.9369 52.8854 55.4788 52.8954H53.8556L42.5332 52.985C42.0752 52.985 41.6968 52.7062 41.6968 52.3577L41.647 49.1014C41.647 48.7528 42.0154 48.464 42.4735 48.464L53.8556 48.3744L55.4091 48.3545C55.8771 48.3545 56.2456 48.6333 56.2555 48.9819L56.2954 52.2481Z" fill="#D1D0DF"/>
<path d="M56.2955 52.2482C56.3054 52.6067 55.937 52.8855 55.4789 52.8954H53.8557V48.3844L55.4092 48.3645C55.8772 48.3645 56.2457 48.6433 56.2556 48.9919L56.2955 52.2482Z" fill="#B5B5C6"/>
<path d="M57.6995 60.5033H42.842C47.851 60.5033 52.2425 57.7548 54.6623 52.8654L57.5801 52.8455L57.6995 60.5033Z" fill="#FAAD1B"/>
<path d="M54.6622 52.8655C52.2424 57.7549 47.8509 60.5034 42.8419 60.5034H40.5416L40.4221 52.975L54.6622 52.8655Z" fill="#FFC700"/>
<path d="M36.2697 37.5798L39.5659 45.0683L58.8547 36.5839C59.8008 36.1757 60.229 35.0703 59.8107 34.1342C59.8107 34.1342 59.8107 34.1342 59.8107 34.1243L51.4658 15.1342L43.6885 18.5598C43.5292 18.6295 43.35 18.5598 43.2803 18.4004C43.2603 18.3506 43.2504 18.2909 43.2603 18.2311C43.3599 17.4146 43.4595 15.8711 42.9118 14.8952C41.8961 13.0828 39.6057 12.4355 37.7933 13.4512C35.981 14.467 35.3337 16.7573 36.3494 18.5697C36.8374 19.4361 37.644 20.0734 38.5999 20.3522C38.7194 20.3821 38.7991 20.5016 38.7692 20.6211C38.7493 20.7008 38.6995 20.7605 38.6298 20.7904L30.4741 24.3653L34.0491 32.5011C34.0889 32.6206 34.2184 32.6804 34.3379 32.6405C34.4076 32.6107 34.4673 32.5509 34.4872 32.4812C35.0648 30.4796 37.1461 29.3245 39.1476 29.902C41.1492 30.4796 42.3044 32.5609 41.7268 34.5624C41.4579 35.5184 40.8106 36.325 39.9443 36.813C38.9584 37.3607 37.4149 37.2611 36.5984 37.1516C36.4191 37.1416 36.2697 37.2711 36.2598 37.4503C36.2399 37.4802 36.2498 37.53 36.2697 37.5798Z" fill="#FAAD1B"/>
<path d="M36.678 38.5059L39.5658 45.0683L58.8547 36.584C59.8007 36.1757 60.2289 35.0703 59.8107 34.1343C59.8107 34.1343 59.8107 34.1343 59.8107 34.1243L59.4821 33.3774C58.6555 33.8056 57.8091 34.2139 56.9427 34.5923C50.5695 37.4005 43.6387 38.7349 36.678 38.5059Z" fill="#EFB703"/>
<path d="M50.3904 42.5688C50.5895 42.1306 50.8285 41.6626 51.1074 41.1647C51.914 39.7606 53.3181 39.183 53.3181 39.183C53.3181 39.183 52.7106 35.5184 52.5214 34.2936C52.392 33.4372 52.5513 32.5609 52.9795 31.804C53.567 30.8879 55.1006 30.5095 55.6582 31.5551L58.337 39.9398L56.6441 46.2931" fill="#EFCDB1"/>
<path d="M28.8908 25.9686L29.08 35.3193C25.7739 35.3492 21.4621 36.0562 17.7477 36.3649C17.7477 36.6836 17.7079 37.0022 17.6282 37.3109C17.5585 37.5997 17.439 37.8686 17.2896 38.1275C16.732 38.9839 15.2283 39.3225 14.6706 38.3167L11.8923 30.3203L13.4358 24.3355C13.4956 24.0866 13.6051 23.8476 13.7445 23.6384C13.7445 23.6384 14.2325 22.8418 14.7005 22.1348H27.1482C28.2236 23.1206 28.861 24.5048 28.8908 25.9686Z" fill="#EFCDB1"/>
<path d="M28.4027 21.587L28.3529 18.3208C28.3529 17.9723 27.9745 17.6934 27.5165 17.7034L14.5709 17.803C14.1128 17.803 13.7444 18.0918 13.7444 18.4403L13.7942 21.6966C13.7942 22.0551 14.1726 22.3339 14.6307 22.3239L27.5762 22.2244C28.0343 22.2244 28.4027 21.9356 28.4027 21.587Z" fill="#D1D0DF"/>
<path d="M16.1941 22.294H14.3718C14.0332 22.294 13.7544 22.0152 13.7544 21.6766V21.6666V18.5796C13.7544 18.1713 14.093 17.8328 14.5013 17.8328H16.1941V22.294Z" fill="#B5B5C6"/>
<path d="M12.3503 9H27.2078C22.1989 9 17.8074 12.9335 15.3876 17.8328L12.4599 17.8528L12.3503 9Z" fill="#0A2540"/>
<path d="M15.3875 17.8328C17.8073 12.9335 22.1988 9 27.2077 9H29.5081L29.6176 17.7133L15.3875 17.8328Z" fill="#0E2E4E"/>
<path d="M41.6271 32.3617C42.1549 34.0546 41.428 35.8869 39.8944 36.7632C38.9086 37.3109 37.3651 37.2312 36.5485 37.1316C36.3792 37.1117 36.2298 37.2312 36.2099 37.4005C36.2 37.4503 36.2099 37.51 36.2298 37.5598L39.1774 44.1521C39.4762 44.8193 39.1774 45.606 38.5103 45.9047L31.6192 48.9917C31.5097 49.0515 31.3703 49.0017 31.3105 48.8922C31.2807 48.8224 31.2807 48.7428 31.3105 48.683C32.2267 46.8109 31.4499 44.5604 29.5778 43.6442C27.7057 42.7281 25.4552 43.5048 24.539 45.3769C24.1009 46.2632 24.0411 47.2889 24.3498 48.225C24.7083 49.2905 25.9232 50.2465 26.6003 50.7244C26.7398 50.834 26.7696 51.0331 26.6601 51.1726C26.6302 51.2124 26.5904 51.2423 26.5506 51.2622L18.7932 54.7276L10.1894 35.4985C9.77114 34.5525 10.1894 33.4471 11.1354 33.0189L29.3289 24.8831C29.8865 24.6242 30.5537 24.8732 30.8027 25.4408C30.8027 25.4408 30.8027 25.4507 30.8126 25.4507C31.6491 27.3328 33.2822 30.9675 33.9694 32.5011C34.0092 32.6206 34.1486 32.6803 34.2681 32.6405C34.3378 32.6106 34.3975 32.5509 34.4075 32.4712C34.9652 30.4696 37.0464 29.2946 39.048 29.8522C40.2728 30.2008 41.2487 31.1468 41.6271 32.3617Z" fill="#0E2E4E"/>
<path d="M39.8945 36.7632C38.9086 37.3109 37.3651 37.2312 36.5485 37.1316C36.3793 37.1117 36.2299 37.2312 36.21 37.4005C36.2 37.4503 36.21 37.51 36.2299 37.5598L39.1775 44.1521C39.4762 44.8193 39.1775 45.606 38.5103 45.9047L31.6093 49.0017C31.4998 49.0515 31.3604 49.0116 31.3006 48.8922C31.2707 48.8224 31.2707 48.7428 31.3106 48.683C32.2267 46.8109 31.45 44.5604 29.5779 43.6442C27.7057 42.7281 25.4552 43.5048 24.5391 45.3769C24.1009 46.2632 24.0412 47.2889 24.3499 48.225C24.7083 49.2905 25.9232 50.2564 26.6004 50.7244C26.7398 50.834 26.7697 51.0331 26.6601 51.1726C26.6303 51.2124 26.5904 51.2423 26.5506 51.2622L18.7932 54.7276L16.7717 50.2066C23.3341 45.3869 27.7057 36.7632 27.7057 26.9345C27.7057 26.4864 27.6958 26.0482 27.6759 25.6101L29.319 24.8831C29.8766 24.6242 30.5438 24.8732 30.7928 25.4408C30.7928 25.4408 30.7928 25.4507 30.8027 25.4507C31.6392 27.3328 33.2723 30.9675 33.9594 32.5011C33.9993 32.6206 34.1387 32.6803 34.2582 32.6405C34.3279 32.6106 34.3876 32.5509 34.3976 32.4712C34.9552 30.4696 37.0365 29.2946 39.0381 29.8522C40.2729 30.1908 41.2388 31.1368 41.6172 32.3617C42.145 34.0546 41.428 35.8769 39.8945 36.7632Z" fill="#0A2540"/>
<path d="M19.6595 28.1296C19.4603 28.5578 19.2213 29.0358 18.9325 29.5337C18.1359 30.9378 16.7318 31.5154 16.7318 31.5154C16.7318 31.5154 17.3392 35.18 17.5284 36.4048C17.6579 37.2612 17.4986 38.1375 17.0704 38.8943C16.4828 39.8005 14.9393 40.1889 14.3916 39.1433L11.7129 30.7486L13.4058 24.4053" fill="#EFCDB1"/>
<path d="M21.7632 56.3589L22.8255 55.8104L24.2059 58.4839L23.1436 59.0324L21.7632 56.3589Z" fill="#808285"/>
<path d="M13.1436 58.5315L14.5239 55.858L15.5863 56.4065L14.2059 59.08L13.1436 58.5315Z" fill="#808285"/>
<path d="M18.0261 60.5227L18.0983 57.5154L19.2933 57.544L19.2211 60.5514L18.0261 60.5227Z" fill="#808285"/>
<path d="M47.0222 11.2119L48.0845 10.6634L49.4649 13.337L48.4026 13.8854L47.0222 11.2119Z" fill="#808285"/>
<path d="M55.6499 13.3677L57.0303 10.6941L58.0926 11.2426L56.7122 13.9162L55.6499 13.3677Z" fill="#808285"/>
<path d="M51.8396 12.114L51.9118 9.10666L53.1067 9.13534L53.0346 12.1427L51.8396 12.114Z" fill="#808285"/>
</g>
<defs>
<clipPath id="clip0_65_23">
<rect width="50" height="51.6129" fill="white" transform="translate(10 9)"/>
</clipPath>
</defs>
</svg>
