<svg width="40" height="40" viewBox="0 0 40 40" fill="none" xmlns="http://www.w3.org/2000/svg">
<g clip-path="url(#clip0_94_10)">
<path d="M20 40C31.0457 40 40 31.0457 40 20C40 8.95431 31.0457 0 20 0C8.95431 0 0 8.95431 0 20C0 31.0457 8.95431 40 20 40Z" fill="white"/>
<path d="M27.1701 16.5215C21.3934 16.5215 21.3859 22.2764 21.3859 22.306C21.3859 22.306 20.9902 28.0681 27.1701 28.0681C27.1701 28.0681 32.3239 28.3611 32.3239 24.058H29.6775C29.6775 24.058 29.7652 25.678 27.2581 25.678C27.2581 25.678 24.6117 25.8541 24.6117 23.0608H32.412C32.412 23.0608 33.2698 16.5215 27.1701 16.5215ZM24.5821 21.0447C24.5821 21.0447 24.9047 18.728 27.2289 18.728C29.5602 18.728 29.5235 21.0447 29.5235 21.0447H24.5821ZM17.9701 19.564C17.9701 19.564 20.2647 19.3954 20.2647 16.6976C20.2647 14.0073 18.3879 12.6875 16.0053 12.6875H8.16797V27.7526H16.0046C16.0046 27.7526 20.7919 27.8994 20.7919 23.3029C20.7919 23.3029 20.9977 19.564 17.9701 19.564ZM11.6212 15.3632H16.005C16.005 15.3632 17.0681 15.3632 17.0681 16.9319C17.0681 18.5005 16.4449 18.728 15.7337 18.728H11.6212V15.3632ZM15.7854 25.0769H11.6212V21.0447H16.005C16.005 21.0447 17.5961 21.03 17.5886 23.1192C17.5886 24.879 16.4085 25.0623 15.7854 25.0769ZM23.9297 13.5745V15.4295H30.1466V13.5745H23.9297Z" fill="#4176FA"/>
</g>
<defs>
<clipPath id="clip0_94_10">
<rect width="40" height="40" fill="white"/>
</clipPath>
</defs>
</svg>
