<svg width="70" height="70" viewBox="0 0 70 70" fill="none" xmlns="http://www.w3.org/2000/svg">
<rect width="70" height="70" rx="35" fill="#FEFEFE"/>
<g clip-path="url(#clip0_65_23)">
<path d="M35.5 62C50.0352 62 61.8184 50.1355 61.8184 35.5C61.8184 20.8645 50.0352 9 35.5 9C20.9648 9 9.18164 20.8645 9.18164 35.5C9.18164 50.1355 20.9648 62 35.5 62Z" fill="#FFAF10"/>
<path d="M38.3606 48.8938H26.759V53.8877H38.3606V48.8938Z" fill="#445EA0"/>
<path d="M28.8905 48.8938H26.759V53.8877H28.8905V48.8938Z" fill="#2E4C89"/>
<path d="M43.786 56.4836C43.786 56.7811 43.5443 57.0244 43.2489 57.0244H21.8716C21.5762 57.0244 21.3345 56.7811 21.3345 56.4836V54.3204C21.3345 54.0229 21.5762 53.7795 21.8716 53.7795H43.2489C43.5443 53.7795 43.786 54.0229 43.786 54.3204V56.4836Z" fill="#293D7C"/>
<path d="M23.4659 56.4836V54.3204C23.4659 54.0229 23.7076 53.7795 24.003 53.7795H21.8716C21.5762 53.7795 21.3345 54.0229 21.3345 54.3204V56.4836C21.3345 56.7811 21.5762 57.0244 21.8716 57.0244H24.003C23.7076 57.0244 23.4659 56.7811 23.4659 56.4836Z" fill="#1A2B63"/>
<path d="M8 47.9208C8 48.5156 8.4834 49.0024 9.07422 49.0024H41.3196V41.7607H8V47.9208Z" fill="#293D7C"/>
<path d="M10.1315 47.9208V41.7607H8V47.9208C8 48.5156 8.4834 49.0024 9.07422 49.0024H11.2057C10.6149 49.0024 10.1315 48.5156 10.1315 47.9208Z" fill="#1A2B63"/>
<path d="M41.3196 38.8516C41.3196 38.613 41.5123 38.419 41.7493 38.419H57.1203V14.9992C57.1203 14.3453 56.589 13.8103 55.9396 13.8103H9.18078C8.53131 13.8103 8 14.3453 8 14.9992V41.8689H41.3196V38.8516Z" fill="#69CDFF"/>
<path d="M41.3196 38.8517C41.3196 38.6131 41.5123 38.419 41.7493 38.419H54.7588V16.729C54.7588 16.4316 54.5171 16.1882 54.2217 16.1882H10.8987C10.6033 16.1882 10.3616 16.4316 10.3616 16.729V38.9502C10.3616 39.2477 10.6033 39.491 10.8987 39.491H41.3195L41.3196 38.8517Z" fill="#EEF6FF"/>
<path d="M32.5598 46.9783C33.3851 46.9783 34.0541 46.3047 34.0541 45.4737C34.0541 44.6427 33.3851 43.969 32.5598 43.969C31.7345 43.969 31.0654 44.6427 31.0654 45.4737C31.0654 46.3047 31.7345 46.9783 32.5598 46.9783Z" fill="#445EA0"/>
<path d="M52.7263 30.1326C52.7263 30.43 52.4846 30.6734 52.1892 30.6734H35.1675C34.8721 30.6734 34.6304 30.43 34.6304 30.1326V22.2671C34.6304 21.9697 34.8721 21.7263 35.1675 21.7263H52.1892C52.4846 21.7263 52.7263 21.9697 52.7263 22.2671V30.1326Z" fill="#FFAF10"/>
<path d="M36.7618 30.1326V22.2671C36.7618 21.9697 37.0035 21.7263 37.2989 21.7263H35.1675C34.8721 21.7263 34.6304 21.9697 34.6304 22.2671V30.1326C34.6304 30.43 34.8721 30.6734 35.1675 30.6734H37.2989C37.0035 30.6734 36.7618 30.43 36.7618 30.1326Z" fill="#FF9518"/>
<path d="M40.1478 33.7826H35.5166C35.0717 33.7826 34.7109 33.4195 34.7109 32.9714C34.7109 32.5233 35.0717 32.1602 35.5166 32.1602H40.1478C40.5927 32.1602 40.9534 32.5233 40.9534 32.9714C40.9534 33.4195 40.5927 33.7826 40.1478 33.7826Z" fill="#C3DDF4"/>
<path d="M40.1478 36.2482H35.5166C35.0717 36.2482 34.7109 35.8851 34.7109 35.437C34.7109 34.9888 35.0717 34.6257 35.5166 34.6257H40.1478C40.5927 34.6257 40.9534 34.9888 40.9534 35.437C40.9534 35.8851 40.5927 36.2482 40.1478 36.2482Z" fill="#C3DDF4"/>
<path d="M45.7352 33.7826H42.2913C41.8463 33.7826 41.4856 33.4195 41.4856 32.9714C41.4856 32.5233 41.8463 32.1602 42.2913 32.1602H45.7352C46.1801 32.1602 46.5409 32.5233 46.5409 32.9714C46.5409 33.4195 46.1801 33.7826 45.7352 33.7826Z" fill="#C3DDF4"/>
<path d="M45.7352 36.2482H42.2913C41.8463 36.2482 41.4856 35.8851 41.4856 35.437C41.4856 34.9888 41.8463 34.6257 42.2913 34.6257H45.7352C46.1801 34.6257 46.5409 34.9888 46.5409 35.437C46.5409 35.8851 46.1801 36.2482 45.7352 36.2482Z" fill="#C3DDF4"/>
<path d="M52.2334 33.7826H47.8467C47.4017 33.7826 47.041 33.4195 47.041 32.9714C47.041 32.5233 47.4017 32.1602 47.8467 32.1602H52.2334C52.6783 32.1602 53.039 32.5233 53.039 32.9714C53.039 33.4195 52.6783 33.7826 52.2334 33.7826Z" fill="#C3DDF4"/>
<path d="M52.2334 36.2482H47.8467C47.4017 36.2482 47.041 35.8851 47.041 35.437C47.041 34.9888 47.4017 34.6257 47.8467 34.6257H52.2334C52.6783 34.6257 53.039 34.9888 53.039 35.437C53.039 35.8851 52.6783 36.2482 52.2334 36.2482Z" fill="#C3DDF4"/>
<path d="M46.6037 19.8255C46.6037 20.1229 46.362 20.3663 46.0665 20.3663H44.885C44.5896 20.3663 44.3479 20.1229 44.3479 19.8255V18.6358C44.3479 18.3383 44.5896 18.095 44.885 18.095H46.0665C46.362 18.095 46.6037 18.3383 46.6037 18.6358V19.8255Z" fill="#EF8318"/>
<path d="M49.6112 19.8255C49.6112 20.1229 49.3695 20.3663 49.0741 20.3663H47.8926C47.5972 20.3663 47.3555 20.1229 47.3555 19.8255V18.6358C47.3555 18.3383 47.5972 18.095 47.8926 18.095H49.0741C49.3695 18.095 49.6112 18.3383 49.6112 18.6358V19.8255Z" fill="#EF8318"/>
<path d="M52.6188 19.8255C52.6188 20.1229 52.3771 20.3663 52.0817 20.3663H50.9001C50.6047 20.3663 50.363 20.1229 50.363 19.8255V18.6358C50.363 18.3383 50.6047 18.095 50.9001 18.095H52.0817C52.3771 18.095 52.6188 18.3383 52.6188 18.6358V19.8255Z" fill="#EF8318"/>
<path d="M28.5066 35.6088H27.5398C27.0949 35.6088 26.7341 35.2457 26.7341 34.7976C26.7341 34.3494 27.0949 33.9863 27.5398 33.9863H28.5066C28.9515 33.9863 29.3123 34.3494 29.3123 34.7976C29.3123 35.2457 28.9515 35.6088 28.5066 35.6088Z" fill="#69CDFF"/>
<path d="M24.8542 35.6088H23.8875C23.4425 35.6088 23.0818 35.2457 23.0818 34.7976C23.0818 34.3494 23.4425 33.9863 23.8875 33.9863H24.8542C25.2992 33.9863 25.6599 34.3494 25.6599 34.7976C25.6599 35.2457 25.2992 35.6088 24.8542 35.6088Z" fill="#69CDFF"/>
<path d="M21.2019 35.6088H20.2351C19.7902 35.6088 19.4294 35.2457 19.4294 34.7976C19.4294 34.3494 19.7902 33.9863 20.2351 33.9863H21.2019C21.6468 33.9863 22.0076 34.3494 22.0076 34.7976C22.0077 35.2457 21.647 35.6088 21.2019 35.6088Z" fill="#69CDFF"/>
<path d="M17.5496 35.6088H16.5828C16.1378 35.6088 15.7771 35.2457 15.7771 34.7976C15.7771 34.3494 16.1378 33.9863 16.5828 33.9863H17.5496C17.9945 33.9863 18.3552 34.3494 18.3552 34.7976C18.3552 35.2457 17.9946 35.6088 17.5496 35.6088Z" fill="#69CDFF"/>
<path d="M31.6487 32.2666C31.2037 32.2666 30.843 31.9035 30.843 31.4553V30.4819C30.843 30.0339 31.2037 29.6707 31.6487 29.6707C32.0936 29.6707 32.4543 30.0339 32.4543 30.4819V31.4553C32.4543 31.9035 32.0936 32.2666 31.6487 32.2666Z" fill="#69CDFF"/>
<path d="M31.6487 28.5891C31.2037 28.5891 30.843 28.226 30.843 27.7779V26.8044C30.843 26.3564 31.2037 25.9932 31.6487 25.9932C32.0936 25.9932 32.4543 26.3564 32.4543 26.8044V27.7779C32.4543 28.226 32.0936 28.5891 31.6487 28.5891Z" fill="#69CDFF"/>
<path d="M31.6487 24.9116C31.2037 24.9116 30.843 24.5485 30.843 24.1004V23.1269C30.843 22.6789 31.2037 22.3157 31.6487 22.3157C32.0936 22.3157 32.4543 22.6789 32.4543 23.1269V24.1004C32.4543 24.5485 32.0936 24.9116 31.6487 24.9116Z" fill="#69CDFF"/>
<path d="M13.387 32.2666C12.942 32.2666 12.5813 31.9035 12.5813 31.4553V30.4819C12.5813 30.0339 12.942 29.6707 13.387 29.6707C13.8319 29.6707 14.1926 30.0339 14.1926 30.4819V31.4553C14.1926 31.9035 13.832 32.2666 13.387 32.2666Z" fill="#69CDFF"/>
<path d="M13.387 28.5891C12.942 28.5891 12.5813 28.226 12.5813 27.7779V26.8044C12.5813 26.3564 12.942 25.9932 13.387 25.9932C13.8319 25.9932 14.1926 26.3564 14.1926 26.8044V27.7779C14.1926 28.226 13.832 28.5891 13.387 28.5891Z" fill="#69CDFF"/>
<path d="M13.387 24.9116C12.942 24.9116 12.5813 24.5485 12.5813 24.1004V23.1269C12.5813 22.6789 12.942 22.3157 13.387 22.3157C13.8319 22.3157 14.1926 22.6789 14.1926 23.1269V24.1004C14.1926 24.5485 13.832 24.9116 13.387 24.9116Z" fill="#69CDFF"/>
<path d="M28.5066 20.8986H27.5398C27.0949 20.8986 26.7341 20.5355 26.7341 20.0873C26.7341 19.6392 27.0949 19.2761 27.5398 19.2761H28.5066C28.9515 19.2761 29.3123 19.6392 29.3123 20.0873C29.3123 20.5355 28.9515 20.8986 28.5066 20.8986Z" fill="#69CDFF"/>
<path d="M24.8542 20.8986H23.8875C23.4425 20.8986 23.0818 20.5355 23.0818 20.0873C23.0818 19.6392 23.4425 19.2761 23.8875 19.2761H24.8542C25.2992 19.2761 25.6599 19.6392 25.6599 20.0873C25.6599 20.5355 25.2992 20.8986 24.8542 20.8986Z" fill="#69CDFF"/>
<path d="M21.2019 20.8986H20.2351C19.7902 20.8986 19.4294 20.5355 19.4294 20.0873C19.4294 19.6392 19.7902 19.2761 20.2351 19.2761H21.2019C21.6468 19.2761 22.0076 19.6392 22.0076 20.0873C22.0076 20.5355 21.647 20.8986 21.2019 20.8986Z" fill="#69CDFF"/>
<path d="M17.5496 20.8986H16.5828C16.1378 20.8986 15.7771 20.5355 15.7771 20.0873C15.7771 19.6392 16.1378 19.2761 16.5828 19.2761H17.5496C17.9945 19.2761 18.3552 19.6392 18.3552 20.0873C18.3552 20.5355 17.9946 20.8986 17.5496 20.8986Z" fill="#69CDFF"/>
<path d="M29.5002 32.0933C29.5002 32.3908 29.2585 32.6342 28.9631 32.6342H16.0725C15.7771 32.6342 15.5354 32.3908 15.5354 32.0933V22.7913C15.5354 22.4939 15.7771 22.2505 16.0725 22.2505H28.9631C29.2585 22.2505 29.5002 22.4939 29.5002 22.7913V32.0933Z" fill="#5DC1D8"/>
<path d="M17.667 32.0933V22.7913C17.667 22.4939 17.9087 22.2505 18.2041 22.2505H16.0725C15.7771 22.2505 15.5354 22.4939 15.5354 22.7913V32.0933C15.5354 32.3908 15.7771 32.6342 16.0725 32.6342H18.2041C17.9087 32.6342 17.667 32.3908 17.667 32.0933Z" fill="#28A5A5"/>
<path d="M33.1523 20.8989C33.1523 21.1964 32.9106 21.4397 32.6152 21.4397H30.3594C30.064 21.4397 29.8223 21.1964 29.8223 20.8989V18.6275C29.8223 18.33 30.064 18.0867 30.3594 18.0867H32.6152C32.9106 18.0867 33.1523 18.33 33.1523 18.6275V20.8989Z" fill="#52BBEF"/>
<path d="M15.3203 21.1152C15.3203 21.4127 15.0786 21.656 14.7832 21.656H12.5273C12.2319 21.656 11.9902 21.4127 11.9902 21.1152V18.8438C11.9902 18.5463 12.2319 18.303 12.5273 18.303H14.7832C15.0786 18.303 15.3203 18.5463 15.3203 18.8438V21.1152Z" fill="#52BBEF"/>
<path d="M33.1523 36.0281C33.1523 36.3255 32.9106 36.5689 32.6152 36.5689H30.3594C30.064 36.5689 29.8223 36.3255 29.8223 36.0281V33.7566C29.8223 33.4592 30.064 33.2158 30.3594 33.2158H32.6152C32.9106 33.2158 33.1523 33.4592 33.1523 33.7566V36.0281Z" fill="#52BBEF"/>
<path d="M15.3203 36.0281C15.3203 36.3255 15.0786 36.5689 14.7832 36.5689H12.5273C12.2319 36.5689 11.9902 36.3255 11.9902 36.0281V33.7566C11.9902 33.4592 12.2319 33.2158 12.5273 33.2158H14.7832C15.0786 33.2158 15.3203 33.4592 15.3203 33.7566V36.0281Z" fill="#52BBEF"/>
<path d="M31.0063 20.8989V18.6275C31.0063 18.33 31.248 18.0867 31.5434 18.0867H30.3594C30.064 18.0867 29.8223 18.33 29.8223 18.6275V20.8989C29.8223 21.1964 30.064 21.4397 30.3594 21.4397H31.5434C31.248 21.4397 31.0063 21.1964 31.0063 20.8989Z" fill="#1E99D6"/>
<path d="M13.1742 21.1152V18.8438C13.1742 18.5463 13.4159 18.303 13.7113 18.303H12.5273C12.2319 18.303 11.9902 18.5463 11.9902 18.8438V21.1152C11.9902 21.4127 12.2319 21.656 12.5273 21.656H13.7113C13.4159 21.656 13.1742 21.4127 13.1742 21.1152Z" fill="#1E99D6"/>
<path d="M31.0063 36.0281V33.7566C31.0063 33.4592 31.248 33.2158 31.5434 33.2158H30.3594C30.064 33.2158 29.8223 33.4592 29.8223 33.7566V36.0281C29.8223 36.3255 30.064 36.5689 30.3594 36.5689H31.5434C31.248 36.5689 31.0063 36.3255 31.0063 36.0281Z" fill="#1E99D6"/>
<path d="M13.1742 36.0281V33.7566C13.1742 33.4592 13.4159 33.2158 13.7113 33.2158H12.5273C12.2319 33.2158 11.9902 33.4592 11.9902 33.7566V36.0281C11.9902 36.3255 12.2319 36.5689 12.5273 36.5689H13.7113C13.4159 36.5689 13.1742 36.3255 13.1742 36.0281Z" fill="#1E99D6"/>
<path d="M54.7778 47.4817C54.7612 47.436 54.7625 47.4101 54.7648 47.4016C54.7648 47.4016 54.7715 47.401 54.7776 47.401C54.7899 47.401 54.8112 47.4035 54.8436 47.4155L59.3665 49.0882V38.8519C59.3665 38.5544 59.1248 38.311 58.8293 38.311H41.7493C41.4539 38.311 41.2122 38.5544 41.2122 38.8519V51.269C41.2122 51.5664 41.4539 51.8098 41.7493 51.8098H56.3565L54.7778 47.4817Z" fill="#69CDFF"/>
<path d="M43.3436 51.2687V38.8516C43.3436 38.5542 43.5853 38.3108 43.8807 38.3108H41.7493C41.4539 38.3108 41.2122 38.5542 41.2122 38.8516V51.2687C41.2122 51.5662 41.4539 51.8096 41.7493 51.8096H43.8807C43.5853 51.8096 43.3436 51.5662 43.3436 51.2687Z" fill="#28A5A5"/>
<path d="M54.8806 47.3138C54.7037 47.2483 54.6119 47.3406 54.6769 47.5189L57.5091 55.283C57.5741 55.4613 57.7364 55.4972 57.8697 55.363L59.3733 53.849C59.5066 53.7148 59.7248 53.7148 59.8583 53.849L61.5908 55.5937C61.7241 55.7279 61.9423 55.7279 62.0757 55.5937L62.9 54.7636C63.0334 54.6294 63.0334 54.4096 62.9 54.2754L61.1674 52.5308C61.0341 52.3966 61.0341 52.1769 61.1674 52.0426L62.6709 50.5286C62.8043 50.3945 62.7686 50.2311 62.5915 50.1656L54.8806 47.3138Z" fill="#293D7C"/>
</g>
<defs>
<clipPath id="clip0_65_23">
<rect width="55" height="53" fill="white" transform="translate(8 9)"/>
</clipPath>
</defs>
</svg>
