<svg width="50" height="50" viewBox="0 0 50 50" fill="none" xmlns="http://www.w3.org/2000/svg">
<rect width="50" height="50" rx="25" fill="#FAAD1B"/>
<g clip-path="url(#clip0_60_15)">
<path d="M35.4375 27.6735V32.4313C35.4375 34.1594 34.4203 35.7016 32.8453 36.4235C30.9312 37.2985 28.0328 38.25 24.5 38.25C20.9672 38.25 18.0687 37.2985 16.1437 36.4235C14.5797 35.7016 13.5625 34.1594 13.5625 32.4313V27.6735L21.3391 31.2281C22.3344 31.6875 23.4062 31.9172 24.5 31.9172C25.5938 31.9172 26.6656 31.6875 27.6609 31.2281L35.4375 27.6735Z" fill="black"/>
<path d="M39.8125 25.6719V32.7812C39.8125 33.3828 39.3203 33.875 38.7188 33.875C38.1172 33.875 37.625 33.3828 37.625 32.7812V26.6781L39.8125 25.6719Z" fill="black"/>
<path d="M22.2447 29.2419C22.9611 29.5689 23.73 29.733 24.5 29.733C25.27 29.733 26.0378 29.57 26.7553 29.2419L40.7236 22.8566C41.5111 22.4968 42 21.7344 42 20.8671C42 19.9997 41.5111 19.2363 40.7236 18.8764L26.7553 12.4922C25.3214 11.8371 23.6797 11.8371 22.2458 12.4922L8.27641 18.8753C7.48891 19.2363 7 19.9986 7 20.866C7 21.7333 7.48891 22.4957 8.27641 22.8566L22.2447 29.2419Z" fill="black"/>
</g>
<defs>
<clipPath id="clip0_60_15">
<rect width="35" height="26.25" fill="white" transform="translate(7 12)"/>
</clipPath>
</defs>
</svg>
