<svg width="70" height="70" viewBox="0 0 70 70" fill="none" xmlns="http://www.w3.org/2000/svg">
<rect width="70" height="70" rx="35" fill="#FEFEFE"/>
<g clip-path="url(#clip0_65_23)">
<path d="M36.0039 47.2792H33.9961C33.8148 47.2792 33.6409 47.3512 33.5127 47.4794C33.3845 47.6076 33.3125 47.7815 33.3125 47.9628C33.3125 48.1441 33.3845 48.318 33.5127 48.4462C33.6409 48.5744 33.8148 48.6464 33.9961 48.6464H36.0039C36.1852 48.6464 36.3591 48.5744 36.4873 48.4462C36.6155 48.318 36.6875 48.1441 36.6875 47.9628C36.6875 47.7815 36.6155 47.6076 36.4873 47.4794C36.3591 47.3512 36.1852 47.2792 36.0039 47.2792ZM18.9551 24.6366C18.5707 24.6366 18.195 24.7506 17.8754 24.9641C17.5558 25.1777 17.3067 25.4812 17.1596 25.8363C17.0126 26.1914 16.9741 26.5821 17.0491 26.9591C17.124 27.3361 17.3091 27.6824 17.5809 27.9541C17.8527 28.2259 18.199 28.411 18.5759 28.486C18.9529 28.561 19.3437 28.5225 19.6988 28.3754C20.0539 28.2283 20.3574 27.9792 20.5709 27.6597C20.7845 27.3401 20.8984 26.9643 20.8984 26.58C20.8979 26.0647 20.693 25.5707 20.3287 25.2064C19.9643 24.8421 19.4703 24.6371 18.9551 24.6366ZM18.9551 27.1552C18.841 27.1554 18.7295 27.1217 18.6346 27.0585C18.5397 26.9952 18.4657 26.9053 18.422 26.8C18.3782 26.6946 18.3668 26.5787 18.389 26.4668C18.4112 26.355 18.466 26.2522 18.5467 26.1716C18.6273 26.091 18.7301 26.0361 18.8419 26.0139C18.9538 25.9917 19.0697 26.0032 19.175 26.0469C19.2804 26.0906 19.3703 26.1646 19.4336 26.2595C19.4968 26.3544 19.5305 26.4659 19.5303 26.58C19.53 26.7325 19.4693 26.8786 19.3615 26.9864C19.2537 27.0942 19.1075 27.1549 18.9551 27.1552ZM18.9551 24.6366C18.5707 24.6366 18.195 24.7506 17.8754 24.9641C17.5558 25.1777 17.3067 25.4812 17.1596 25.8363C17.0126 26.1914 16.9741 26.5821 17.0491 26.9591C17.124 27.3361 17.3091 27.6824 17.5809 27.9541C17.8527 28.2259 18.199 28.411 18.5759 28.486C18.9529 28.561 19.3437 28.5225 19.6988 28.3754C20.0539 28.2283 20.3574 27.9792 20.5709 27.6597C20.7845 27.3401 20.8984 26.9643 20.8984 26.58C20.8979 26.0647 20.693 25.5707 20.3287 25.2064C19.9643 24.8421 19.4703 24.6371 18.9551 24.6366ZM18.9551 27.1552C18.841 27.1554 18.7295 27.1217 18.6346 27.0585C18.5397 26.9952 18.4657 26.9053 18.422 26.8C18.3782 26.6946 18.3668 26.5787 18.389 26.4668C18.4112 26.355 18.466 26.2522 18.5467 26.1716C18.6273 26.091 18.7301 26.0361 18.8419 26.0139C18.9538 25.9917 19.0697 26.0032 19.175 26.0469C19.2804 26.0906 19.3703 26.1646 19.4336 26.2595C19.4968 26.3544 19.5305 26.4659 19.5303 26.58C19.53 26.7325 19.4693 26.8786 19.3615 26.9864C19.2537 27.0942 19.1075 27.1549 18.9551 27.1552ZM18.9551 24.6366C18.5707 24.6366 18.195 24.7506 17.8754 24.9641C17.5558 25.1777 17.3067 25.4812 17.1596 25.8363C17.0126 26.1914 16.9741 26.5821 17.0491 26.9591C17.124 27.3361 17.3091 27.6824 17.5809 27.9541C17.8527 28.2259 18.199 28.411 18.5759 28.486C18.9529 28.561 19.3437 28.5225 19.6988 28.3754C20.0539 28.2283 20.3574 27.9792 20.5709 27.6597C20.7845 27.3401 20.8984 26.9643 20.8984 26.58C20.8979 26.0647 20.693 25.5707 20.3287 25.2064C19.9643 24.8421 19.4703 24.6371 18.9551 24.6366ZM18.9551 27.1552C18.841 27.1554 18.7295 27.1217 18.6346 27.0585C18.5397 26.9952 18.4657 26.9053 18.422 26.8C18.3782 26.6946 18.3668 26.5787 18.389 26.4668C18.4112 26.355 18.466 26.2522 18.5467 26.1716C18.6273 26.091 18.7301 26.0361 18.8419 26.0139C18.9538 25.9917 19.0697 26.0032 19.175 26.0469C19.2804 26.0906 19.3703 26.1646 19.4336 26.2595C19.4968 26.3544 19.5305 26.4659 19.5303 26.58C19.53 26.7325 19.4693 26.8786 19.3615 26.9864C19.2537 27.0942 19.1075 27.1549 18.9551 27.1552ZM18.9551 24.6366C18.5707 24.6366 18.195 24.7506 17.8754 24.9641C17.5558 25.1777 17.3067 25.4812 17.1596 25.8363C17.0126 26.1914 16.9741 26.5821 17.0491 26.9591C17.124 27.3361 17.3091 27.6824 17.5809 27.9541C17.8527 28.2259 18.199 28.411 18.5759 28.486C18.9529 28.561 19.3437 28.5225 19.6988 28.3754C20.0539 28.2283 20.3574 27.9792 20.5709 27.6597C20.7845 27.3401 20.8984 26.9643 20.8984 26.58C20.8979 26.0647 20.693 25.5707 20.3287 25.2064C19.9643 24.8421 19.4703 24.6371 18.9551 24.6366ZM18.9551 27.1552C18.841 27.1554 18.7295 27.1217 18.6346 27.0585C18.5397 26.9952 18.4657 26.9053 18.422 26.8C18.3782 26.6946 18.3668 26.5787 18.389 26.4668C18.4112 26.355 18.466 26.2522 18.5467 26.1716C18.6273 26.091 18.7301 26.0361 18.8419 26.0139C18.9538 25.9917 19.0697 26.0032 19.175 26.0469C19.2804 26.0906 19.3703 26.1646 19.4336 26.2595C19.4968 26.3544 19.5305 26.4659 19.5303 26.58C19.53 26.7325 19.4693 26.8786 19.3615 26.9864C19.2537 27.0942 19.1075 27.1549 18.9551 27.1552ZM34.0127 21.6054H14.457C14.3672 21.6052 14.2782 21.6228 14.1951 21.6571C14.1121 21.6914 14.0366 21.7418 13.973 21.8053C13.9094 21.8687 13.859 21.9441 13.8246 22.0271C13.7902 22.1101 13.7725 22.1991 13.7725 22.289V41.3144C13.7727 41.4958 13.845 41.6696 13.9733 41.7978C14.1017 41.926 14.2756 41.998 14.457 41.998H34.0127C34.1941 41.998 34.3681 41.926 34.4964 41.7978C34.6248 41.6696 34.697 41.4958 34.6973 41.3144V22.289C34.6973 22.1991 34.6796 22.1101 34.6451 22.0271C34.6107 21.9441 34.5603 21.8687 34.4967 21.8053C34.4331 21.7418 34.3576 21.6914 34.2746 21.6571C34.1915 21.6228 34.1025 21.6052 34.0127 21.6054ZM15.1406 40.6298V36.8925L18.8086 32.8603C18.864 32.7987 18.9317 32.7495 19.0074 32.7158C19.0831 32.6822 19.165 32.6648 19.2478 32.6649C19.3306 32.665 19.4125 32.6826 19.488 32.7164C19.5636 32.7502 19.6313 32.7996 19.6865 32.8612L21.9922 35.3954C21.9932 35.3972 21.9946 35.3989 21.9961 35.4003L26.7539 40.6298H15.1406ZM33.3291 40.6298H28.6025L23.4277 34.9423L27.0527 30.9569C27.1082 30.8957 27.1759 30.8468 27.2514 30.8134C27.3269 30.7799 27.4086 30.7626 27.4912 30.7626C27.5738 30.7626 27.6555 30.7799 27.731 30.8134C27.8065 30.8468 27.8742 30.8957 27.9297 30.9569L33.3291 36.8896V40.6298ZM33.3291 34.8573L28.9414 30.036C28.7577 29.8342 28.5338 29.673 28.2842 29.5627C28.0345 29.4524 27.7646 29.3954 27.4917 29.3954C27.2188 29.3954 26.9489 29.4524 26.6992 29.5627C26.4496 29.673 26.2257 29.8342 26.042 30.036L22.5039 33.9257L20.6992 31.9413C20.5156 31.7387 20.2915 31.5768 20.0416 31.466C19.7916 31.3552 19.5212 31.2979 19.2478 31.2978C18.9743 31.2977 18.7039 31.3548 18.4539 31.4655C18.2038 31.5761 17.9797 31.7379 17.7959 31.9403L15.1406 34.8603V22.9726H33.3291V34.8573ZM18.9551 28.5224C19.3395 28.5224 19.7152 28.4084 20.0349 28.1948C20.3545 27.9812 20.6035 27.6776 20.7506 27.3225C20.8977 26.9673 20.9361 26.5765 20.861 26.1995C20.786 25.8225 20.6008 25.4762 20.3289 25.2045C20.057 24.9328 19.7106 24.7477 19.3336 24.6729C18.9566 24.598 18.5658 24.6366 18.2107 24.7839C17.8556 24.9311 17.5522 25.1803 17.3388 25.5C17.1253 25.8198 17.0115 26.1956 17.0117 26.58C17.0124 27.0951 17.2175 27.5889 17.5818 27.953C17.9461 28.3171 18.44 28.5219 18.9551 28.5224ZM18.9551 26.0038C19.069 26.0038 19.1804 26.0376 19.2752 26.1009C19.3699 26.1642 19.4438 26.2542 19.4874 26.3595C19.531 26.4648 19.5424 26.5806 19.5202 26.6924C19.4979 26.8042 19.4431 26.9068 19.3625 26.9874C19.2819 27.068 19.1793 27.1229 19.0675 27.1451C18.9557 27.1673 18.8399 27.1559 18.7346 27.1123C18.6293 27.0687 18.5393 26.9948 18.476 26.9001C18.4127 26.8053 18.3789 26.6939 18.3789 26.58C18.3789 26.5043 18.3938 26.4294 18.4228 26.3595C18.4517 26.2896 18.4942 26.2261 18.5477 26.1726C18.6012 26.1191 18.6647 26.0766 18.7346 26.0477C18.8045 26.0187 18.8794 26.0038 18.9551 26.0038ZM18.9551 24.6366C18.5707 24.6366 18.195 24.7506 17.8754 24.9641C17.5558 25.1777 17.3067 25.4812 17.1596 25.8363C17.0126 26.1914 16.9741 26.5821 17.0491 26.9591C17.124 27.3361 17.3091 27.6824 17.5809 27.9541C17.8527 28.2259 18.199 28.411 18.5759 28.486C18.9529 28.561 19.3437 28.5225 19.6988 28.3754C20.0539 28.2283 20.3574 27.9792 20.5709 27.6597C20.7845 27.3401 20.8984 26.9643 20.8984 26.58C20.8979 26.0647 20.693 25.5707 20.3287 25.2064C19.9643 24.8421 19.4703 24.6371 18.9551 24.6366ZM18.9551 27.1552C18.841 27.1554 18.7295 27.1217 18.6346 27.0585C18.5397 26.9952 18.4657 26.9053 18.422 26.8C18.3782 26.6946 18.3668 26.5787 18.389 26.4668C18.4112 26.355 18.466 26.2522 18.5467 26.1716C18.6273 26.091 18.7301 26.0361 18.8419 26.0139C18.9538 25.9917 19.0697 26.0032 19.175 26.0469C19.2804 26.0906 19.3703 26.1646 19.4336 26.2595C19.4968 26.3544 19.5305 26.4659 19.5303 26.58C19.53 26.7325 19.4693 26.8786 19.3615 26.9864C19.2537 27.0942 19.1075 27.1549 18.9551 27.1552ZM18.9551 24.6366C18.5707 24.6366 18.195 24.7506 17.8754 24.9641C17.5558 25.1777 17.3067 25.4812 17.1596 25.8363C17.0126 26.1914 16.9741 26.5821 17.0491 26.9591C17.124 27.3361 17.3091 27.6824 17.5809 27.9541C17.8527 28.2259 18.199 28.411 18.5759 28.486C18.9529 28.561 19.3437 28.5225 19.6988 28.3754C20.0539 28.2283 20.3574 27.9792 20.5709 27.6597C20.7845 27.3401 20.8984 26.9643 20.8984 26.58C20.8979 26.0647 20.693 25.5707 20.3287 25.2064C19.9643 24.8421 19.4703 24.6371 18.9551 24.6366ZM18.9551 27.1552C18.841 27.1554 18.7295 27.1217 18.6346 27.0585C18.5397 26.9952 18.4657 26.9053 18.422 26.8C18.3782 26.6946 18.3668 26.5787 18.389 26.4668C18.4112 26.355 18.466 26.2522 18.5467 26.1716C18.6273 26.091 18.7301 26.0361 18.8419 26.0139C18.9538 25.9917 19.0697 26.0032 19.175 26.0469C19.2804 26.0906 19.3703 26.1646 19.4336 26.2595C19.4968 26.3544 19.5305 26.4659 19.5303 26.58C19.53 26.7325 19.4693 26.8786 19.3615 26.9864C19.2537 27.0942 19.1075 27.1549 18.9551 27.1552ZM36.0039 47.2792H33.9961C33.8148 47.2792 33.6409 47.3512 33.5127 47.4794C33.3845 47.6076 33.3125 47.7815 33.3125 47.9628C33.3125 48.1441 33.3845 48.318 33.5127 48.4462C33.6409 48.5744 33.8148 48.6464 33.9961 48.6464H36.0039C36.1852 48.6464 36.3591 48.5744 36.4873 48.4462C36.6155 48.318 36.6875 48.1441 36.6875 47.9628C36.6875 47.7815 36.6155 47.6076 36.4873 47.4794C36.3591 47.3512 36.1852 47.2792 36.0039 47.2792ZM18.9551 24.6366C18.5707 24.6366 18.195 24.7506 17.8754 24.9641C17.5558 25.1777 17.3067 25.4812 17.1596 25.8363C17.0126 26.1914 16.9741 26.5821 17.0491 26.9591C17.124 27.3361 17.3091 27.6824 17.5809 27.9541C17.8527 28.2259 18.199 28.411 18.5759 28.486C18.9529 28.561 19.3437 28.5225 19.6988 28.3754C20.0539 28.2283 20.3574 27.9792 20.5709 27.6597C20.7845 27.3401 20.8984 26.9643 20.8984 26.58C20.8979 26.0647 20.693 25.5707 20.3287 25.2064C19.9643 24.8421 19.4703 24.6371 18.9551 24.6366ZM18.9551 27.1552C18.841 27.1554 18.7295 27.1217 18.6346 27.0585C18.5397 26.9952 18.4657 26.9053 18.422 26.8C18.3782 26.6946 18.3668 26.5787 18.389 26.4668C18.4112 26.355 18.466 26.2522 18.5467 26.1716C18.6273 26.091 18.7301 26.0361 18.8419 26.0139C18.9538 25.9917 19.0697 26.0032 19.175 26.0469C19.2804 26.0906 19.3703 26.1646 19.4336 26.2595C19.4968 26.3544 19.5305 26.4659 19.5303 26.58C19.53 26.7325 19.4693 26.8786 19.3615 26.9864C19.2537 27.0942 19.1075 27.1549 18.9551 27.1552ZM18.9551 24.6366C18.5707 24.6366 18.195 24.7506 17.8754 24.9641C17.5558 25.1777 17.3067 25.4812 17.1596 25.8363C17.0126 26.1914 16.9741 26.5821 17.0491 26.9591C17.124 27.3361 17.3091 27.6824 17.5809 27.9541C17.8527 28.2259 18.199 28.411 18.5759 28.486C18.9529 28.561 19.3437 28.5225 19.6988 28.3754C20.0539 28.2283 20.3574 27.9792 20.5709 27.6597C20.7845 27.3401 20.8984 26.9643 20.8984 26.58C20.8979 26.0647 20.693 25.5707 20.3287 25.2064C19.9643 24.8421 19.4703 24.6371 18.9551 24.6366ZM18.9551 27.1552C18.841 27.1554 18.7295 27.1217 18.6346 27.0585C18.5397 26.9952 18.4657 26.9053 18.422 26.8C18.3782 26.6946 18.3668 26.5787 18.389 26.4668C18.4112 26.355 18.466 26.2522 18.5467 26.1716C18.6273 26.091 18.7301 26.0361 18.8419 26.0139C18.9538 25.9917 19.0697 26.0032 19.175 26.0469C19.2804 26.0906 19.3703 26.1646 19.4336 26.2595C19.4968 26.3544 19.5305 26.4659 19.5303 26.58C19.53 26.7325 19.4693 26.8786 19.3615 26.9864C19.2537 27.0942 19.1075 27.1549 18.9551 27.1552ZM34.0127 21.6054H14.457C14.3672 21.6052 14.2782 21.6228 14.1951 21.6571C14.1121 21.6914 14.0366 21.7418 13.973 21.8053C13.9094 21.8687 13.859 21.9441 13.8246 22.0271C13.7902 22.1101 13.7725 22.1991 13.7725 22.289V41.3144C13.7727 41.4958 13.845 41.6696 13.9733 41.7978C14.1017 41.926 14.2756 41.998 14.457 41.998H34.0127C34.1941 41.998 34.3681 41.926 34.4964 41.7978C34.6248 41.6696 34.697 41.4958 34.6973 41.3144V22.289C34.6973 22.1991 34.6796 22.1101 34.6451 22.0271C34.6107 21.9441 34.5603 21.8687 34.4967 21.8053C34.4331 21.7418 34.3576 21.6914 34.2746 21.6571C34.1915 21.6228 34.1025 21.6052 34.0127 21.6054ZM15.1406 40.6298V36.8925L18.8086 32.8603C18.864 32.7987 18.9317 32.7495 19.0074 32.7158C19.0831 32.6822 19.165 32.6648 19.2478 32.6649C19.3306 32.665 19.4125 32.6826 19.488 32.7164C19.5636 32.7502 19.6313 32.7996 19.6865 32.8612L21.9922 35.3954C21.9932 35.3972 21.9946 35.3989 21.9961 35.4003L26.7539 40.6298H15.1406ZM33.3291 40.6298H28.6025L23.4277 34.9423L27.0527 30.9569C27.1082 30.8957 27.1759 30.8468 27.2514 30.8134C27.3269 30.7799 27.4086 30.7626 27.4912 30.7626C27.5738 30.7626 27.6555 30.7799 27.731 30.8134C27.8065 30.8468 27.8742 30.8957 27.9297 30.9569L33.3291 36.8896V40.6298ZM33.3291 34.8573L28.9414 30.036C28.7577 29.8342 28.5338 29.673 28.2842 29.5627C28.0345 29.4524 27.7646 29.3954 27.4917 29.3954C27.2188 29.3954 26.9489 29.4524 26.6992 29.5627C26.4496 29.673 26.2257 29.8342 26.042 30.036L22.5039 33.9257L20.6992 31.9413C20.5156 31.7387 20.2915 31.5768 20.0416 31.466C19.7916 31.3552 19.5212 31.2979 19.2478 31.2978C18.9743 31.2977 18.7039 31.3548 18.4539 31.4655C18.2038 31.5761 17.9797 31.7379 17.7959 31.9403L15.1406 34.8603V22.9726H33.3291V34.8573ZM18.9551 28.5224C19.3395 28.5224 19.7152 28.4084 20.0349 28.1948C20.3545 27.9812 20.6035 27.6776 20.7506 27.3225C20.8977 26.9673 20.9361 26.5765 20.861 26.1995C20.786 25.8225 20.6008 25.4762 20.3289 25.2045C20.057 24.9328 19.7106 24.7477 19.3336 24.6729C18.9566 24.598 18.5658 24.6366 18.2107 24.7839C17.8556 24.9311 17.5522 25.1803 17.3388 25.5C17.1253 25.8198 17.0115 26.1956 17.0117 26.58C17.0124 27.0951 17.2175 27.5889 17.5818 27.953C17.9461 28.3171 18.44 28.5219 18.9551 28.5224ZM18.9551 26.0038C19.069 26.0038 19.1804 26.0376 19.2752 26.1009C19.3699 26.1642 19.4438 26.2542 19.4874 26.3595C19.531 26.4648 19.5424 26.5806 19.5202 26.6924C19.4979 26.8042 19.4431 26.9068 19.3625 26.9874C19.2819 27.068 19.1793 27.1229 19.0675 27.1451C18.9557 27.1673 18.8399 27.1559 18.7346 27.1123C18.6293 27.0687 18.5393 26.9948 18.476 26.9001C18.4127 26.8053 18.3789 26.6939 18.3789 26.58C18.3789 26.5043 18.3938 26.4294 18.4228 26.3595C18.4517 26.2896 18.4942 26.2261 18.5477 26.1726C18.6012 26.1191 18.6647 26.0766 18.7346 26.0477C18.8045 26.0187 18.8794 26.0038 18.9551 26.0038ZM18.9551 24.6366C18.5707 24.6366 18.195 24.7506 17.8754 24.9641C17.5558 25.1777 17.3067 25.4812 17.1596 25.8363C17.0126 26.1914 16.9741 26.5821 17.0491 26.9591C17.124 27.3361 17.3091 27.6824 17.5809 27.9541C17.8527 28.2259 18.199 28.411 18.5759 28.486C18.9529 28.561 19.3437 28.5225 19.6988 28.3754C20.0539 28.2283 20.3574 27.9792 20.5709 27.6597C20.7845 27.3401 20.8984 26.9643 20.8984 26.58C20.8979 26.0647 20.693 25.5707 20.3287 25.2064C19.9643 24.8421 19.4703 24.6371 18.9551 24.6366ZM18.9551 27.1552C18.841 27.1554 18.7295 27.1217 18.6346 27.0585C18.5397 26.9952 18.4657 26.9053 18.422 26.8C18.3782 26.6946 18.3668 26.5787 18.389 26.4668C18.4112 26.355 18.466 26.2522 18.5467 26.1716C18.6273 26.091 18.7301 26.0361 18.8419 26.0139C18.9538 25.9917 19.0697 26.0032 19.175 26.0469C19.2804 26.0906 19.3703 26.1646 19.4336 26.2595C19.4968 26.3544 19.5305 26.4659 19.5303 26.58C19.53 26.7325 19.4693 26.8786 19.3615 26.9864C19.2537 27.0942 19.1075 27.1549 18.9551 27.1552ZM18.9551 24.6366C18.5707 24.6366 18.195 24.7506 17.8754 24.9641C17.5558 25.1777 17.3067 25.4812 17.1596 25.8363C17.0126 26.1914 16.9741 26.5821 17.0491 26.9591C17.124 27.3361 17.3091 27.6824 17.5809 27.9541C17.8527 28.2259 18.199 28.411 18.5759 28.486C18.9529 28.561 19.3437 28.5225 19.6988 28.3754C20.0539 28.2283 20.3574 27.9792 20.5709 27.6597C20.7845 27.3401 20.8984 26.9643 20.8984 26.58C20.8979 26.0647 20.693 25.5707 20.3287 25.2064C19.9643 24.8421 19.4703 24.6371 18.9551 24.6366ZM18.9551 27.1552C18.841 27.1554 18.7295 27.1217 18.6346 27.0585C18.5397 26.9952 18.4657 26.9053 18.422 26.8C18.3782 26.6946 18.3668 26.5787 18.389 26.4668C18.4112 26.355 18.466 26.2522 18.5467 26.1716C18.6273 26.091 18.7301 26.0361 18.8419 26.0139C18.9538 25.9917 19.0697 26.0032 19.175 26.0469C19.2804 26.0906 19.3703 26.1646 19.4336 26.2595C19.4968 26.3544 19.5305 26.4659 19.5303 26.58C19.53 26.7325 19.4693 26.8786 19.3615 26.9864C19.2537 27.0942 19.1075 27.1549 18.9551 27.1552ZM36.0039 47.2792H33.9961C33.8148 47.2792 33.6409 47.3512 33.5127 47.4794C33.3845 47.6076 33.3125 47.7815 33.3125 47.9628C33.3125 48.1441 33.3845 48.318 33.5127 48.4462C33.6409 48.5744 33.8148 48.6464 33.9961 48.6464H36.0039C36.1852 48.6464 36.3591 48.5744 36.4873 48.4462C36.6155 48.318 36.6875 48.1441 36.6875 47.9628C36.6875 47.7815 36.6155 47.6076 36.4873 47.4794C36.3591 47.3512 36.1852 47.2792 36.0039 47.2792ZM18.9551 24.6366C18.5707 24.6366 18.195 24.7506 17.8754 24.9641C17.5558 25.1777 17.3067 25.4812 17.1596 25.8363C17.0126 26.1914 16.9741 26.5821 17.0491 26.9591C17.124 27.3361 17.3091 27.6824 17.5809 27.9541C17.8527 28.2259 18.199 28.411 18.5759 28.486C18.9529 28.561 19.3437 28.5225 19.6988 28.3754C20.0539 28.2283 20.3574 27.9792 20.5709 27.6597C20.7845 27.3401 20.8984 26.9643 20.8984 26.58C20.8979 26.0647 20.693 25.5707 20.3287 25.2064C19.9643 24.8421 19.4703 24.6371 18.9551 24.6366ZM18.9551 27.1552C18.841 27.1554 18.7295 27.1217 18.6346 27.0585C18.5397 26.9952 18.4657 26.9053 18.422 26.8C18.3782 26.6946 18.3668 26.5787 18.389 26.4668C18.4112 26.355 18.466 26.2522 18.5467 26.1716C18.6273 26.091 18.7301 26.0361 18.8419 26.0139C18.9538 25.9917 19.0697 26.0032 19.175 26.0469C19.2804 26.0906 19.3703 26.1646 19.4336 26.2595C19.4968 26.3544 19.5305 26.4659 19.5303 26.58C19.53 26.7325 19.4693 26.8786 19.3615 26.9864C19.2537 27.0942 19.1075 27.1549 18.9551 27.1552ZM18.9551 24.6366C18.5707 24.6366 18.195 24.7506 17.8754 24.9641C17.5558 25.1777 17.3067 25.4812 17.1596 25.8363C17.0126 26.1914 16.9741 26.5821 17.0491 26.9591C17.124 27.3361 17.3091 27.6824 17.5809 27.9541C17.8527 28.2259 18.199 28.411 18.5759 28.486C18.9529 28.561 19.3437 28.5225 19.6988 28.3754C20.0539 28.2283 20.3574 27.9792 20.5709 27.6597C20.7845 27.3401 20.8984 26.9643 20.8984 26.58C20.8979 26.0647 20.693 25.5707 20.3287 25.2064C19.9643 24.8421 19.4703 24.6371 18.9551 24.6366ZM18.9551 27.1552C18.841 27.1554 18.7295 27.1217 18.6346 27.0585C18.5397 26.9952 18.4657 26.9053 18.422 26.8C18.3782 26.6946 18.3668 26.5787 18.389 26.4668C18.4112 26.355 18.466 26.2522 18.5467 26.1716C18.6273 26.091 18.7301 26.0361 18.8419 26.0139C18.9538 25.9917 19.0697 26.0032 19.175 26.0469C19.2804 26.0906 19.3703 26.1646 19.4336 26.2595C19.4968 26.3544 19.5305 26.4659 19.5303 26.58C19.53 26.7325 19.4693 26.8786 19.3615 26.9864C19.2537 27.0942 19.1075 27.1549 18.9551 27.1552ZM34.0127 21.6054H14.457C14.3672 21.6052 14.2782 21.6228 14.1951 21.6571C14.1121 21.6914 14.0366 21.7418 13.973 21.8053C13.9094 21.8687 13.859 21.9441 13.8246 22.0271C13.7902 22.1101 13.7725 22.1991 13.7725 22.289V41.3144C13.7727 41.4958 13.845 41.6696 13.9733 41.7978C14.1017 41.926 14.2756 41.998 14.457 41.998H34.0127C34.1941 41.998 34.3681 41.926 34.4964 41.7978C34.6248 41.6696 34.697 41.4958 34.6973 41.3144V22.289C34.6973 22.1991 34.6796 22.1101 34.6451 22.0271C34.6107 21.9441 34.5603 21.8687 34.4967 21.8053C34.4331 21.7418 34.3576 21.6914 34.2746 21.6571C34.1915 21.6228 34.1025 21.6052 34.0127 21.6054ZM15.1406 40.6298V36.8925L18.8086 32.8603C18.864 32.7987 18.9317 32.7495 19.0074 32.7158C19.0831 32.6822 19.165 32.6648 19.2478 32.6649C19.3306 32.665 19.4125 32.6826 19.488 32.7164C19.5636 32.7502 19.6313 32.7996 19.6865 32.8612L21.9922 35.3954C21.9932 35.3972 21.9946 35.3989 21.9961 35.4003L26.7539 40.6298H15.1406ZM33.3291 40.6298H28.6025L23.4277 34.9423L27.0527 30.9569C27.1082 30.8957 27.1759 30.8468 27.2514 30.8134C27.3269 30.7799 27.4086 30.7626 27.4912 30.7626C27.5738 30.7626 27.6555 30.7799 27.731 30.8134C27.8065 30.8468 27.8742 30.8957 27.9297 30.9569L33.3291 36.8896V40.6298ZM33.3291 34.8573L28.9414 30.036C28.7577 29.8342 28.5338 29.673 28.2842 29.5627C28.0345 29.4524 27.7646 29.3954 27.4917 29.3954C27.2188 29.3954 26.9489 29.4524 26.6992 29.5627C26.4496 29.673 26.2257 29.8342 26.042 30.036L22.5039 33.9257L20.6992 31.9413C20.5156 31.7387 20.2915 31.5768 20.0416 31.466C19.7916 31.3552 19.5212 31.2979 19.2478 31.2978C18.9743 31.2977 18.7039 31.3548 18.4539 31.4655C18.2038 31.5761 17.9797 31.7379 17.7959 31.9403L15.1406 34.8603V22.9726H33.3291V34.8573ZM18.9551 28.5224C19.3395 28.5224 19.7152 28.4084 20.0349 28.1948C20.3545 27.9812 20.6035 27.6776 20.7506 27.3225C20.8977 26.9673 20.9361 26.5765 20.861 26.1995C20.786 25.8225 20.6008 25.4762 20.3289 25.2045C20.057 24.9328 19.7106 24.7477 19.3336 24.6729C18.9566 24.598 18.5658 24.6366 18.2107 24.7839C17.8556 24.9311 17.5522 25.1803 17.3388 25.5C17.1253 25.8198 17.0115 26.1956 17.0117 26.58C17.0124 27.0951 17.2175 27.5889 17.5818 27.953C17.9461 28.3171 18.44 28.5219 18.9551 28.5224ZM18.9551 26.0038C19.069 26.0038 19.1804 26.0376 19.2752 26.1009C19.3699 26.1642 19.4438 26.2542 19.4874 26.3595C19.531 26.4648 19.5424 26.5806 19.5202 26.6924C19.4979 26.8042 19.4431 26.9068 19.3625 26.9874C19.2819 27.068 19.1793 27.1229 19.0675 27.1451C18.9557 27.1673 18.8399 27.1559 18.7346 27.1123C18.6293 27.0687 18.5393 26.9948 18.476 26.9001C18.4127 26.8053 18.3789 26.6939 18.3789 26.58C18.3789 26.5043 18.3938 26.4294 18.4228 26.3595C18.4517 26.2896 18.4942 26.2261 18.5477 26.1726C18.6012 26.1191 18.6647 26.0766 18.7346 26.0477C18.8045 26.0187 18.8794 26.0038 18.9551 26.0038ZM36.0039 47.2792H33.9961C33.8148 47.2792 33.6409 47.3512 33.5127 47.4794C33.3845 47.6076 33.3125 47.7815 33.3125 47.9628C33.3125 48.1441 33.3845 48.318 33.5127 48.4462C33.6409 48.5744 33.8148 48.6464 33.9961 48.6464H36.0039C36.1852 48.6464 36.3591 48.5744 36.4873 48.4462C36.6155 48.318 36.6875 48.1441 36.6875 47.9628C36.6875 47.7815 36.6155 47.6076 36.4873 47.4794C36.3591 47.3512 36.1852 47.2792 36.0039 47.2792ZM34.0127 21.6054H14.457C14.3672 21.6052 14.2782 21.6228 14.1951 21.6571C14.1121 21.6914 14.0366 21.7418 13.973 21.8053C13.9094 21.8687 13.859 21.9441 13.8246 22.0271C13.7902 22.1101 13.7725 22.1991 13.7725 22.289V41.3144C13.7727 41.4958 13.845 41.6696 13.9733 41.7978C14.1017 41.926 14.2756 41.998 14.457 41.998H34.0127C34.1941 41.998 34.3681 41.926 34.4964 41.7978C34.6248 41.6696 34.697 41.4958 34.6973 41.3144V22.289C34.6973 22.1991 34.6796 22.1101 34.6451 22.0271C34.6107 21.9441 34.5603 21.8687 34.4967 21.8053C34.4331 21.7418 34.3576 21.6914 34.2746 21.6571C34.1915 21.6228 34.1025 21.6052 34.0127 21.6054ZM15.1406 40.6298V36.8925L18.8086 32.8603C18.864 32.7987 18.9317 32.7495 19.0074 32.7158C19.0831 32.6822 19.165 32.6648 19.2478 32.6649C19.3306 32.665 19.4125 32.6826 19.488 32.7164C19.5636 32.7502 19.6313 32.7996 19.6865 32.8612L21.9922 35.3954C21.9932 35.3972 21.9946 35.3989 21.9961 35.4003L26.7539 40.6298H15.1406ZM33.3291 40.6298H28.6025L23.4277 34.9423L27.0527 30.9569C27.1082 30.8957 27.1759 30.8468 27.2514 30.8134C27.3269 30.7799 27.4086 30.7626 27.4912 30.7626C27.5738 30.7626 27.6555 30.7799 27.731 30.8134C27.8065 30.8468 27.8742 30.8957 27.9297 30.9569L33.3291 36.8896V40.6298ZM33.3291 34.8573L28.9414 30.036C28.7577 29.8342 28.5338 29.673 28.2842 29.5627C28.0345 29.4524 27.7646 29.3954 27.4917 29.3954C27.2188 29.3954 26.9489 29.4524 26.6992 29.5627C26.4496 29.673 26.2257 29.8342 26.042 30.036L22.5039 33.9257L20.6992 31.9413C20.5156 31.7387 20.2915 31.5768 20.0416 31.466C19.7916 31.3552 19.5212 31.2979 19.2478 31.2978C18.9743 31.2977 18.7039 31.3548 18.4539 31.4655C18.2038 31.5761 17.9797 31.7379 17.7959 31.9403L15.1406 34.8603V22.9726H33.3291V34.8573ZM18.9551 28.5224C19.3395 28.5224 19.7152 28.4084 20.0349 28.1948C20.3545 27.9812 20.6035 27.6776 20.7506 27.3225C20.8977 26.9673 20.9361 26.5765 20.861 26.1995C20.786 25.8225 20.6008 25.4762 20.3289 25.2045C20.057 24.9328 19.7106 24.7477 19.3336 24.6729C18.9566 24.598 18.5658 24.6366 18.2107 24.7839C17.8556 24.9311 17.5522 25.1803 17.3388 25.5C17.1253 25.8198 17.0115 26.1956 17.0117 26.58C17.0124 27.0951 17.2175 27.5889 17.5818 27.953C17.9461 28.3171 18.44 28.5219 18.9551 28.5224ZM18.9551 26.0038C19.069 26.0038 19.1804 26.0376 19.2752 26.1009C19.3699 26.1642 19.4438 26.2542 19.4874 26.3595C19.531 26.4648 19.5424 26.5806 19.5202 26.6924C19.4979 26.8042 19.4431 26.9068 19.3625 26.9874C19.2819 27.068 19.1793 27.1229 19.0675 27.1451C18.9557 27.1673 18.8399 27.1559 18.7346 27.1123C18.6293 27.0687 18.5393 26.9948 18.476 26.9001C18.4127 26.8053 18.3789 26.6939 18.3789 26.58C18.3789 26.5043 18.3938 26.4294 18.4228 26.3595C18.4517 26.2896 18.4942 26.2261 18.5477 26.1726C18.6012 26.1191 18.6647 26.0766 18.7346 26.0477C18.8045 26.0187 18.8794 26.0038 18.9551 26.0038ZM36.0039 47.2792H33.9961C33.8148 47.2792 33.6409 47.3512 33.5127 47.4794C33.3845 47.6076 33.3125 47.7815 33.3125 47.9628C33.3125 48.1441 33.3845 48.318 33.5127 48.4462C33.6409 48.5744 33.8148 48.6464 33.9961 48.6464H36.0039C36.1852 48.6464 36.3591 48.5744 36.4873 48.4462C36.6155 48.318 36.6875 48.1441 36.6875 47.9628C36.6875 47.7815 36.6155 47.6076 36.4873 47.4794C36.3591 47.3512 36.1852 47.2792 36.0039 47.2792ZM57.2676 17.4364H55.8379C56.625 15.5614 57.1553 14.1571 57.459 13.1464C57.7773 12.0829 58.0273 11.0087 57.292 10.5858C56.6406 10.2118 55.9307 10.7743 55.2588 11.4374C54.5996 12.0888 53.7324 13.1044 52.6084 14.5429C51.96 15.372 51.2305 16.3365 50.4199 17.4364H12.7295C12.0059 17.4373 11.3121 17.7252 10.8004 18.2369C10.2887 18.7485 10.0009 19.4423 10 20.1659V48.7548C10.0009 49.4784 10.2887 50.1722 10.8004 50.6839C11.3121 51.1956 12.0059 51.4834 12.7295 51.4843H29.7393V55.2372H28.9639C28.3944 55.2379 27.8484 55.4645 27.4458 55.8673C27.0432 56.2701 26.8168 56.8162 26.8164 57.3857V58.8495C26.8163 58.9394 26.8339 59.0284 26.8682 59.1114C26.9025 59.1945 26.9528 59.2699 27.0163 59.3335C27.0798 59.3971 27.1552 59.4475 27.2382 59.482C27.3212 59.5164 27.4101 59.5341 27.5 59.5341H42.5C42.5899 59.5341 42.6788 59.5164 42.7618 59.482C42.8448 59.4475 42.9202 59.3971 42.9837 59.3335C43.0472 59.2699 43.0975 59.1945 43.1318 59.1114C43.1661 59.0284 43.1837 58.9394 43.1836 58.8495V57.3857C43.183 56.8162 42.9566 56.2703 42.554 55.8675C42.1514 55.4648 41.6056 55.2381 41.0361 55.2372H40.2607V51.4843H57.2676C57.9916 51.4838 58.6859 51.1961 59.1981 50.6844C59.7103 50.1728 59.9987 49.4788 60 48.7548V20.1659C59.9987 19.4419 59.7103 18.748 59.1981 18.2363C58.6859 17.7246 57.9916 17.4369 57.2676 17.4364ZM51.291 18.5605C51.31 18.5383 51.3273 18.5148 51.3428 18.4901C51.9893 17.6093 52.585 16.8137 53.1299 16.1034C54.7637 13.9716 55.7168 12.8993 56.2666 12.3603C56.0459 13.1874 55.501 14.7606 54.2197 17.7499C54.2061 17.7802 54.1934 17.8124 54.1797 17.8427L54.1709 17.8632C53.0527 20.4667 51.5039 23.8622 49.2578 28.6317L45.6348 26.5399C47.8486 23.3417 49.7217 20.6991 51.291 18.5605ZM44.2012 28.619C44.4219 28.2978 44.64 27.981 44.8555 27.6689L48.6719 29.873L48.1787 30.9159L44.2012 28.619ZM47.8164 32.286C47.7793 33.3896 46.9219 35.3534 45.1934 36.6464C44.0127 37.5292 42.1006 38.3163 39.4189 37.4774C41.1006 36.0497 41.3633 34.2089 41.582 32.6825C41.8174 31.0312 42.0059 30.0946 43.1572 29.5956L47.8164 32.286ZM41.0361 56.6054C41.243 56.6056 41.4413 56.6879 41.5876 56.8342C41.7339 56.9805 41.8161 57.1788 41.8164 57.3857V58.1659H28.1836V57.3857C28.1839 57.1788 28.2661 56.9805 28.4124 56.8342C28.5587 56.6879 28.757 56.6056 28.9639 56.6054H41.0361ZM31.1064 55.2372V51.4843H38.8936V55.2372H31.1064ZM58.6328 48.7548C58.632 49.1163 58.4877 49.4626 58.2318 49.7178C57.9758 49.9731 57.629 50.1163 57.2676 50.1161H12.7295C12.3684 50.1159 12.0222 49.9724 11.7668 49.7172C11.5114 49.462 11.3677 49.1159 11.3672 48.7548V45.8124H58.6328V48.7548ZM58.6328 44.4442H11.3672V20.1659C11.3677 19.8048 11.5113 19.4585 11.7667 19.2031C12.0221 18.9478 12.3683 18.8041 12.7295 18.8036H49.4209C47.9131 20.8847 46.1533 23.3817 44.1201 26.3271C44.0962 26.3555 44.0747 26.3859 44.0557 26.4179C44.0547 26.4189 44.0547 26.4208 44.0537 26.4228C43.6406 27.0217 43.2161 27.6383 42.7803 28.2724C40.7158 29.0751 40.457 30.8857 40.2285 32.4892C39.9775 34.2392 39.7412 35.8935 37.6328 37.0468C37.5215 37.1076 37.4293 37.1983 37.3665 37.3086C37.3038 37.4188 37.273 37.5444 37.2775 37.6712C37.2821 37.798 37.3218 37.921 37.3924 38.0265C37.4629 38.132 37.5613 38.2158 37.6768 38.2685C39.1621 38.9472 40.4834 39.2118 41.6416 39.2118C43.22 39.2139 44.7554 38.6975 46.0117 37.7421C48.1416 36.1493 49.2754 33.5927 49.1777 31.9999C49.5156 31.287 49.8398 30.6024 50.1523 29.9403C50.1523 29.9394 50.1533 29.9394 50.1533 29.9384C50.1714 29.9072 50.1867 29.8745 50.1992 29.8407C52.4824 25.0009 54.0957 21.4794 55.2539 18.8036H57.2676C57.6291 18.8036 57.9759 18.9471 58.2319 19.2025C58.4878 19.4579 58.632 19.8044 58.6328 20.1659V44.4442ZM33.9961 48.6464H36.0039C36.1852 48.6464 36.3591 48.5744 36.4873 48.4462C36.6155 48.318 36.6875 48.1441 36.6875 47.9628C36.6875 47.7815 36.6155 47.6076 36.4873 47.4794C36.3591 47.3512 36.1852 47.2792 36.0039 47.2792H33.9961C33.8148 47.2792 33.6409 47.3512 33.5127 47.4794C33.3845 47.6076 33.3125 47.7815 33.3125 47.9628C33.3125 48.1441 33.3845 48.318 33.5127 48.4462C33.6409 48.5744 33.8148 48.6464 33.9961 48.6464ZM34.0127 21.6054H14.457C14.3672 21.6052 14.2782 21.6228 14.1951 21.6571C14.1121 21.6914 14.0366 21.7418 13.973 21.8053C13.9094 21.8687 13.859 21.9441 13.8246 22.0271C13.7902 22.1101 13.7725 22.1991 13.7725 22.289V41.3144C13.7727 41.4958 13.845 41.6696 13.9733 41.7978C14.1017 41.926 14.2756 41.998 14.457 41.998H34.0127C34.1941 41.998 34.3681 41.926 34.4964 41.7978C34.6248 41.6696 34.697 41.4958 34.6973 41.3144V22.289C34.6973 22.1991 34.6796 22.1101 34.6451 22.0271C34.6107 21.9441 34.5603 21.8687 34.4967 21.8053C34.4331 21.7418 34.3576 21.6914 34.2746 21.6571C34.1915 21.6228 34.1025 21.6052 34.0127 21.6054ZM15.1406 40.6298V36.8925L18.8086 32.8603C18.864 32.7987 18.9317 32.7495 19.0074 32.7158C19.0831 32.6822 19.165 32.6648 19.2478 32.6649C19.3306 32.665 19.4125 32.6826 19.488 32.7164C19.5636 32.7502 19.6313 32.7996 19.6865 32.8612L21.9922 35.3954C21.9932 35.3972 21.9946 35.3989 21.9961 35.4003L26.7539 40.6298H15.1406ZM33.3291 40.6298H28.6025L23.4277 34.9423L27.0527 30.9569C27.1082 30.8957 27.1759 30.8468 27.2514 30.8134C27.3269 30.7799 27.4086 30.7626 27.4912 30.7626C27.5738 30.7626 27.6555 30.7799 27.731 30.8134C27.8065 30.8468 27.8742 30.8957 27.9297 30.9569L33.3291 36.8896V40.6298ZM33.3291 34.8573L28.9414 30.036C28.7577 29.8342 28.5338 29.673 28.2842 29.5627C28.0345 29.4524 27.7646 29.3954 27.4917 29.3954C27.2188 29.3954 26.9489 29.4524 26.6992 29.5627C26.4496 29.673 26.2257 29.8342 26.042 30.036L22.5039 33.9257L20.6992 31.9413C20.5156 31.7387 20.2915 31.5768 20.0416 31.466C19.7916 31.3552 19.5212 31.2979 19.2478 31.2978C18.9743 31.2977 18.7039 31.3548 18.4539 31.4655C18.2038 31.5761 17.9797 31.7379 17.7959 31.9403L15.1406 34.8603V22.9726H33.3291V34.8573ZM18.9551 28.5224C19.3395 28.5224 19.7152 28.4084 20.0349 28.1948C20.3545 27.9812 20.6035 27.6776 20.7506 27.3225C20.8977 26.9673 20.9361 26.5765 20.861 26.1995C20.786 25.8225 20.6008 25.4762 20.3289 25.2045C20.057 24.9328 19.7106 24.7477 19.3336 24.6729C18.9566 24.598 18.5658 24.6366 18.2107 24.7839C17.8556 24.9311 17.5522 25.1803 17.3388 25.5C17.1253 25.8198 17.0115 26.1956 17.0117 26.58C17.0124 27.0951 17.2175 27.5889 17.5818 27.953C17.9461 28.3171 18.44 28.5219 18.9551 28.5224ZM18.9551 26.0038C19.069 26.0038 19.1804 26.0376 19.2752 26.1009C19.3699 26.1642 19.4438 26.2542 19.4874 26.3595C19.531 26.4648 19.5424 26.5806 19.5202 26.6924C19.4979 26.8042 19.4431 26.9068 19.3625 26.9874C19.2819 27.068 19.1793 27.1229 19.0675 27.1451C18.9557 27.1673 18.8399 27.1559 18.7346 27.1123C18.6293 27.0687 18.5393 26.9948 18.476 26.9001C18.4127 26.8053 18.3789 26.6939 18.3789 26.58C18.3789 26.5043 18.3938 26.4294 18.4228 26.3595C18.4517 26.2896 18.4942 26.2261 18.5477 26.1726C18.6012 26.1191 18.6647 26.0766 18.7346 26.0477C18.8045 26.0187 18.8794 26.0038 18.9551 26.0038ZM36.0039 47.2792H33.9961C33.8148 47.2792 33.6409 47.3512 33.5127 47.4794C33.3845 47.6076 33.3125 47.7815 33.3125 47.9628C33.3125 48.1441 33.3845 48.318 33.5127 48.4462C33.6409 48.5744 33.8148 48.6464 33.9961 48.6464H36.0039C36.1852 48.6464 36.3591 48.5744 36.4873 48.4462C36.6155 48.318 36.6875 48.1441 36.6875 47.9628C36.6875 47.7815 36.6155 47.6076 36.4873 47.4794C36.3591 47.3512 36.1852 47.2792 36.0039 47.2792ZM18.9551 24.6366C18.5707 24.6366 18.195 24.7506 17.8754 24.9641C17.5558 25.1777 17.3067 25.4812 17.1596 25.8363C17.0126 26.1914 16.9741 26.5821 17.0491 26.9591C17.124 27.3361 17.3091 27.6824 17.5809 27.9541C17.8527 28.2259 18.199 28.411 18.5759 28.486C18.9529 28.561 19.3437 28.5225 19.6988 28.3754C20.0539 28.2283 20.3574 27.9792 20.5709 27.6597C20.7845 27.3401 20.8984 26.9643 20.8984 26.58C20.8979 26.0647 20.693 25.5707 20.3287 25.2064C19.9643 24.8421 19.4703 24.6371 18.9551 24.6366ZM18.9551 27.1552C18.841 27.1554 18.7295 27.1217 18.6346 27.0585C18.5397 26.9952 18.4657 26.9053 18.422 26.8C18.3782 26.6946 18.3668 26.5787 18.389 26.4668C18.4112 26.355 18.466 26.2522 18.5467 26.1716C18.6273 26.091 18.7301 26.0361 18.8419 26.0139C18.9538 25.9917 19.0697 26.0032 19.175 26.0469C19.2804 26.0906 19.3703 26.1646 19.4336 26.2595C19.4968 26.3544 19.5305 26.4659 19.5303 26.58C19.53 26.7325 19.4693 26.8786 19.3615 26.9864C19.2537 27.0942 19.1075 27.1549 18.9551 27.1552ZM18.9551 24.6366C18.5707 24.6366 18.195 24.7506 17.8754 24.9641C17.5558 25.1777 17.3067 25.4812 17.1596 25.8363C17.0126 26.1914 16.9741 26.5821 17.0491 26.9591C17.124 27.3361 17.3091 27.6824 17.5809 27.9541C17.8527 28.2259 18.199 28.411 18.5759 28.486C18.9529 28.561 19.3437 28.5225 19.6988 28.3754C20.0539 28.2283 20.3574 27.9792 20.5709 27.6597C20.7845 27.3401 20.8984 26.9643 20.8984 26.58C20.8979 26.0647 20.693 25.5707 20.3287 25.2064C19.9643 24.8421 19.4703 24.6371 18.9551 24.6366ZM18.9551 27.1552C18.841 27.1554 18.7295 27.1217 18.6346 27.0585C18.5397 26.9952 18.4657 26.9053 18.422 26.8C18.3782 26.6946 18.3668 26.5787 18.389 26.4668C18.4112 26.355 18.466 26.2522 18.5467 26.1716C18.6273 26.091 18.7301 26.0361 18.8419 26.0139C18.9538 25.9917 19.0697 26.0032 19.175 26.0469C19.2804 26.0906 19.3703 26.1646 19.4336 26.2595C19.4968 26.3544 19.5305 26.4659 19.5303 26.58C19.53 26.7325 19.4693 26.8786 19.3615 26.9864C19.2537 27.0942 19.1075 27.1549 18.9551 27.1552ZM34.0127 21.6054H14.457C14.3672 21.6052 14.2782 21.6228 14.1951 21.6571C14.1121 21.6914 14.0366 21.7418 13.973 21.8053C13.9094 21.8687 13.859 21.9441 13.8246 22.0271C13.7902 22.1101 13.7725 22.1991 13.7725 22.289V41.3144C13.7727 41.4958 13.845 41.6696 13.9733 41.7978C14.1017 41.926 14.2756 41.998 14.457 41.998H34.0127C34.1941 41.998 34.3681 41.926 34.4964 41.7978C34.6248 41.6696 34.697 41.4958 34.6973 41.3144V22.289C34.6973 22.1991 34.6796 22.1101 34.6451 22.0271C34.6107 21.9441 34.5603 21.8687 34.4967 21.8053C34.4331 21.7418 34.3576 21.6914 34.2746 21.6571C34.1915 21.6228 34.1025 21.6052 34.0127 21.6054ZM15.1406 40.6298V36.8925L18.8086 32.8603C18.864 32.7987 18.9317 32.7495 19.0074 32.7158C19.0831 32.6822 19.165 32.6648 19.2478 32.6649C19.3306 32.665 19.4125 32.6826 19.488 32.7164C19.5636 32.7502 19.6313 32.7996 19.6865 32.8612L21.9922 35.3954C21.9932 35.3972 21.9946 35.3989 21.9961 35.4003L26.7539 40.6298H15.1406ZM33.3291 40.6298H28.6025L23.4277 34.9423L27.0527 30.9569C27.1082 30.8957 27.1759 30.8468 27.2514 30.8134C27.3269 30.7799 27.4086 30.7626 27.4912 30.7626C27.5738 30.7626 27.6555 30.7799 27.731 30.8134C27.8065 30.8468 27.8742 30.8957 27.9297 30.9569L33.3291 36.8896V40.6298ZM33.3291 34.8573L28.9414 30.036C28.7577 29.8342 28.5338 29.673 28.2842 29.5627C28.0345 29.4524 27.7646 29.3954 27.4917 29.3954C27.2188 29.3954 26.9489 29.4524 26.6992 29.5627C26.4496 29.673 26.2257 29.8342 26.042 30.036L22.5039 33.9257L20.6992 31.9413C20.5156 31.7387 20.2915 31.5768 20.0416 31.466C19.7916 31.3552 19.5212 31.2979 19.2478 31.2978C18.9743 31.2977 18.7039 31.3548 18.4539 31.4655C18.2038 31.5761 17.9797 31.7379 17.7959 31.9403L15.1406 34.8603V22.9726H33.3291V34.8573ZM18.9551 28.5224C19.3395 28.5224 19.7152 28.4084 20.0349 28.1948C20.3545 27.9812 20.6035 27.6776 20.7506 27.3225C20.8977 26.9673 20.9361 26.5765 20.861 26.1995C20.786 25.8225 20.6008 25.4762 20.3289 25.2045C20.057 24.9328 19.7106 24.7477 19.3336 24.6729C18.9566 24.598 18.5658 24.6366 18.2107 24.7839C17.8556 24.9311 17.5522 25.1803 17.3388 25.5C17.1253 25.8198 17.0115 26.1956 17.0117 26.58C17.0124 27.0951 17.2175 27.5889 17.5818 27.953C17.9461 28.3171 18.44 28.5219 18.9551 28.5224ZM18.9551 26.0038C19.069 26.0038 19.1804 26.0376 19.2752 26.1009C19.3699 26.1642 19.4438 26.2542 19.4874 26.3595C19.531 26.4648 19.5424 26.5806 19.5202 26.6924C19.4979 26.8042 19.4431 26.9068 19.3625 26.9874C19.2819 27.068 19.1793 27.1229 19.0675 27.1451C18.9557 27.1673 18.8399 27.1559 18.7346 27.1123C18.6293 27.0687 18.5393 26.9948 18.476 26.9001C18.4127 26.8053 18.3789 26.6939 18.3789 26.58C18.3789 26.5043 18.3938 26.4294 18.4228 26.3595C18.4517 26.2896 18.4942 26.2261 18.5477 26.1726C18.6012 26.1191 18.6647 26.0766 18.7346 26.0477C18.8045 26.0187 18.8794 26.0038 18.9551 26.0038ZM36.0039 47.2792H33.9961C33.8148 47.2792 33.6409 47.3512 33.5127 47.4794C33.3845 47.6076 33.3125 47.7815 33.3125 47.9628C33.3125 48.1441 33.3845 48.318 33.5127 48.4462C33.6409 48.5744 33.8148 48.6464 33.9961 48.6464H36.0039C36.1852 48.6464 36.3591 48.5744 36.4873 48.4462C36.6155 48.318 36.6875 48.1441 36.6875 47.9628C36.6875 47.7815 36.6155 47.6076 36.4873 47.4794C36.3591 47.3512 36.1852 47.2792 36.0039 47.2792ZM18.9551 24.6366C18.5707 24.6366 18.195 24.7506 17.8754 24.9641C17.5558 25.1777 17.3067 25.4812 17.1596 25.8363C17.0126 26.1914 16.9741 26.5821 17.0491 26.9591C17.124 27.3361 17.3091 27.6824 17.5809 27.9541C17.8527 28.2259 18.199 28.411 18.5759 28.486C18.9529 28.561 19.3437 28.5225 19.6988 28.3754C20.0539 28.2283 20.3574 27.9792 20.5709 27.6597C20.7845 27.3401 20.8984 26.9643 20.8984 26.58C20.8979 26.0647 20.693 25.5707 20.3287 25.2064C19.9643 24.8421 19.4703 24.6371 18.9551 24.6366ZM18.9551 27.1552C18.841 27.1554 18.7295 27.1217 18.6346 27.0585C18.5397 26.9952 18.4657 26.9053 18.422 26.8C18.3782 26.6946 18.3668 26.5787 18.389 26.4668C18.4112 26.355 18.466 26.2522 18.5467 26.1716C18.6273 26.091 18.7301 26.0361 18.8419 26.0139C18.9538 25.9917 19.0697 26.0032 19.175 26.0469C19.2804 26.0906 19.3703 26.1646 19.4336 26.2595C19.4968 26.3544 19.5305 26.4659 19.5303 26.58C19.53 26.7325 19.4693 26.8786 19.3615 26.9864C19.2537 27.0942 19.1075 27.1549 18.9551 27.1552ZM18.9551 24.6366C18.5707 24.6366 18.195 24.7506 17.8754 24.9641C17.5558 25.1777 17.3067 25.4812 17.1596 25.8363C17.0126 26.1914 16.9741 26.5821 17.0491 26.9591C17.124 27.3361 17.3091 27.6824 17.5809 27.9541C17.8527 28.2259 18.199 28.411 18.5759 28.486C18.9529 28.561 19.3437 28.5225 19.6988 28.3754C20.0539 28.2283 20.3574 27.9792 20.5709 27.6597C20.7845 27.3401 20.8984 26.9643 20.8984 26.58C20.8979 26.0647 20.693 25.5707 20.3287 25.2064C19.9643 24.8421 19.4703 24.6371 18.9551 24.6366ZM18.9551 27.1552C18.841 27.1554 18.7295 27.1217 18.6346 27.0585C18.5397 26.9952 18.4657 26.9053 18.422 26.8C18.3782 26.6946 18.3668 26.5787 18.389 26.4668C18.4112 26.355 18.466 26.2522 18.5467 26.1716C18.6273 26.091 18.7301 26.0361 18.8419 26.0139C18.9538 25.9917 19.0697 26.0032 19.175 26.0469C19.2804 26.0906 19.3703 26.1646 19.4336 26.2595C19.4968 26.3544 19.5305 26.4659 19.5303 26.58C19.53 26.7325 19.4693 26.8786 19.3615 26.9864C19.2537 27.0942 19.1075 27.1549 18.9551 27.1552ZM34.0127 21.6054H14.457C14.3672 21.6052 14.2782 21.6228 14.1951 21.6571C14.1121 21.6914 14.0366 21.7418 13.973 21.8053C13.9094 21.8687 13.859 21.9441 13.8246 22.0271C13.7902 22.1101 13.7725 22.1991 13.7725 22.289V41.3144C13.7727 41.4958 13.845 41.6696 13.9733 41.7978C14.1017 41.926 14.2756 41.998 14.457 41.998H34.0127C34.1941 41.998 34.3681 41.926 34.4964 41.7978C34.6248 41.6696 34.697 41.4958 34.6973 41.3144V22.289C34.6973 22.1991 34.6796 22.1101 34.6451 22.0271C34.6107 21.9441 34.5603 21.8687 34.4967 21.8053C34.4331 21.7418 34.3576 21.6914 34.2746 21.6571C34.1915 21.6228 34.1025 21.6052 34.0127 21.6054ZM15.1406 40.6298V36.8925L18.8086 32.8603C18.864 32.7987 18.9317 32.7495 19.0074 32.7158C19.0831 32.6822 19.165 32.6648 19.2478 32.6649C19.3306 32.665 19.4125 32.6826 19.488 32.7164C19.5636 32.7502 19.6313 32.7996 19.6865 32.8612L21.9922 35.3954C21.9932 35.3972 21.9946 35.3989 21.9961 35.4003L26.7539 40.6298H15.1406ZM33.3291 40.6298H28.6025L23.4277 34.9423L27.0527 30.9569C27.1082 30.8957 27.1759 30.8468 27.2514 30.8134C27.3269 30.7799 27.4086 30.7626 27.4912 30.7626C27.5738 30.7626 27.6555 30.7799 27.731 30.8134C27.8065 30.8468 27.8742 30.8957 27.9297 30.9569L33.3291 36.8896V40.6298ZM33.3291 34.8573L28.9414 30.036C28.7577 29.8342 28.5338 29.673 28.2842 29.5627C28.0345 29.4524 27.7646 29.3954 27.4917 29.3954C27.2188 29.3954 26.9489 29.4524 26.6992 29.5627C26.4496 29.673 26.2257 29.8342 26.042 30.036L22.5039 33.9257L20.6992 31.9413C20.5156 31.7387 20.2915 31.5768 20.0416 31.466C19.7916 31.3552 19.5212 31.2979 19.2478 31.2978C18.9743 31.2977 18.7039 31.3548 18.4539 31.4655C18.2038 31.5761 17.9797 31.7379 17.7959 31.9403L15.1406 34.8603V22.9726H33.3291V34.8573ZM18.9551 28.5224C19.3395 28.5224 19.7152 28.4084 20.0349 28.1948C20.3545 27.9812 20.6035 27.6776 20.7506 27.3225C20.8977 26.9673 20.9361 26.5765 20.861 26.1995C20.786 25.8225 20.6008 25.4762 20.3289 25.2045C20.057 24.9328 19.7106 24.7477 19.3336 24.6729C18.9566 24.598 18.5658 24.6366 18.2107 24.7839C17.8556 24.9311 17.5522 25.1803 17.3388 25.5C17.1253 25.8198 17.0115 26.1956 17.0117 26.58C17.0124 27.0951 17.2175 27.5889 17.5818 27.953C17.9461 28.3171 18.44 28.5219 18.9551 28.5224ZM18.9551 26.0038C19.069 26.0038 19.1804 26.0376 19.2752 26.1009C19.3699 26.1642 19.4438 26.2542 19.4874 26.3595C19.531 26.4648 19.5424 26.5806 19.5202 26.6924C19.4979 26.8042 19.4431 26.9068 19.3625 26.9874C19.2819 27.068 19.1793 27.1229 19.0675 27.1451C18.9557 27.1673 18.8399 27.1559 18.7346 27.1123C18.6293 27.0687 18.5393 26.9948 18.476 26.9001C18.4127 26.8053 18.3789 26.6939 18.3789 26.58C18.3789 26.5043 18.3938 26.4294 18.4228 26.3595C18.4517 26.2896 18.4942 26.2261 18.5477 26.1726C18.6012 26.1191 18.6647 26.0766 18.7346 26.0477C18.8045 26.0187 18.8794 26.0038 18.9551 26.0038ZM18.9551 24.6366C18.5707 24.6366 18.195 24.7506 17.8754 24.9641C17.5558 25.1777 17.3067 25.4812 17.1596 25.8363C17.0126 26.1914 16.9741 26.5821 17.0491 26.9591C17.124 27.3361 17.3091 27.6824 17.5809 27.9541C17.8527 28.2259 18.199 28.411 18.5759 28.486C18.9529 28.561 19.3437 28.5225 19.6988 28.3754C20.0539 28.2283 20.3574 27.9792 20.5709 27.6597C20.7845 27.3401 20.8984 26.9643 20.8984 26.58C20.8979 26.0647 20.693 25.5707 20.3287 25.2064C19.9643 24.8421 19.4703 24.6371 18.9551 24.6366ZM18.9551 27.1552C18.841 27.1554 18.7295 27.1217 18.6346 27.0585C18.5397 26.9952 18.4657 26.9053 18.422 26.8C18.3782 26.6946 18.3668 26.5787 18.389 26.4668C18.4112 26.355 18.466 26.2522 18.5467 26.1716C18.6273 26.091 18.7301 26.0361 18.8419 26.0139C18.9538 25.9917 19.0697 26.0032 19.175 26.0469C19.2804 26.0906 19.3703 26.1646 19.4336 26.2595C19.4968 26.3544 19.5305 26.4659 19.5303 26.58C19.53 26.7325 19.4693 26.8786 19.3615 26.9864C19.2537 27.0942 19.1075 27.1549 18.9551 27.1552ZM18.9551 24.6366C18.5707 24.6366 18.195 24.7506 17.8754 24.9641C17.5558 25.1777 17.3067 25.4812 17.1596 25.8363C17.0126 26.1914 16.9741 26.5821 17.0491 26.9591C17.124 27.3361 17.3091 27.6824 17.5809 27.9541C17.8527 28.2259 18.199 28.411 18.5759 28.486C18.9529 28.561 19.3437 28.5225 19.6988 28.3754C20.0539 28.2283 20.3574 27.9792 20.5709 27.6597C20.7845 27.3401 20.8984 26.9643 20.8984 26.58C20.8979 26.0647 20.693 25.5707 20.3287 25.2064C19.9643 24.8421 19.4703 24.6371 18.9551 24.6366ZM18.9551 27.1552C18.841 27.1554 18.7295 27.1217 18.6346 27.0585C18.5397 26.9952 18.4657 26.9053 18.422 26.8C18.3782 26.6946 18.3668 26.5787 18.389 26.4668C18.4112 26.355 18.466 26.2522 18.5467 26.1716C18.6273 26.091 18.7301 26.0361 18.8419 26.0139C18.9538 25.9917 19.0697 26.0032 19.175 26.0469C19.2804 26.0906 19.3703 26.1646 19.4336 26.2595C19.4968 26.3544 19.5305 26.4659 19.5303 26.58C19.53 26.7325 19.4693 26.8786 19.3615 26.9864C19.2537 27.0942 19.1075 27.1549 18.9551 27.1552ZM36.0039 47.2792H33.9961C33.8148 47.2792 33.6409 47.3512 33.5127 47.4794C33.3845 47.6076 33.3125 47.7815 33.3125 47.9628C33.3125 48.1441 33.3845 48.318 33.5127 48.4462C33.6409 48.5744 33.8148 48.6464 33.9961 48.6464H36.0039C36.1852 48.6464 36.3591 48.5744 36.4873 48.4462C36.6155 48.318 36.6875 48.1441 36.6875 47.9628C36.6875 47.7815 36.6155 47.6076 36.4873 47.4794C36.3591 47.3512 36.1852 47.2792 36.0039 47.2792ZM18.9551 24.6366C18.5707 24.6366 18.195 24.7506 17.8754 24.9641C17.5558 25.1777 17.3067 25.4812 17.1596 25.8363C17.0126 26.1914 16.9741 26.5821 17.0491 26.9591C17.124 27.3361 17.3091 27.6824 17.5809 27.9541C17.8527 28.2259 18.199 28.411 18.5759 28.486C18.9529 28.561 19.3437 28.5225 19.6988 28.3754C20.0539 28.2283 20.3574 27.9792 20.5709 27.6597C20.7845 27.3401 20.8984 26.9643 20.8984 26.58C20.8979 26.0647 20.693 25.5707 20.3287 25.2064C19.9643 24.8421 19.4703 24.6371 18.9551 24.6366ZM18.9551 27.1552C18.841 27.1554 18.7295 27.1217 18.6346 27.0585C18.5397 26.9952 18.4657 26.9053 18.422 26.8C18.3782 26.6946 18.3668 26.5787 18.389 26.4668C18.4112 26.355 18.466 26.2522 18.5467 26.1716C18.6273 26.091 18.7301 26.0361 18.8419 26.0139C18.9538 25.9917 19.0697 26.0032 19.175 26.0469C19.2804 26.0906 19.3703 26.1646 19.4336 26.2595C19.4968 26.3544 19.5305 26.4659 19.5303 26.58C19.53 26.7325 19.4693 26.8786 19.3615 26.9864C19.2537 27.0942 19.1075 27.1549 18.9551 27.1552ZM18.9551 24.6366C18.5707 24.6366 18.195 24.7506 17.8754 24.9641C17.5558 25.1777 17.3067 25.4812 17.1596 25.8363C17.0126 26.1914 16.9741 26.5821 17.0491 26.9591C17.124 27.3361 17.3091 27.6824 17.5809 27.9541C17.8527 28.2259 18.199 28.411 18.5759 28.486C18.9529 28.561 19.3437 28.5225 19.6988 28.3754C20.0539 28.2283 20.3574 27.9792 20.5709 27.6597C20.7845 27.3401 20.8984 26.9643 20.8984 26.58C20.8979 26.0647 20.693 25.5707 20.3287 25.2064C19.9643 24.8421 19.4703 24.6371 18.9551 24.6366ZM18.9551 27.1552C18.841 27.1554 18.7295 27.1217 18.6346 27.0585C18.5397 26.9952 18.4657 26.9053 18.422 26.8C18.3782 26.6946 18.3668 26.5787 18.389 26.4668C18.4112 26.355 18.466 26.2522 18.5467 26.1716C18.6273 26.091 18.7301 26.0361 18.8419 26.0139C18.9538 25.9917 19.0697 26.0032 19.175 26.0469C19.2804 26.0906 19.3703 26.1646 19.4336 26.2595C19.4968 26.3544 19.5305 26.4659 19.5303 26.58C19.53 26.7325 19.4693 26.8786 19.3615 26.9864C19.2537 27.0942 19.1075 27.1549 18.9551 27.1552ZM18.9551 24.6366C18.5707 24.6366 18.195 24.7506 17.8754 24.9641C17.5558 25.1777 17.3067 25.4812 17.1596 25.8363C17.0126 26.1914 16.9741 26.5821 17.0491 26.9591C17.124 27.3361 17.3091 27.6824 17.5809 27.9541C17.8527 28.2259 18.199 28.411 18.5759 28.486C18.9529 28.561 19.3437 28.5225 19.6988 28.3754C20.0539 28.2283 20.3574 27.9792 20.5709 27.6597C20.7845 27.3401 20.8984 26.9643 20.8984 26.58C20.8979 26.0647 20.693 25.5707 20.3287 25.2064C19.9643 24.8421 19.4703 24.6371 18.9551 24.6366ZM18.9551 27.1552C18.841 27.1554 18.7295 27.1217 18.6346 27.0585C18.5397 26.9952 18.4657 26.9053 18.422 26.8C18.3782 26.6946 18.3668 26.5787 18.389 26.4668C18.4112 26.355 18.466 26.2522 18.5467 26.1716C18.6273 26.091 18.7301 26.0361 18.8419 26.0139C18.9538 25.9917 19.0697 26.0032 19.175 26.0469C19.2804 26.0906 19.3703 26.1646 19.4336 26.2595C19.4968 26.3544 19.5305 26.4659 19.5303 26.58C19.53 26.7325 19.4693 26.8786 19.3615 26.9864C19.2537 27.0942 19.1075 27.1549 18.9551 27.1552ZM18.9551 24.6366C18.5707 24.6366 18.195 24.7506 17.8754 24.9641C17.5558 25.1777 17.3067 25.4812 17.1596 25.8363C17.0126 26.1914 16.9741 26.5821 17.0491 26.9591C17.124 27.3361 17.3091 27.6824 17.5809 27.9541C17.8527 28.2259 18.199 28.411 18.5759 28.486C18.9529 28.561 19.3437 28.5225 19.6988 28.3754C20.0539 28.2283 20.3574 27.9792 20.5709 27.6597C20.7845 27.3401 20.8984 26.9643 20.8984 26.58C20.8979 26.0647 20.693 25.5707 20.3287 25.2064C19.9643 24.8421 19.4703 24.6371 18.9551 24.6366ZM18.9551 27.1552C18.841 27.1554 18.7295 27.1217 18.6346 27.0585C18.5397 26.9952 18.4657 26.9053 18.422 26.8C18.3782 26.6946 18.3668 26.5787 18.389 26.4668C18.4112 26.355 18.466 26.2522 18.5467 26.1716C18.6273 26.091 18.7301 26.0361 18.8419 26.0139C18.9538 25.9917 19.0697 26.0032 19.175 26.0469C19.2804 26.0906 19.3703 26.1646 19.4336 26.2595C19.4968 26.3544 19.5305 26.4659 19.5303 26.58C19.53 26.7325 19.4693 26.8786 19.3615 26.9864C19.2537 27.0942 19.1075 27.1549 18.9551 27.1552ZM34.0127 21.6054H14.457C14.3672 21.6052 14.2782 21.6228 14.1951 21.6571C14.1121 21.6914 14.0366 21.7418 13.973 21.8053C13.9094 21.8687 13.859 21.9441 13.8246 22.0271C13.7902 22.1101 13.7725 22.1991 13.7725 22.289V41.3144C13.7727 41.4958 13.845 41.6696 13.9733 41.7978C14.1017 41.926 14.2756 41.998 14.457 41.998H34.0127C34.1941 41.998 34.3681 41.926 34.4964 41.7978C34.6248 41.6696 34.697 41.4958 34.6973 41.3144V22.289C34.6973 22.1991 34.6796 22.1101 34.6451 22.0271C34.6107 21.9441 34.5603 21.8687 34.4967 21.8053C34.4331 21.7418 34.3576 21.6914 34.2746 21.6571C34.1915 21.6228 34.1025 21.6052 34.0127 21.6054ZM15.1406 40.6298V36.8925L18.8086 32.8603C18.864 32.7987 18.9317 32.7495 19.0074 32.7158C19.0831 32.6822 19.165 32.6648 19.2478 32.6649C19.3306 32.665 19.4125 32.6826 19.488 32.7164C19.5636 32.7502 19.6313 32.7996 19.6865 32.8612L21.9922 35.3954C21.9932 35.3972 21.9946 35.3989 21.9961 35.4003L26.7539 40.6298H15.1406ZM33.3291 40.6298H28.6025L23.4277 34.9423L27.0527 30.9569C27.1082 30.8957 27.1759 30.8468 27.2514 30.8134C27.3269 30.7799 27.4086 30.7626 27.4912 30.7626C27.5738 30.7626 27.6555 30.7799 27.731 30.8134C27.8065 30.8468 27.8742 30.8957 27.9297 30.9569L33.3291 36.8896V40.6298ZM33.3291 34.8573L28.9414 30.036C28.7577 29.8342 28.5338 29.673 28.2842 29.5627C28.0345 29.4524 27.7646 29.3954 27.4917 29.3954C27.2188 29.3954 26.9489 29.4524 26.6992 29.5627C26.4496 29.673 26.2257 29.8342 26.042 30.036L22.5039 33.9257L20.6992 31.9413C20.5156 31.7387 20.2915 31.5768 20.0416 31.466C19.7916 31.3552 19.5212 31.2979 19.2478 31.2978C18.9743 31.2977 18.7039 31.3548 18.4539 31.4655C18.2038 31.5761 17.9797 31.7379 17.7959 31.9403L15.1406 34.8603V22.9726H33.3291V34.8573ZM18.9551 28.5224C19.3395 28.5224 19.7152 28.4084 20.0349 28.1948C20.3545 27.9812 20.6035 27.6776 20.7506 27.3225C20.8977 26.9673 20.9361 26.5765 20.861 26.1995C20.786 25.8225 20.6008 25.4762 20.3289 25.2045C20.057 24.9328 19.7106 24.7477 19.3336 24.6729C18.9566 24.598 18.5658 24.6366 18.2107 24.7839C17.8556 24.9311 17.5522 25.1803 17.3388 25.5C17.1253 25.8198 17.0115 26.1956 17.0117 26.58C17.0124 27.0951 17.2175 27.5889 17.5818 27.953C17.9461 28.3171 18.44 28.5219 18.9551 28.5224ZM18.9551 26.0038C19.069 26.0038 19.1804 26.0376 19.2752 26.1009C19.3699 26.1642 19.4438 26.2542 19.4874 26.3595C19.531 26.4648 19.5424 26.5806 19.5202 26.6924C19.4979 26.8042 19.4431 26.9068 19.3625 26.9874C19.2819 27.068 19.1793 27.1229 19.0675 27.1451C18.9557 27.1673 18.8399 27.1559 18.7346 27.1123C18.6293 27.0687 18.5393 26.9948 18.476 26.9001C18.4127 26.8053 18.3789 26.6939 18.3789 26.58C18.3789 26.5043 18.3938 26.4294 18.4228 26.3595C18.4517 26.2896 18.4942 26.2261 18.5477 26.1726C18.6012 26.1191 18.6647 26.0766 18.7346 26.0477C18.8045 26.0187 18.8794 26.0038 18.9551 26.0038ZM18.9551 24.6366C18.5707 24.6366 18.195 24.7506 17.8754 24.9641C17.5558 25.1777 17.3067 25.4812 17.1596 25.8363C17.0126 26.1914 16.9741 26.5821 17.0491 26.9591C17.124 27.3361 17.3091 27.6824 17.5809 27.9541C17.8527 28.2259 18.199 28.411 18.5759 28.486C18.9529 28.561 19.3437 28.5225 19.6988 28.3754C20.0539 28.2283 20.3574 27.9792 20.5709 27.6597C20.7845 27.3401 20.8984 26.9643 20.8984 26.58C20.8979 26.0647 20.693 25.5707 20.3287 25.2064C19.9643 24.8421 19.4703 24.6371 18.9551 24.6366ZM18.9551 27.1552C18.841 27.1554 18.7295 27.1217 18.6346 27.0585C18.5397 26.9952 18.4657 26.9053 18.422 26.8C18.3782 26.6946 18.3668 26.5787 18.389 26.4668C18.4112 26.355 18.466 26.2522 18.5467 26.1716C18.6273 26.091 18.7301 26.0361 18.8419 26.0139C18.9538 25.9917 19.0697 26.0032 19.175 26.0469C19.2804 26.0906 19.3703 26.1646 19.4336 26.2595C19.4968 26.3544 19.5305 26.4659 19.5303 26.58C19.53 26.7325 19.4693 26.8786 19.3615 26.9864C19.2537 27.0942 19.1075 27.1549 18.9551 27.1552ZM18.9551 24.6366C18.5707 24.6366 18.195 24.7506 17.8754 24.9641C17.5558 25.1777 17.3067 25.4812 17.1596 25.8363C17.0126 26.1914 16.9741 26.5821 17.0491 26.9591C17.124 27.3361 17.3091 27.6824 17.5809 27.9541C17.8527 28.2259 18.199 28.411 18.5759 28.486C18.9529 28.561 19.3437 28.5225 19.6988 28.3754C20.0539 28.2283 20.3574 27.9792 20.5709 27.6597C20.7845 27.3401 20.8984 26.9643 20.8984 26.58C20.8979 26.0647 20.693 25.5707 20.3287 25.2064C19.9643 24.8421 19.4703 24.6371 18.9551 24.6366ZM18.9551 27.1552C18.841 27.1554 18.7295 27.1217 18.6346 27.0585C18.5397 26.9952 18.4657 26.9053 18.422 26.8C18.3782 26.6946 18.3668 26.5787 18.389 26.4668C18.4112 26.355 18.466 26.2522 18.5467 26.1716C18.6273 26.091 18.7301 26.0361 18.8419 26.0139C18.9538 25.9917 19.0697 26.0032 19.175 26.0469C19.2804 26.0906 19.3703 26.1646 19.4336 26.2595C19.4968 26.3544 19.5305 26.4659 19.5303 26.58C19.53 26.7325 19.4693 26.8786 19.3615 26.9864C19.2537 27.0942 19.1075 27.1549 18.9551 27.1552ZM18.9551 24.6366C18.5707 24.6366 18.195 24.7506 17.8754 24.9641C17.5558 25.1777 17.3067 25.4812 17.1596 25.8363C17.0126 26.1914 16.9741 26.5821 17.0491 26.9591C17.124 27.3361 17.3091 27.6824 17.5809 27.9541C17.8527 28.2259 18.199 28.411 18.5759 28.486C18.9529 28.561 19.3437 28.5225 19.6988 28.3754C20.0539 28.2283 20.3574 27.9792 20.5709 27.6597C20.7845 27.3401 20.8984 26.9643 20.8984 26.58C20.8979 26.0647 20.693 25.5707 20.3287 25.2064C19.9643 24.8421 19.4703 24.6371 18.9551 24.6366ZM18.9551 27.1552C18.841 27.1554 18.7295 27.1217 18.6346 27.0585C18.5397 26.9952 18.4657 26.9053 18.422 26.8C18.3782 26.6946 18.3668 26.5787 18.389 26.4668C18.4112 26.355 18.466 26.2522 18.5467 26.1716C18.6273 26.091 18.7301 26.0361 18.8419 26.0139C18.9538 25.9917 19.0697 26.0032 19.175 26.0469C19.2804 26.0906 19.3703 26.1646 19.4336 26.2595C19.4968 26.3544 19.5305 26.4659 19.5303 26.58C19.53 26.7325 19.4693 26.8786 19.3615 26.9864C19.2537 27.0942 19.1075 27.1549 18.9551 27.1552ZM18.9551 24.6366C18.5707 24.6366 18.195 24.7506 17.8754 24.9641C17.5558 25.1777 17.3067 25.4812 17.1596 25.8363C17.0126 26.1914 16.9741 26.5821 17.0491 26.9591C17.124 27.3361 17.3091 27.6824 17.5809 27.9541C17.8527 28.2259 18.199 28.411 18.5759 28.486C18.9529 28.561 19.3437 28.5225 19.6988 28.3754C20.0539 28.2283 20.3574 27.9792 20.5709 27.6597C20.7845 27.3401 20.8984 26.9643 20.8984 26.58C20.8979 26.0647 20.693 25.5707 20.3287 25.2064C19.9643 24.8421 19.4703 24.6371 18.9551 24.6366ZM18.9551 27.1552C18.841 27.1554 18.7295 27.1217 18.6346 27.0585C18.5397 26.9952 18.4657 26.9053 18.422 26.8C18.3782 26.6946 18.3668 26.5787 18.389 26.4668C18.4112 26.355 18.466 26.2522 18.5467 26.1716C18.6273 26.091 18.7301 26.0361 18.8419 26.0139C18.9538 25.9917 19.0697 26.0032 19.175 26.0469C19.2804 26.0906 19.3703 26.1646 19.4336 26.2595C19.4968 26.3544 19.5305 26.4659 19.5303 26.58C19.53 26.7325 19.4693 26.8786 19.3615 26.9864C19.2537 27.0942 19.1075 27.1549 18.9551 27.1552ZM18.9551 24.6366C18.5707 24.6366 18.195 24.7506 17.8754 24.9641C17.5558 25.1777 17.3067 25.4812 17.1596 25.8363C17.0126 26.1914 16.9741 26.5821 17.0491 26.9591C17.124 27.3361 17.3091 27.6824 17.5809 27.9541C17.8527 28.2259 18.199 28.411 18.5759 28.486C18.9529 28.561 19.3437 28.5225 19.6988 28.3754C20.0539 28.2283 20.3574 27.9792 20.5709 27.6597C20.7845 27.3401 20.8984 26.9643 20.8984 26.58C20.8979 26.0647 20.693 25.5707 20.3287 25.2064C19.9643 24.8421 19.4703 24.6371 18.9551 24.6366ZM18.9551 27.1552C18.841 27.1554 18.7295 27.1217 18.6346 27.0585C18.5397 26.9952 18.4657 26.9053 18.422 26.8C18.3782 26.6946 18.3668 26.5787 18.389 26.4668C18.4112 26.355 18.466 26.2522 18.5467 26.1716C18.6273 26.091 18.7301 26.0361 18.8419 26.0139C18.9538 25.9917 19.0697 26.0032 19.175 26.0469C19.2804 26.0906 19.3703 26.1646 19.4336 26.2595C19.4968 26.3544 19.5305 26.4659 19.5303 26.58C19.53 26.7325 19.4693 26.8786 19.3615 26.9864C19.2537 27.0942 19.1075 27.1549 18.9551 27.1552ZM18.9551 24.6366C18.5707 24.6366 18.195 24.7506 17.8754 24.9641C17.5558 25.1777 17.3067 25.4812 17.1596 25.8363C17.0126 26.1914 16.9741 26.5821 17.0491 26.9591C17.124 27.3361 17.3091 27.6824 17.5809 27.9541C17.8527 28.2259 18.199 28.411 18.5759 28.486C18.9529 28.561 19.3437 28.5225 19.6988 28.3754C20.0539 28.2283 20.3574 27.9792 20.5709 27.6597C20.7845 27.3401 20.8984 26.9643 20.8984 26.58C20.8979 26.0647 20.693 25.5707 20.3287 25.2064C19.9643 24.8421 19.4703 24.6371 18.9551 24.6366ZM18.9551 27.1552C18.841 27.1554 18.7295 27.1217 18.6346 27.0585C18.5397 26.9952 18.4657 26.9053 18.422 26.8C18.3782 26.6946 18.3668 26.5787 18.389 26.4668C18.4112 26.355 18.466 26.2522 18.5467 26.1716C18.6273 26.091 18.7301 26.0361 18.8419 26.0139C18.9538 25.9917 19.0697 26.0032 19.175 26.0469C19.2804 26.0906 19.3703 26.1646 19.4336 26.2595C19.4968 26.3544 19.5305 26.4659 19.5303 26.58C19.53 26.7325 19.4693 26.8786 19.3615 26.9864C19.2537 27.0942 19.1075 27.1549 18.9551 27.1552ZM34.0127 21.6054H14.457C14.3672 21.6052 14.2782 21.6228 14.1951 21.6571C14.1121 21.6914 14.0366 21.7418 13.973 21.8053C13.9094 21.8687 13.859 21.9441 13.8246 22.0271C13.7902 22.1101 13.7725 22.1991 13.7725 22.289V41.3144C13.7727 41.4958 13.845 41.6696 13.9733 41.7978C14.1017 41.926 14.2756 41.998 14.457 41.998H34.0127C34.1941 41.998 34.3681 41.926 34.4964 41.7978C34.6248 41.6696 34.697 41.4958 34.6973 41.3144V22.289C34.6973 22.1991 34.6796 22.1101 34.6451 22.0271C34.6107 21.9441 34.5603 21.8687 34.4967 21.8053C34.4331 21.7418 34.3576 21.6914 34.2746 21.6571C34.1915 21.6228 34.1025 21.6052 34.0127 21.6054ZM15.1406 40.6298V36.8925L18.8086 32.8603C18.864 32.7987 18.9317 32.7495 19.0074 32.7158C19.0831 32.6822 19.165 32.6648 19.2478 32.6649C19.3306 32.665 19.4125 32.6826 19.488 32.7164C19.5636 32.7502 19.6313 32.7996 19.6865 32.8612L21.9922 35.3954C21.9932 35.3972 21.9946 35.3989 21.9961 35.4003L26.7539 40.6298H15.1406ZM33.3291 40.6298H28.6025L23.4277 34.9423L27.0527 30.9569C27.1082 30.8957 27.1759 30.8468 27.2514 30.8134C27.3269 30.7799 27.4086 30.7626 27.4912 30.7626C27.5738 30.7626 27.6555 30.7799 27.731 30.8134C27.8065 30.8468 27.8742 30.8957 27.9297 30.9569L33.3291 36.8896V40.6298ZM33.3291 34.8573L28.9414 30.036C28.7577 29.8342 28.5338 29.673 28.2842 29.5627C28.0345 29.4524 27.7646 29.3954 27.4917 29.3954C27.2188 29.3954 26.9489 29.4524 26.6992 29.5627C26.4496 29.673 26.2257 29.8342 26.042 30.036L22.5039 33.9257L20.6992 31.9413C20.5156 31.7387 20.2915 31.5768 20.0416 31.466C19.7916 31.3552 19.5212 31.2979 19.2478 31.2978C18.9743 31.2977 18.7039 31.3548 18.4539 31.4655C18.2038 31.5761 17.9797 31.7379 17.7959 31.9403L15.1406 34.8603V22.9726H33.3291V34.8573ZM18.9551 28.5224C19.3395 28.5224 19.7152 28.4084 20.0349 28.1948C20.3545 27.9812 20.6035 27.6776 20.7506 27.3225C20.8977 26.9673 20.9361 26.5765 20.861 26.1995C20.786 25.8225 20.6008 25.4762 20.3289 25.2045C20.057 24.9328 19.7106 24.7477 19.3336 24.6729C18.9566 24.598 18.5658 24.6366 18.2107 24.7839C17.8556 24.9311 17.5522 25.1803 17.3388 25.5C17.1253 25.8198 17.0115 26.1956 17.0117 26.58C17.0124 27.0951 17.2175 27.5889 17.5818 27.953C17.9461 28.3171 18.44 28.5219 18.9551 28.5224ZM18.9551 26.0038C19.069 26.0038 19.1804 26.0376 19.2752 26.1009C19.3699 26.1642 19.4438 26.2542 19.4874 26.3595C19.531 26.4648 19.5424 26.5806 19.5202 26.6924C19.4979 26.8042 19.4431 26.9068 19.3625 26.9874C19.2819 27.068 19.1793 27.1229 19.0675 27.1451C18.9557 27.1673 18.8399 27.1559 18.7346 27.1123C18.6293 27.0687 18.5393 26.9948 18.476 26.9001C18.4127 26.8053 18.3789 26.6939 18.3789 26.58C18.3789 26.5043 18.3938 26.4294 18.4228 26.3595C18.4517 26.2896 18.4942 26.2261 18.5477 26.1726C18.6012 26.1191 18.6647 26.0766 18.7346 26.0477C18.8045 26.0187 18.8794 26.0038 18.9551 26.0038ZM18.9551 24.6366C18.5707 24.6366 18.195 24.7506 17.8754 24.9641C17.5558 25.1777 17.3067 25.4812 17.1596 25.8363C17.0126 26.1914 16.9741 26.5821 17.0491 26.9591C17.124 27.3361 17.3091 27.6824 17.5809 27.9541C17.8527 28.2259 18.199 28.411 18.5759 28.486C18.9529 28.561 19.3437 28.5225 19.6988 28.3754C20.0539 28.2283 20.3574 27.9792 20.5709 27.6597C20.7845 27.3401 20.8984 26.9643 20.8984 26.58C20.8979 26.0647 20.693 25.5707 20.3287 25.2064C19.9643 24.8421 19.4703 24.6371 18.9551 24.6366ZM18.9551 27.1552C18.841 27.1554 18.7295 27.1217 18.6346 27.0585C18.5397 26.9952 18.4657 26.9053 18.422 26.8C18.3782 26.6946 18.3668 26.5787 18.389 26.4668C18.4112 26.355 18.466 26.2522 18.5467 26.1716C18.6273 26.091 18.7301 26.0361 18.8419 26.0139C18.9538 25.9917 19.0697 26.0032 19.175 26.0469C19.2804 26.0906 19.3703 26.1646 19.4336 26.2595C19.4968 26.3544 19.5305 26.4659 19.5303 26.58C19.53 26.7325 19.4693 26.8786 19.3615 26.9864C19.2537 27.0942 19.1075 27.1549 18.9551 27.1552ZM18.9551 24.6366C18.5707 24.6366 18.195 24.7506 17.8754 24.9641C17.5558 25.1777 17.3067 25.4812 17.1596 25.8363C17.0126 26.1914 16.9741 26.5821 17.0491 26.9591C17.124 27.3361 17.3091 27.6824 17.5809 27.9541C17.8527 28.2259 18.199 28.411 18.5759 28.486C18.9529 28.561 19.3437 28.5225 19.6988 28.3754C20.0539 28.2283 20.3574 27.9792 20.5709 27.6597C20.7845 27.3401 20.8984 26.9643 20.8984 26.58C20.8979 26.0647 20.693 25.5707 20.3287 25.2064C19.9643 24.8421 19.4703 24.6371 18.9551 24.6366ZM18.9551 27.1552C18.841 27.1554 18.7295 27.1217 18.6346 27.0585C18.5397 26.9952 18.4657 26.9053 18.422 26.8C18.3782 26.6946 18.3668 26.5787 18.389 26.4668C18.4112 26.355 18.466 26.2522 18.5467 26.1716C18.6273 26.091 18.7301 26.0361 18.8419 26.0139C18.9538 25.9917 19.0697 26.0032 19.175 26.0469C19.2804 26.0906 19.3703 26.1646 19.4336 26.2595C19.4968 26.3544 19.5305 26.4659 19.5303 26.58C19.53 26.7325 19.4693 26.8786 19.3615 26.9864C19.2537 27.0942 19.1075 27.1549 18.9551 27.1552ZM18.9551 24.6366C18.5707 24.6366 18.195 24.7506 17.8754 24.9641C17.5558 25.1777 17.3067 25.4812 17.1596 25.8363C17.0126 26.1914 16.9741 26.5821 17.0491 26.9591C17.124 27.3361 17.3091 27.6824 17.5809 27.9541C17.8527 28.2259 18.199 28.411 18.5759 28.486C18.9529 28.561 19.3437 28.5225 19.6988 28.3754C20.0539 28.2283 20.3574 27.9792 20.5709 27.6597C20.7845 27.3401 20.8984 26.9643 20.8984 26.58C20.8979 26.0647 20.693 25.5707 20.3287 25.2064C19.9643 24.8421 19.4703 24.6371 18.9551 24.6366ZM18.9551 27.1552C18.841 27.1554 18.7295 27.1217 18.6346 27.0585C18.5397 26.9952 18.4657 26.9053 18.422 26.8C18.3782 26.6946 18.3668 26.5787 18.389 26.4668C18.4112 26.355 18.466 26.2522 18.5467 26.1716C18.6273 26.091 18.7301 26.0361 18.8419 26.0139C18.9538 25.9917 19.0697 26.0032 19.175 26.0469C19.2804 26.0906 19.3703 26.1646 19.4336 26.2595C19.4968 26.3544 19.5305 26.4659 19.5303 26.58C19.53 26.7325 19.4693 26.8786 19.3615 26.9864C19.2537 27.0942 19.1075 27.1549 18.9551 27.1552ZM18.9551 24.6366C18.5707 24.6366 18.195 24.7506 17.8754 24.9641C17.5558 25.1777 17.3067 25.4812 17.1596 25.8363C17.0126 26.1914 16.9741 26.5821 17.0491 26.9591C17.124 27.3361 17.3091 27.6824 17.5809 27.9541C17.8527 28.2259 18.199 28.411 18.5759 28.486C18.9529 28.561 19.3437 28.5225 19.6988 28.3754C20.0539 28.2283 20.3574 27.9792 20.5709 27.6597C20.7845 27.3401 20.8984 26.9643 20.8984 26.58C20.8979 26.0647 20.693 25.5707 20.3287 25.2064C19.9643 24.8421 19.4703 24.6371 18.9551 24.6366ZM18.9551 27.1552C18.841 27.1554 18.7295 27.1217 18.6346 27.0585C18.5397 26.9952 18.4657 26.9053 18.422 26.8C18.3782 26.6946 18.3668 26.5787 18.389 26.4668C18.4112 26.355 18.466 26.2522 18.5467 26.1716C18.6273 26.091 18.7301 26.0361 18.8419 26.0139C18.9538 25.9917 19.0697 26.0032 19.175 26.0469C19.2804 26.0906 19.3703 26.1646 19.4336 26.2595C19.4968 26.3544 19.5305 26.4659 19.5303 26.58C19.53 26.7325 19.4693 26.8786 19.3615 26.9864C19.2537 27.0942 19.1075 27.1549 18.9551 27.1552Z" fill="#0A2540"/>
<path d="M19.2471 31.2979C19.5206 31.2981 19.791 31.3555 20.0411 31.4663C20.2912 31.5771 20.5153 31.7389 20.6992 31.9414L22.5039 33.9258L26.042 30.0361C26.2257 29.8343 26.4496 29.6731 26.6992 29.5628C26.9489 29.4525 27.2188 29.3955 27.4917 29.3955C27.7646 29.3955 28.0345 29.4525 28.2842 29.5628C28.5338 29.6731 28.7577 29.8343 28.9414 30.0361L33.3291 34.8574V22.9727H15.1406V34.8604L17.7959 31.9404C17.9797 31.7382 18.2038 31.5766 18.4536 31.4659C18.7035 31.3553 18.9738 31.298 19.2471 31.2979ZM17.0117 26.5801C17.0115 26.1957 17.1253 25.8199 17.3388 25.5001C17.5522 25.1804 17.8556 24.9312 18.2107 24.784C18.5658 24.6367 18.9566 24.5981 19.3336 24.673C19.7106 24.7478 20.057 24.9328 20.3289 25.2046C20.6008 25.4763 20.786 25.8226 20.861 26.1996C20.9361 26.5766 20.8977 26.9674 20.7506 27.3226C20.6035 27.6777 20.3545 27.9813 20.0349 28.1949C19.7152 28.4085 19.3395 28.5225 18.9551 28.5225C18.44 28.5219 17.9461 28.3172 17.5818 27.953C17.2175 27.5889 17.0125 27.0952 17.0117 26.5801ZM39.4189 37.4775C41.1006 36.0498 41.3633 34.209 41.582 32.6826C41.8174 31.0313 42.0059 30.0947 43.1572 29.5957L47.8164 32.2861C47.7793 33.3897 46.9219 35.3535 45.1934 36.6465C44.0127 37.5293 42.1006 38.3164 39.4189 37.4775ZM41.8164 57.3858V58.166H28.1836V57.3858C28.1839 57.1789 28.2661 56.9806 28.4124 56.8343C28.5587 56.688 28.757 56.6057 28.9639 56.6055H41.0361C41.243 56.6057 41.4413 56.688 41.5876 56.8343C41.7339 56.9806 41.8161 57.1789 41.8164 57.3858ZM11.3672 45.8125V48.7549C11.3677 49.1159 11.5114 49.4621 11.7668 49.7173C12.0222 49.9725 12.3684 50.116 12.7295 50.1162H57.2676C57.629 50.1164 57.9758 49.9732 58.2318 49.7179C58.4877 49.4627 58.632 49.1164 58.6328 48.7549V45.8125H11.3672ZM36.0039 48.6465H33.9961C33.8148 48.6465 33.6409 48.5745 33.5127 48.4463C33.3845 48.3181 33.3125 48.1442 33.3125 47.9629C33.3125 47.7816 33.3845 47.6077 33.5127 47.4795C33.6409 47.3513 33.8148 47.2793 33.9961 47.2793H36.0039C36.1852 47.2793 36.3591 47.3513 36.4873 47.4795C36.6155 47.6077 36.6875 47.7816 36.6875 47.9629C36.6875 48.1442 36.6155 48.3181 36.4873 48.4463C36.3591 48.5745 36.1852 48.6465 36.0039 48.6465Z" fill="#FAAD1B"/>
</g>
<defs>
<clipPath id="clip0_65_23">
<rect width="50" height="50" fill="white" transform="translate(10 10)"/>
</clipPath>
</defs>
</svg>
