<svg width="50" height="50" viewBox="0 0 50 50" fill="none" xmlns="http://www.w3.org/2000/svg">
<g clip-path="url(#clip0_65_23)">
<rect width="50" height="50" rx="25" fill="#FEFEFE"/>
<path d="M21.976 30.6198V8.80127H28.4416V30.6198C28.4416 32.7245 27.9803 34.5337 27.0577 36.0474C26.135 37.5466 24.8736 38.6999 23.2735 39.5072C21.6877 40.3145 19.9001 40.7181 17.9107 40.7181C15.8493 40.7181 14.0257 40.3721 12.4399 39.6802C10.8542 38.9882 9.60718 37.9286 8.69897 36.5015C7.79077 35.0599 7.33667 33.2363 7.33667 31.0306H13.8455C13.8455 32.1839 14.004 33.0993 14.3212 33.7769C14.6528 34.4544 15.1213 34.9373 15.7267 35.2257C16.3322 35.514 17.0602 35.6581 17.9107 35.6581C18.7325 35.6581 19.446 35.4635 20.0515 35.0743C20.657 34.6851 21.1255 34.1156 21.4571 33.366C21.803 32.6164 21.976 31.701 21.976 30.6198Z" fill="#0A2540"/>
<path d="M33.8908 37.2799C33.8908 36.3573 34.208 35.5861 34.8423 34.9662C35.491 34.3463 36.3487 34.0363 37.4155 34.0363C38.4823 34.0363 39.3328 34.3463 39.9671 34.9662C40.6158 35.5861 40.9402 36.3573 40.9402 37.2799C40.9402 38.2025 40.6158 38.9738 39.9671 39.5937C39.3328 40.2136 38.4823 40.5235 37.4155 40.5235C36.3487 40.5235 35.491 40.2136 34.8423 39.5937C34.208 38.9738 33.8908 38.2025 33.8908 37.2799Z" fill="#FAAD1B"/>
</g>
<defs>
<clipPath id="clip0_65_23">
<rect width="50" height="50" rx="25" fill="white"/>
</clipPath>
</defs>
</svg>
