<svg width="15" height="14" viewBox="0 0 15 14" fill="none" xmlns="http://www.w3.org/2000/svg">
<path d="M14.9608 5.28981C14.862 4.99399 14.5926 4.78455 14.2751 4.75658L9.94508 4.37371L8.23382 0.471701C8.10747 0.185024 7.81999 0 7.50001 0C7.18003 0 6.89243 0.185024 6.76689 0.471701L5.05563 4.37371L0.724889 4.75658C0.407425 4.78511 0.138599 4.99455 0.0392629 5.28981C-0.0595011 5.58562 0.0317097 5.91008 0.27181 6.11517L3.54499 8.91049L2.57989 13.0504C2.50928 13.3548 2.63059 13.6695 2.88992 13.8521C3.02931 13.9507 3.19307 14 3.35741 14C3.49864 14 3.63997 13.9634 3.7662 13.8899L7.50001 11.7155L11.2331 13.8899C11.507 14.0493 11.8513 14.0347 12.1101 13.8521C12.3694 13.6695 12.4907 13.3548 12.4201 13.0504L11.455 8.91049L14.7282 6.11517C14.9682 5.91008 15.0595 5.58629 14.9608 5.28981Z" fill="#252525"/>
</svg>
