<svg width="30" height="30" viewBox="0 0 30 30" fill="none" xmlns="http://www.w3.org/2000/svg">
<g clip-path="url(#clip0_94_17)">
<path d="M15.0053 30.0106C23.2925 30.0106 30.0106 23.2925 30.0106 15.0053C30.0106 6.7181 23.2925 0 15.0053 0C6.7181 0 0 6.7181 0 15.0053C0 23.2925 6.7181 30.0106 15.0053 30.0106Z" fill="#4176FA"/>
<path fill-rule="evenodd" clip-rule="evenodd" d="M17.409 18.5103C16.9537 18.5103 16.4983 18.3938 16.1065 18.1609L13.025 16.3818C12.8767 16.2971 12.8238 16.0959 12.9085 15.9477L13.5439 14.8464C13.6392 14.6981 13.8298 14.6452 13.978 14.7299L17.0596 16.5089C17.3984 16.6995 17.8326 16.583 18.0232 16.2548L21.4118 10.3776C21.6025 10.0493 21.486 9.61517 21.1577 9.42456L18.6268 7.96321C18.2879 7.7726 17.8538 7.88908 17.6632 8.21735L15.6512 11.7013C15.5665 11.8601 15.3653 11.9131 15.217 11.8178L14.1157 11.1824C13.9674 11.0977 13.9145 10.9071 13.9992 10.7588L16.0112 7.2643C16.7313 6.02533 18.3303 5.59116 19.5799 6.31125L22.1107 7.7726C23.3497 8.49268 23.7839 10.0917 23.0638 11.3307L19.6646 17.2078C19.2092 18.0126 18.3409 18.5103 17.409 18.5103ZM11.7225 24.038C11.2671 24.038 10.8224 23.9216 10.4306 23.6886L7.89967 22.2272C6.65011 21.5072 6.22653 19.9081 6.94661 18.6692L10.3352 12.792C11.0553 11.553 12.6543 11.1295 13.8933 11.839L16.9749 13.618C17.1231 13.7027 17.1761 13.9039 17.0913 14.0522L16.456 15.1535C16.3713 15.3017 16.1701 15.3547 16.0218 15.2699L12.9403 13.4909C12.612 13.3003 12.1778 13.4168 11.9872 13.7451L8.58798 19.6222C8.39737 19.9611 8.51386 20.3847 8.85272 20.5753L11.3836 22.0366C11.7119 22.2272 12.146 22.1108 12.3367 21.7825L14.3487 18.2985C14.4334 18.1503 14.6346 18.0973 14.7828 18.1821L15.8841 18.8174C16.0324 18.9021 16.0853 19.0928 16.0006 19.2516L13.9886 22.7355C13.5227 23.5403 12.6543 24.038 11.7225 24.038Z" fill="white"/>
</g>
<defs>
<clipPath id="clip0_94_17">
<rect width="30" height="30" fill="white"/>
</clipPath>
</defs>
</svg>
