<svg width="70" height="70" viewBox="0 0 70 70" fill="none" xmlns="http://www.w3.org/2000/svg">
<rect width="70" height="70" rx="35" fill="#FEFEFE"/>
<g clip-path="url(#clip0_65_23)">
<path d="M35.8683 8.38325L37.1883 11.0341L40.0141 11.5241C40.7958 11.6599 41.1066 12.6574 40.5508 13.2458L38.5408 15.3733L38.9674 18.3266C39.0858 19.1433 38.2716 19.7599 37.5624 19.3908L34.9999 18.0549L32.4374 19.3908C31.7283 19.7599 30.9149 19.1441 31.0324 18.3266L31.4591 15.3733L29.4491 13.2458C28.8933 12.6574 29.2041 11.6599 29.9858 11.5241L32.8116 11.0341L34.1316 8.38325C34.4966 7.64992 35.5033 7.64992 35.8683 8.38325Z" fill="#F9C82B"/>
<path d="M20.8683 15.05L22.1883 17.7008L25.0141 18.1908C25.7958 18.3267 26.1066 19.3242 25.5508 19.9125L23.5408 22.04L23.9674 24.9933C24.0858 25.81 23.2716 26.4267 22.5624 26.0575L19.9999 24.7217L17.4374 26.0575C16.7283 26.4267 15.9149 25.8108 16.0324 24.9933L16.4591 22.04L14.4491 19.9125C13.8933 19.3242 14.2041 18.3267 14.9858 18.1908L17.8116 17.7008L19.1316 15.05C19.4966 14.3167 20.5033 14.3167 20.8683 15.05Z" fill="#F9C82B"/>
<path d="M50.8683 15.05L52.1883 17.7008L55.0141 18.1908C55.7958 18.3267 56.1066 19.3242 55.5508 19.9125L53.5408 22.04L53.9674 24.9933C54.0858 25.81 53.2716 26.4267 52.5624 26.0575L49.9999 24.7217L47.4374 26.0575C46.7283 26.4267 45.9149 25.8108 46.0324 24.9933L46.4591 22.04L44.4491 19.9125C43.8933 19.3242 44.2041 18.3267 44.9858 18.1908L47.8116 17.7008L49.1316 15.05C49.4966 14.3167 50.5033 14.3167 50.8683 15.05Z" fill="#F9C82B"/>
<path d="M26.1666 43.1667C23.8999 45.4334 22.4999 48.5501 22.4999 52.0001C22.4999 52.4584 22.1249 52.8334 21.6666 52.8334H11.6666C11.2083 52.8334 10.8333 52.4584 10.8333 52.0001C10.8333 45.3334 13.5416 39.3001 17.9166 34.9167H18.7499L25.8333 42.0001L26.1666 43.1667Z" fill="#D7342C"/>
<path d="M35.0001 27.8333L35.8334 28.6666V38.6666L35.0001 39.4999C31.5501 39.4999 28.4334 40.8999 26.1667 43.1666L17.9167 34.9166C22.3001 30.5416 28.3334 27.8333 35.0001 27.8333Z" fill="#E99E32"/>
<path d="M52.0833 34.9166L52.5 36.1666L45 43.6666L43.8333 43.1666C41.5667 40.8999 38.45 39.4999 35 39.4999V27.8333C41.6667 27.8333 47.7 30.5416 52.0833 34.9166Z" fill="#F9C82B"/>
<path d="M59.1666 52.0001C59.1666 52.4584 58.7916 52.8334 58.3333 52.8334H48.3333C47.8749 52.8334 47.4999 52.4584 47.4999 52.0001C47.4999 48.5501 46.0999 45.4334 43.8333 43.1667L52.0833 34.9167C56.4583 39.3001 59.1666 45.3334 59.1666 52.0001Z" fill="#2AA869"/>
<path d="M38.1 54.05C42.1 51.8833 48.3916 48.15 53.1416 45.3083C54.0083 44.7833 53.4 43.475 52.45 43.8C47.2083 45.6 40.3083 48.0083 36.075 49.6833L38.1 54.05Z" fill="#0A365E"/>
<path d="M35.0001 56.1667C36.841 56.1667 38.3334 54.6743 38.3334 52.8333C38.3334 50.9924 36.841 49.5 35.0001 49.5C33.1591 49.5 31.6667 50.9924 31.6667 52.8333C31.6667 54.6743 33.1591 56.1667 35.0001 56.1667Z" fill="#06293F"/>
</g>
<defs>
<clipPath id="clip0_65_23">
<rect width="50" height="50" fill="white" transform="translate(10 7)"/>
</clipPath>
</defs>
</svg>
