<svg width="70" height="70" viewBox="0 0 70 70" fill="none" xmlns="http://www.w3.org/2000/svg">
<rect width="70" height="70" rx="35" fill="#FEFEFE"/>
<g clip-path="url(#clip0_65_23)">
<path d="M55 13H16C14.35 13 13 14.35 13 16V20.5H58V16C58 14.35 56.65 13 55 13ZM17.5 18.25C16.675 18.25 16 17.575 16 16.7499C16 15.9249 16.675 15.2499 17.5 15.2499C18.325 15.2499 19 15.9249 19 16.7499C19 17.575 18.325 18.25 17.5 18.25ZM22 18.25C21.175 18.25 20.5 17.575 20.5 16.7499C20.5 15.9249 21.175 15.2499 22 15.2499C22.825 15.2499 23.5 15.9249 23.5 16.7499C23.5 17.575 22.825 18.25 22 18.25ZM26.5 18.25C25.675 18.25 25 17.575 25 16.7499C25 15.9249 25.675 15.2499 26.5 15.2499C27.325 15.2499 28 15.9249 28 16.7499C28 17.575 27.325 18.25 26.5 18.25Z" fill="#FAAD1B"/>
<path d="M35.5 30.9016C30.0719 30.9016 25.6562 35.3313 25.6562 40.7454C25.6562 46.1735 30.0719 50.5891 35.5 50.5891C40.9281 50.5891 45.3438 46.1735 45.3438 40.7454C45.3438 35.3313 40.9281 30.9016 35.5 30.9016ZM41.2375 38.9313L35.6125 44.5563C35.3594 44.8235 34.9938 44.9641 34.6281 44.9641C34.2484 44.9641 33.8969 44.8235 33.6297 44.5563L30.9719 41.8985C30.4234 41.35 30.4234 40.4641 30.9719 39.9157C31.5203 39.3672 32.4062 39.3672 32.9547 39.9157L34.6281 41.575L39.2547 36.9485C39.8031 36.4001 40.6891 36.4001 41.2375 36.9485C41.7859 37.4969 41.7859 38.3829 41.2375 38.9313Z" fill="#388E3C"/>
<path d="M13 23.5046V55.0046C13 56.6499 14.35 57.9999 15.9953 57.9999H55.0047C56.65 57.9999 58 56.6499 58 55.0046V23.5046H13ZM35.5 53.4015C28.525 53.4015 22.8438 47.7343 22.8438 40.7453C22.8438 33.7703 28.525 28.089 35.5 28.089C42.475 28.089 48.1562 33.7703 48.1562 40.7453C48.1562 47.7343 42.475 53.4015 35.5 53.4015Z" fill="#0A2540"/>
</g>
<defs>
<clipPath id="clip0_65_23">
<rect width="45" height="45" fill="white" transform="translate(13 13)"/>
</clipPath>
</defs>
</svg>
