<svg width="70" height="70" viewBox="0 0 70 70" fill="none" xmlns="http://www.w3.org/2000/svg">
<rect width="70" height="70" rx="35" fill="#FEFEFE"/>
<g clip-path="url(#clip0_65_23)">
<path d="M43.8628 57.2883C43.4335 57.9859 42.6898 58.3999 41.8618 58.3999H28.1385C27.3105 58.3999 26.5668 57.9859 26.1375 57.2883C25.7235 56.6059 25.6852 55.7779 26.0532 55.0649L27.4792 52.2666H42.5212L43.9472 55.0649C44.3152 55.7779 44.2768 56.6059 43.8628 57.2883Z" fill="#0A2540"/>
<path d="M34.2333 20.8333H17.3666C16.5197 20.8333 15.8333 21.5197 15.8333 22.3666V30.0333C15.8333 30.8801 16.5197 31.5666 17.3666 31.5666H34.2333C35.0801 31.5666 35.7666 30.8801 35.7666 30.0333V22.3666C35.7666 21.5197 35.0801 20.8333 34.2333 20.8333Z" fill="#0A2540"/>
<path d="M23.4999 33.1001H17.3666C16.5197 33.1001 15.8333 33.7866 15.8333 34.6334V40.7668C15.8333 41.6136 16.5197 42.3001 17.3666 42.3001H23.4999C24.3468 42.3001 25.0333 41.6136 25.0333 40.7668V34.6334C25.0333 33.7866 24.3468 33.1001 23.4999 33.1001Z" fill="#FF9A00"/>
<path d="M34.2333 33.1001H28.1C27.2531 33.1001 26.5667 33.7866 26.5667 34.6334V40.7668C26.5667 41.6136 27.2531 42.3001 28.1 42.3001H34.2333C35.0802 42.3001 35.7667 41.6136 35.7667 40.7668V34.6334C35.7667 33.7866 35.0802 33.1001 34.2333 33.1001Z" fill="#252525"/>
<path d="M53.4 42.2999H41.9C41.4783 42.2999 41.1333 41.9549 41.1333 41.5333C41.1333 41.1116 41.4783 40.7666 41.9 40.7666H53.4C53.8216 40.7666 54.1666 41.1116 54.1666 41.5333C54.1666 41.9549 53.8216 42.2999 53.4 42.2999Z" fill="#252525"/>
<path d="M53.4 38.4667H41.9C41.4783 38.4667 41.1333 38.1217 41.1333 37.7C41.1333 37.2783 41.4783 36.9333 41.9 36.9333H53.4C53.8216 36.9333 54.1666 37.2783 54.1666 37.7C54.1666 38.1217 53.8216 38.4667 53.4 38.4667Z" fill="#252525"/>
<path d="M53.4 34.6334H41.9C41.4783 34.6334 41.1333 34.2884 41.1333 33.8668C41.1333 33.4451 41.4783 33.1001 41.9 33.1001H53.4C53.8216 33.1001 54.1666 33.4451 54.1666 33.8668C54.1666 34.2884 53.8216 34.6334 53.4 34.6334Z" fill="#252525"/>
<path d="M54.1667 17H15.8333C13.7173 17 12 18.7173 12 20.8333V46.9C12 49.016 13.7173 50.7333 15.8333 50.7333H54.1667C56.2827 50.7333 58 49.016 58 46.9V20.8333C58 18.7173 56.2827 17 54.1667 17ZM13.5333 44.6V20.8333C13.5333 19.5683 14.5683 18.5333 15.8333 18.5333H37.3V44.6H13.5333ZM56.4667 44.6H38.8333V18.5333H54.1667C55.4317 18.5333 56.4667 19.5683 56.4667 20.8333V44.6Z" fill="#0A2540"/>
<path d="M51.0998 29.2667C50.9388 29.2667 50.7778 29.213 50.6398 29.1133C50.3025 28.8603 50.2335 28.3773 50.4865 28.04L52.4415 25.4333L50.4865 22.8267C50.2335 22.4893 50.3025 22.0063 50.6398 21.7533C50.9772 21.5003 51.4602 21.5693 51.7132 21.9067L54.0132 24.9733C54.2202 25.2493 54.2202 25.6173 54.0132 25.8933L51.7132 28.96C51.5598 29.1593 51.3298 29.2667 51.0998 29.2667Z" fill="#0A2540"/>
<path d="M43.4333 29.2667C43.2033 29.2667 42.9733 29.1593 42.82 28.96L40.52 25.8933C40.313 25.6173 40.313 25.2493 40.52 24.9733L42.82 21.9067C43.073 21.5693 43.556 21.5003 43.8933 21.7533C44.2307 22.0063 44.2997 22.4893 44.0467 22.8267L42.0917 25.4333L44.0467 28.04C44.2997 28.3773 44.2307 28.8603 43.8933 29.1133C43.7553 29.213 43.5943 29.2667 43.4333 29.2667Z" fill="#0A2540"/>
<path d="M46.5 29.2667C46.4386 29.2667 46.3773 29.2667 46.316 29.2437C45.902 29.144 45.6566 28.7223 45.7563 28.316L47.2896 22.1827C47.3893 21.7687 47.8033 21.5233 48.2173 21.623C48.6313 21.7227 48.8766 22.1443 48.777 22.5507L47.2436 28.684C47.1593 29.0367 46.845 29.2667 46.5 29.2667Z" fill="#0A2540"/>
</g>
<defs>
<clipPath id="clip0_65_23">
<rect width="46" height="41.4" fill="white" transform="translate(12 17)"/>
</clipPath>
</defs>
</svg>
