<svg width="50" height="50" viewBox="0 0 50 50" fill="none" xmlns="http://www.w3.org/2000/svg">
<rect width="50" height="50" rx="25" fill="#FAAD1B"/>
<g clip-path="url(#clip0_60_15)">
<path d="M38.9216 14.504H10.0783C8.38232 14.504 7.00256 15.8838 7.00256 17.5797V22.4323C6.82786 27.2975 15.637 29.3412 21.01 29.6146C20.9682 29.4027 20.9458 29.1839 20.9458 28.9599V26.6018C20.9458 26.0356 21.4048 25.5766 21.971 25.5766H27.0288C27.595 25.5766 28.0541 26.0356 28.0541 26.6018V28.9599C28.0541 29.1838 28.0317 29.4027 27.9899 29.6146C33.3597 29.3438 42.1773 27.2919 41.9973 22.4323V17.5797C41.9973 15.8837 40.6176 14.504 38.9216 14.504Z" fill="black"/>
<path d="M17.5966 12.2978C17.5966 11.6487 18.1247 11.1207 18.7738 11.1207H30.2261C30.8751 11.1207 31.4032 11.6487 31.4032 12.2978V12.4535H33.4537V12.2978C33.4537 10.5181 32.0058 9.07019 30.2261 9.07019H18.7738C16.994 9.07019 15.5461 10.5181 15.5461 12.2978V12.4535H17.5966V12.2978Z" fill="black"/>
<path d="M26.5869 31.7463C26.0417 32.1223 25.3817 32.3432 24.6709 32.3432H24.3291C23.6183 32.3432 22.9583 32.1223 22.4132 31.7463C18.5586 31.5904 14.986 31.0039 12.1881 30.0556C10.6899 29.5478 9.41339 28.935 8.36963 28.2238V36.8542C8.36963 38.5502 9.74939 39.9299 11.4453 39.9299H37.5547C39.2506 39.9299 40.6304 38.5502 40.6304 36.8542V28.2236C36.562 30.7898 32.0441 31.4203 26.5869 31.7463Z" fill="black"/>
<path d="M24.3291 30.2927H24.6709C25.4085 30.298 26.0075 29.675 26.0037 28.9599V27.6271H22.9963V28.9599C22.9963 29.2205 23.0861 29.5061 23.2374 29.7221C23.4787 30.0665 23.8777 30.2927 24.3291 30.2927Z" fill="black"/>
</g>
<defs>
<clipPath id="clip0_60_15">
<rect width="35" height="35" fill="white" transform="translate(7 7)"/>
</clipPath>
</defs>
</svg>
